<svg width="25" height="26" viewBox="0 0 25 26" fill="none" xmlns="http://www.w3.org/2000/svg">
<path d="M12.5 0.0858154C10.0277 0.0858154 7.61099 0.818928 5.55538 2.19245C3.49976 3.56596 1.89761 5.51819 0.951511 7.80227C0.00541605 10.0863 -0.242126 12.5997 0.24019 15.0244C0.722505 17.4492 1.91301 19.6765 3.66117 21.4246C5.40933 23.1728 7.63661 24.3633 10.0614 24.8456C12.4861 25.3279 14.9995 25.0804 17.2835 24.1343C19.5676 23.1882 21.5199 21.5861 22.8934 19.5304C24.2669 17.4748 25 15.0581 25 12.5858C25 10.9443 24.6767 9.31884 24.0485 7.80227C23.4203 6.2857 22.4996 4.90771 21.3388 3.74698C20.1781 2.58625 18.8001 1.6655 17.2835 1.03732C15.767 0.409137 14.1415 0.0858154 12.5 0.0858154ZM12.5 22.5858C10.5222 22.5858 8.58879 21.9993 6.9443 20.9005C5.29981 19.8017 4.01809 18.2399 3.26121 16.4126C2.50433 14.5854 2.3063 12.5747 2.69215 10.6349C3.078 8.6951 4.03041 6.91327 5.42894 5.51475C6.82746 4.11622 8.60929 3.16381 10.5491 2.77796C12.4889 2.39211 14.4996 2.59014 16.3268 3.34702C18.1541 4.1039 19.7159 5.38562 20.8147 7.03011C21.9135 8.6746 22.5 10.608 22.5 12.5858C22.5 15.238 21.4464 17.7815 19.5711 19.6569C17.6957 21.5322 15.1522 22.5858 12.5 22.5858Z" fill="#7CB118"/>
<path d="M12.5 18.8358C13.1904 18.8358 13.75 18.2762 13.75 17.5858C13.75 16.8955 13.1904 16.3358 12.5 16.3358C11.8096 16.3358 11.25 16.8955 11.25 17.5858C11.25 18.2762 11.8096 18.8358 12.5 18.8358Z" fill="#7CB118"/>
<path d="M12.5 6.33582C12.1685 6.33582 11.8505 6.46751 11.6161 6.70193C11.3817 6.93635 11.25 7.25429 11.25 7.58582V13.8358C11.25 14.1673 11.3817 14.4853 11.6161 14.7197C11.8505 14.9541 12.1685 15.0858 12.5 15.0858C12.8315 15.0858 13.1495 14.9541 13.3839 14.7197C13.6183 14.4853 13.75 14.1673 13.75 13.8358V7.58582C13.75 7.25429 13.6183 6.93635 13.3839 6.70193C13.1495 6.46751 12.8315 6.33582 12.5 6.33582Z" fill="#7CB118"/>
</svg>
