<svg width="31" height="52" viewBox="0 0 31 52" fill="none" xmlns="http://www.w3.org/2000/svg">
<path d="M18.2924 0.40566C17.8392 0.808518 14.3142 7.80399 14.3142 7.80399L11.6914 18.3832L21.8972 17.4474C21.8972 17.4474 30.3866 1.6604 30.5586 1.29531C30.865 0.632268 31.0286 0.359499 29.8578 0.359499C28.687 0.355302 18.7163 0.0279795 18.2924 0.40566Z" fill="#AF813E"/>
<path d="M23.5764 16.7927C23.0686 16.5199 8.1125 16.2849 7.76 16.7927C7.44107 17.2543 7.62152 19.6757 7.74321 19.9652C7.96143 20.4688 12.7664 22.4201 12.7664 22.4201V23.6329C12.7664 23.6329 13.0937 23.7672 15.8969 23.7672C18.7001 23.7672 19.2583 23.6245 19.2583 23.6245L19.2792 22.4579C19.2792 22.4579 23.4505 20.3093 23.6687 20.0114C23.8618 19.7638 24.0842 17.0655 23.5764 16.7927ZM19.2373 20.6283C19.2373 20.6283 19.296 20.0492 19.0065 19.9065C18.7169 19.7596 13.7106 19.7848 13.3161 19.8058C12.9216 19.8267 12.9216 20.5317 12.9216 20.5317L9.78688 18.8742L9.73233 18.3202L21.4572 18.3832L21.4824 19.1301L19.2373 20.6283Z" fill="#7BB017"/>
<path d="M14.0752 20.3809C13.6808 20.3809 13.3828 20.8257 13.3828 21.5307C13.3828 22.1937 13.6094 22.7393 14.1088 22.7099C14.583 22.6847 14.8096 22.0846 14.776 21.5223C14.7341 20.8635 14.5746 20.3809 14.0752 20.3809Z" fill="#FDFFFF"/>
<path d="M1.60059 37.2716C1.60059 47.3263 10.7111 51.5101 16.7581 51.3297C23.804 51.1198 31.3828 45.7736 30.7575 36.1805C30.17 27.1791 22.4947 22.882 15.8727 22.9323C8.17642 22.9869 1.60059 28.4884 1.60059 37.2716Z" fill="#7CB118"/>
<path d="M16.3743 49.5252C16.2694 49.5252 16.1603 49.5252 16.0554 49.521C12.9081 49.4161 9.71039 48.2285 7.43591 46.0254C5.00197 43.667 3.49965 40.6833 3.49125 37.2548C3.47027 28.2492 11.1875 24.9382 16.1519 24.9382H16.1939C22.9208 24.9676 28.7329 29.9949 28.8839 37.0827C28.9511 40.2385 27.6586 43.5788 25.1239 46.0715C22.7613 48.3922 19.2741 49.5252 16.3743 49.5252Z" fill="#A2CE53"/>
<path d="M0.00509651 0.187572C-0.25928 0.430966 9.84996 18.4337 9.84996 18.4337C9.84996 18.4337 11.5453 18.6519 15.3305 18.6855C19.1157 18.7191 20.9915 18.4673 20.9915 18.4673C20.9915 18.4673 13.1316 0.368019 12.6616 0.187572C12.4308 0.0952504 9.31701 0.0616788 6.27459 0.0281073C3.22797 -0.00966076 0.256883 -0.0474287 0.00509651 0.187572Z" fill="#CD9F52"/>
<path d="M11.2429 26.8896C10.6302 26.365 7.51225 27.9471 5.3217 31.5686C3.85295 33.9984 3.72705 37.1079 4.66286 37.1583C5.59867 37.2087 5.58608 34.1327 7.62135 31.4427C10.0805 28.2073 12.1283 27.6492 11.2429 26.8896Z" fill="#FEFFFA"/>
<path d="M16.3116 26.7007C15.4933 26.7007 14.2175 32.1099 13.2146 32.7771C12.2116 33.4444 7.01644 32.8065 6.95769 33.5367C6.89894 34.2669 10.8142 37.3051 11.2716 38.4256C11.729 39.546 9.2951 44.5608 9.96654 45.0475C10.6338 45.5343 14.826 42.0387 16.2234 42.0387C17.6796 42.0387 21.4312 45.7693 22.0565 45.2574C22.7153 44.7202 20.6003 39.8188 20.9318 38.6941C21.2676 37.5695 25.8207 35.1691 25.6403 34.078C25.4598 32.9828 20.1723 33.8053 19.1987 32.8946C18.2251 31.984 17.1928 26.7007 16.3116 26.7007Z" fill="#D7FF96"/>
</svg>
