<svg width="9" height="14" viewBox="0 0 9 14" fill="none" xmlns="http://www.w3.org/2000/svg">
<g clip-path="url(#clip0_45_954)">
<path d="M0.939504 1.76842C0.742373 1.56842 0.632855 1.30526 0.643807 1.03158C0.643807 0.757894 0.753324 0.505262 0.961408 0.305262C1.15854 0.115788 1.43233 -1.61526e-06 1.71708 -1.59037e-06C2.00183 -1.56547e-06 2.27562 0.0947365 2.4837 0.28421L8.6824 6.2421C8.78097 6.33684 8.85763 6.45263 8.91239 6.57895C8.96715 6.70526 9 6.8421 9 6.97895C9 7.11579 8.96715 7.25263 8.91239 7.38947C8.85763 7.51579 8.78097 7.63158 8.6824 7.72632L2.4837 13.6842C2.38514 13.7789 2.26467 13.8632 2.13324 13.9158C1.99087 13.9684 1.8485 14 1.70613 14C1.56375 14 1.41043 13.9789 1.27901 13.9263C1.14759 13.8737 1.02712 13.7895 0.9176 13.6947C0.819034 13.6 0.742372 13.4737 0.687613 13.3474C0.621902 13.2211 0.599999 13.0842 0.599999 12.9368C0.599999 12.8 0.632854 12.6632 0.687613 12.5368C0.742372 12.4105 0.829986 12.2947 0.939503 12.1895L6.36063 6.97895L5.33116 6L0.939504 1.76842Z" fill="#7CB118"/>
</g>
<defs>
<clipPath id="clip0_45_954">
<rect width="8.4" height="14" fill="white" transform="translate(9 14) rotate(-180)"/>
</clipPath>
</defs>
</svg>
