<svg width="30" height="30" viewBox="0 0 30 30" fill="none" xmlns="http://www.w3.org/2000/svg">
<rect width="30" height="30" rx="15" fill="#7CB118"/>
<path d="M9.17977 15.4079L15.3393 20.9343C15.3866 20.9764 15.4469 21 15.5105 21L16.9534 21C17.0741 21 17.1295 20.8449 17.0382 20.764L11.3286 15.6404L20.8696 15.6404C20.9413 15.6404 21 15.5798 21 15.5056V14.4944C21 14.4202 20.9413 14.3596 20.8696 14.3596L11.3302 14.3596L17.0398 9.23596C17.1311 9.15337 17.0757 9 16.955 9H15.4632C15.4323 9 15.4013 9.0118 15.3785 9.03371L9.17977 14.5921C9.12333 14.6429 9.07807 14.7055 9.04706 14.7759C9.01605 14.8463 9 14.9227 9 15C9 15.0773 9.01605 15.1537 9.04706 15.2241C9.07807 15.2945 9.12333 15.3571 9.17977 15.4079V15.4079Z" fill="white"/>
</svg>
