<svg width="154" height="208" viewBox="0 0 154 208" fill="none" xmlns="http://www.w3.org/2000/svg">
<path d="M33.1478 0C32.7603 0 32.459 0.301341 32.459 0.688779V9.34156C32.459 9.729 32.7603 10.0303 33.1478 10.0303H63.5401C63.9276 10.0303 64.2289 9.729 64.2289 9.34156V0.688779C64.2289 0.301341 63.9276 0 63.5401 0H33.1478Z" fill="#A2CE53"/>
<path d="M153.167 207.495L147.097 86.7008C147.097 86.6578 147.097 86.6148 147.097 86.5717L145.763 59.8385L135.991 65.9944C134.958 66.6402 133.58 66.6402 132.547 65.9944L119.848 57.9443L107.148 65.9944C106.115 66.6402 104.737 66.6832 103.704 65.9944L91.0049 57.9443L78.3056 65.9944C77.2724 66.6402 75.8948 66.6402 74.8617 65.9944L62.1623 57.9443L49.4629 65.9944C48.4298 66.6402 47.0522 66.6402 46.019 65.9944L33.3197 57.9443L20.6203 65.9944C19.5872 66.6402 18.2096 66.6402 17.1764 65.9944L7.40438 59.8385L2.06634 168.106C2.06634 168.364 2.02329 168.622 1.93719 168.881L0 207.495H153.167ZM76.6267 95.2675C94.0183 95.2675 108.138 109.388 108.138 126.779C108.138 144.171 93.9753 158.291 76.6267 158.291C59.235 158.291 45.115 144.128 45.115 126.779C45.115 109.431 59.235 95.2675 76.6267 95.2675Z" fill="#CAA052"/>
<path d="M23.3302 56.6955L31.5955 51.4436C32.6287 50.7979 34.0062 50.7979 35.0394 51.4436L47.7388 59.4937L60.4381 51.4436C61.4713 50.7979 62.8488 50.7548 63.882 51.4436L73.3527 57.4274V52.4768C73.3527 48.9898 72.1043 45.6751 69.8227 43.0922L65.4748 38.1846C62.1601 34.3963 60.309 29.5749 60.309 24.5382V16.5311H36.3309V24.5382C36.3309 29.5749 34.4798 34.3963 31.165 38.1846L26.8171 43.0922C24.5355 45.6751 23.2871 49.0329 23.2871 52.4768H23.3302V56.6955Z" fill="#7CB118"/>
<path d="M79.8555 23.2893V52.4763V57.4269L89.3262 51.4432C90.3593 50.7974 91.7369 50.7544 92.7701 51.4432L105.512 59.4933L118.212 51.4432C119.245 50.7974 120.623 50.7974 121.656 51.4432L126.434 54.4566V50.9696V50.9266V23.2893C126.434 10.4608 115.973 0 103.145 0C90.3163 0 79.8555 10.4608 79.8555 23.2893ZM103.145 20.4912C112.4 20.4912 119.417 24.8821 119.417 30.6937C119.417 36.5053 112.4 40.8962 103.145 40.8962C93.8893 40.8962 86.8724 36.5053 86.8724 30.6937C86.8724 24.8821 93.8893 20.4912 103.145 20.4912Z" fill="#F5954D"/>
<path d="M103.145 34.4386C109.516 34.4386 112.96 31.7696 112.96 30.6934C112.96 29.5741 109.516 26.9481 103.145 26.9481C96.774 26.9481 93.3301 29.6171 93.3301 30.6934C93.3301 31.7696 96.774 34.3955 103.145 34.4386Z" fill="#F5954D"/>
<path d="M76.6247 151.876C90.4433 151.876 101.679 140.641 101.679 126.822C101.679 113.003 90.4433 101.768 76.6247 101.768C62.806 101.768 51.5703 113.003 51.5703 126.822C51.5703 140.641 62.806 151.876 76.6247 151.876Z" fill="#CAA052"/>
</svg>
