<svg width="52" height="31" viewBox="0 0 52 31" fill="none" xmlns="http://www.w3.org/2000/svg">
<path d="M21.4322 27.7255C23.0919 26.1784 23.3474 23.7552 22.003 22.313C20.6587 20.8708 18.2234 20.9558 16.5638 22.5029C14.9041 24.05 14.6486 26.4733 15.993 27.9155C17.3374 29.3577 19.7726 29.2726 21.4322 27.7255Z" fill="url(#paint0_linear_2_80)"/>
<path d="M43.392 27.7271C45.0516 26.18 45.3072 23.7567 43.9628 22.3146C42.6184 20.8724 40.1831 20.9574 38.5235 22.5045C36.8639 24.0516 36.6083 26.4749 37.9527 27.9171C39.2971 29.3593 41.7323 29.2742 43.392 27.7271Z" fill="url(#paint1_linear_2_80)"/>
<path d="M4.0178 8.79058C4.0178 7.83281 3.24138 7.0564 2.28362 7.0564C1.32586 7.0564 0.549438 7.83281 0.549438 8.79058C0.549438 9.74834 1.32586 10.5248 2.28362 10.5248C3.24138 10.5248 4.0178 9.74834 4.0178 8.79058Z" fill="url(#paint2_linear_2_80)"/>
<path d="M35.1894 24.7517C35.8058 21.7048 38.6841 19.2835 41.7777 19.2835C44.7565 19.2835 46.9036 21.5291 46.8447 24.4165C50.0662 24.5008 50.963 20.2585 50.963 20.2585C51.2342 19.0723 51.6394 16.7597 51.9787 14.4898C52.0898 13.789 52.0044 13.0711 51.7319 12.4159C50.8897 10.4501 49.872 8.56419 48.6911 6.78121C47.5739 5.11457 45.7001 4.12738 43.5612 4.09184C42.2855 4.07152 41.0333 4.05933 40.0877 4.05933L40.0796 4.05121C39.9577 2.01183 38.4708 0.449804 36.3837 0.262929C35.0258 0.14207 29.6471 0.0537109 27.0654 0.0537109C26.0396 0.0537109 24.568 0.0679294 23.0791 0.0923044V0.0862109H23.0669H5.16546C4.93762 0.0860774 4.71199 0.130855 4.50147 0.217984C4.29094 0.305113 4.09966 0.432884 3.93855 0.593991C3.77745 0.755098 3.64967 0.946382 3.56255 1.1569C3.47542 1.36743 3.43064 1.59306 3.43077 1.8209V1.82902C3.43077 2.28694 3.61268 2.72609 3.93647 3.04989C4.26026 3.37368 4.69942 3.55559 5.15733 3.55559H8.76585C9.20036 3.58762 9.6067 3.78275 9.90337 4.10183C10.2 4.42091 10.3651 4.84036 10.3655 5.27605V5.28519C10.3661 5.51325 10.3218 5.7392 10.2351 5.95012C10.1483 6.16104 10.0208 6.35278 9.8599 6.51437C9.69896 6.67596 9.50775 6.80423 9.29719 6.89185C9.08663 6.97946 8.86086 7.02469 8.6328 7.02496H6.78233C6.32254 7.02496 5.88157 7.20761 5.55644 7.53274C5.23132 7.85787 5.04866 8.29883 5.04866 8.75863C5.04853 8.98638 5.09327 9.21193 5.18034 9.42239C5.2674 9.63284 5.39508 9.82408 5.55608 9.98518C5.71708 10.1463 5.90825 10.2741 6.11865 10.3613C6.32906 10.4484 6.55458 10.4933 6.78233 10.4933H8.6328C9.09287 10.4933 9.53409 10.6761 9.85941 11.0014C10.1847 11.3267 10.3675 11.7679 10.3675 12.228C10.3675 12.6881 10.1847 13.1293 9.85941 13.4546C9.53409 13.7799 9.09287 13.9627 8.6328 13.9627H1.7103C1.25041 13.9627 0.809341 14.1453 0.484053 14.4704C0.158766 14.7955 -0.0241143 15.2365 -0.0243835 15.6964C-0.0243835 16.1564 0.158378 16.5977 0.483694 16.923C0.809011 17.2483 1.25024 17.431 1.7103 17.431H8.6328C9.09287 17.431 9.53409 17.6138 9.85941 17.9391C10.1847 18.2644 10.3675 18.7057 10.3675 19.1657C10.367 19.6255 10.184 20.0662 9.85869 20.391C9.53343 20.7159 9.09252 20.8984 8.6328 20.8984H6.49186C6.03207 20.8984 5.5911 21.081 5.26597 21.4062C4.94085 21.7313 4.75819 22.1723 4.75819 22.6321C4.75819 23.092 4.94082 23.533 5.26591 23.8583C5.59101 24.1836 6.03197 24.3665 6.49186 24.3667L13.323 24.3617L13.8907 22.9469C15.0536 20.8019 17.3672 19.2825 19.8169 19.2825C22.9115 19.2825 25.1093 21.7058 24.8676 24.7547H35.1883L35.1894 24.7517ZM17.9837 7.83238H15.6558C15.6536 7.83256 15.6516 7.83345 15.6499 7.83491C15.6483 7.83638 15.6471 7.83834 15.6467 7.8405L15.4324 9.36394C15.4321 9.36516 15.4321 9.36644 15.4323 9.36768C15.4326 9.36891 15.4331 9.37007 15.4339 9.37105C15.4347 9.37204 15.4357 9.37283 15.4369 9.37336C15.438 9.37389 15.4393 9.37414 15.4405 9.3741H17.1732C17.2582 9.37168 17.3428 9.38828 17.4206 9.42267C17.4984 9.45706 17.5676 9.50838 17.623 9.5729C17.6785 9.63741 17.7189 9.71349 17.7412 9.79559C17.7635 9.87769 17.7672 9.96374 17.7521 10.0475C17.7224 10.2315 17.6295 10.3994 17.4894 10.5223C17.3492 10.6452 17.1706 10.7154 16.9843 10.7208H15.2496C15.2475 10.7208 15.2454 10.7214 15.2438 10.7227C15.2421 10.724 15.2409 10.7259 15.2405 10.7279L14.9297 12.941C14.9 13.125 14.8071 13.2929 14.6669 13.4158C14.5268 13.5387 14.3482 13.6089 14.1619 13.6143C14.0768 13.6168 13.9924 13.6002 13.9146 13.5658C13.8368 13.5314 13.7677 13.4801 13.7123 13.4155C13.6569 13.351 13.6166 13.2749 13.5944 13.1928C13.5722 13.1107 13.5687 13.0246 13.584 12.941L14.3904 7.20066C14.4223 7.00632 14.5209 6.82912 14.6691 6.69943C14.8173 6.56973 15.006 6.4956 15.2029 6.48973H18.1716C18.2566 6.48727 18.3411 6.50385 18.4188 6.53825C18.4966 6.57265 18.5657 6.624 18.6211 6.68854C18.6765 6.75308 18.7168 6.82919 18.739 6.91129C18.7612 6.99339 18.7648 7.07942 18.7494 7.16308C18.7193 7.34619 18.6265 7.51312 18.4867 7.63524C18.347 7.75736 18.1692 7.82706 17.9837 7.83238ZM24.2054 6.94676C24.4472 7.16131 24.6174 7.44491 24.6929 7.75926C24.7773 8.11536 24.7911 8.48456 24.7335 8.84597C24.6629 9.40834 24.4327 9.93874 24.0703 10.3745C23.849 10.6362 23.5678 10.8407 23.2507 10.9707C23.2493 10.9722 23.2485 10.9742 23.2485 10.9762C23.2485 10.9783 23.2493 10.9803 23.2507 10.9818L23.8276 12.6464C23.983 13.0933 23.5838 13.6143 23.0872 13.6143H23.0547C22.9342 13.6179 22.8157 13.583 22.7164 13.5147C22.617 13.4464 22.542 13.3483 22.5022 13.2345L21.8044 11.2032C21.8034 11.2017 21.8021 11.2004 21.8005 11.1996C21.7989 11.1987 21.7971 11.1982 21.7953 11.1982H20.3125C20.3104 11.1983 20.3084 11.199 20.3068 11.2003C20.3052 11.2016 20.304 11.2033 20.3033 11.2053L20.0596 12.94C20.0299 13.124 19.937 13.2919 19.7969 13.4148C19.6567 13.5377 19.4781 13.6079 19.2918 13.6133C19.2068 13.6158 19.1223 13.5992 19.0445 13.5648C18.9667 13.5304 18.8976 13.479 18.8422 13.4145C18.7868 13.35 18.7465 13.2739 18.7243 13.1917C18.7021 13.1096 18.6986 13.0236 18.7139 12.94L19.5203 7.19965C19.5523 7.0053 19.6508 6.82811 19.799 6.69841C19.9472 6.56871 20.1359 6.49458 20.3328 6.48871H22.6281C22.6281 6.48871 23.6356 6.45722 24.2054 6.94676ZM30.5226 7.11535C30.495 7.28724 30.4082 7.4441 30.2773 7.55887C30.1464 7.67365 29.9796 7.73913 29.8055 7.74402H27.1355C27.1334 7.74413 27.1314 7.74487 27.1298 7.74615C27.1281 7.74742 27.1269 7.74916 27.1263 7.75113L26.914 9.25832C26.9137 9.25954 26.9137 9.26082 26.914 9.26205C26.9142 9.26329 26.9148 9.26444 26.9156 9.26543C26.9164 9.26641 26.9174 9.2672 26.9185 9.26773C26.9197 9.26826 26.9209 9.26851 26.9222 9.26847H28.9961C29.0755 9.26612 29.1544 9.28155 29.2271 9.31364C29.2998 9.34572 29.3644 9.39364 29.4162 9.4539C29.468 9.51416 29.5057 9.58523 29.5265 9.66192C29.5473 9.73861 29.5507 9.81898 29.5364 9.89714C29.5088 10.069 29.422 10.2259 29.2911 10.3407C29.1602 10.4554 28.9934 10.5209 28.8194 10.5258H26.7444C26.7424 10.5259 26.7404 10.5267 26.7388 10.5279C26.7371 10.5292 26.7359 10.531 26.7353 10.5329L26.4804 12.3468C26.4804 12.3494 26.4813 12.3518 26.483 12.3537C26.4847 12.3556 26.487 12.3567 26.4895 12.357H29.1576C29.237 12.3546 29.3159 12.3701 29.3886 12.4022C29.4613 12.4342 29.5259 12.4822 29.5777 12.5424C29.6295 12.6027 29.6672 12.6737 29.688 12.7504C29.7087 12.8271 29.7121 12.9075 29.6979 12.9857C29.6703 13.1575 29.5835 13.3144 29.4526 13.4292C29.3217 13.544 29.1549 13.6094 28.9808 13.6143H25.6699C25.5806 13.6156 25.4921 13.5972 25.4106 13.5604C25.3292 13.5236 25.2568 13.4694 25.1987 13.4016C25.1406 13.3338 25.098 13.254 25.0742 13.1679C25.0503 13.0818 25.0456 12.9915 25.0605 12.9034L25.8619 7.20371C25.8938 7.00936 25.9923 6.83217 26.1406 6.70247C26.2888 6.57278 26.4775 6.49864 26.6744 6.49277H29.9843C30.0629 6.49091 30.141 6.50646 30.2129 6.53833C30.2848 6.5702 30.3488 6.61758 30.4003 6.67709C30.4517 6.7366 30.4894 6.80675 30.5105 6.88252C30.5317 6.95829 30.5358 7.0378 30.5226 7.11535ZM36.0689 7.11535C36.0413 7.28724 35.9545 7.4441 35.8236 7.55887C35.6927 7.67365 35.5259 7.73913 35.3519 7.74402H32.6818C32.6797 7.74413 32.6777 7.74487 32.6761 7.74615C32.6745 7.74742 32.6733 7.74916 32.6726 7.75113L32.4614 9.25832C32.4611 9.25954 32.461 9.26082 32.4613 9.26205C32.4616 9.26329 32.4621 9.26444 32.4629 9.26543C32.4637 9.26641 32.4647 9.2672 32.4659 9.26773C32.467 9.26826 32.4683 9.26851 32.4695 9.26847H34.5434C34.6228 9.26612 34.7018 9.28155 34.7745 9.31364C34.8472 9.34572 34.9118 9.39364 34.9636 9.4539C35.0154 9.51416 35.053 9.58523 35.0738 9.66192C35.0946 9.73861 35.098 9.81898 35.0837 9.89714C35.0561 10.069 34.9694 10.2259 34.8385 10.3407C34.7076 10.4554 34.5407 10.5209 34.3667 10.5258H32.2908C32.2887 10.5259 32.2867 10.5267 32.2851 10.5279C32.2834 10.5292 32.2822 10.531 32.2816 10.5329L32.0267 12.3468C32.0267 12.3494 32.0276 12.3518 32.0293 12.3537C32.031 12.3556 32.0333 12.3567 32.0358 12.357H34.7039C34.7833 12.3546 34.8623 12.3701 34.9349 12.4022C35.0076 12.4342 35.0722 12.4822 35.124 12.5424C35.1758 12.6027 35.2135 12.6737 35.2343 12.7504C35.2551 12.8271 35.2585 12.9075 35.2442 12.9857C35.2166 13.1575 35.1299 13.3144 34.999 13.4292C34.868 13.544 34.7012 13.6094 34.5272 13.6143H31.2162C31.1269 13.6156 31.0384 13.5972 30.957 13.5604C30.8755 13.5236 30.8032 13.4694 30.745 13.4016C30.6869 13.3338 30.6444 13.254 30.6205 13.1679C30.5966 13.0818 30.592 12.9915 30.6069 12.9034L31.4082 7.20371C31.4401 7.00936 31.5387 6.83217 31.6869 6.70247C31.8351 6.57278 32.0238 6.49864 32.2207 6.49277H35.5306C35.6092 6.49091 35.6873 6.50646 35.7593 6.53833C35.8312 6.5702 35.8952 6.61758 35.9466 6.67709C35.9981 6.7366 36.0357 6.80675 36.0568 6.88252C36.078 6.95829 36.0821 7.0378 36.0689 7.11535ZM39.9283 6.46433C40.8352 6.46433 42.0093 6.47652 43.1874 6.49582C44.6154 6.51918 45.8646 7.17527 46.6141 8.29449C47.4147 9.50145 48.1343 10.7602 48.7683 12.0625C49.1034 12.745 48.4869 13.6336 47.6795 13.6336H39.0213L39.9283 6.46433Z" fill="url(#paint3_linear_2_80)"/>
<path d="M22.0848 9.94186H20.4801L20.7848 7.74405H22.3884C22.3884 7.74405 23.5655 7.66787 23.3726 8.84296C23.3776 8.84296 23.2426 9.94186 22.0848 9.94186Z" fill="url(#paint4_linear_2_80)"/>
<defs>
<linearGradient id="paint0_linear_2_80" x1="16.5638" y1="22.5029" x2="21.4322" y2="27.7255" gradientUnits="userSpaceOnUse">
<stop stop-color="#7CB118"/>
<stop offset="1" stop-color="#D7FF96"/>
</linearGradient>
<linearGradient id="paint1_linear_2_80" x1="38.5235" y1="22.5045" x2="43.392" y2="27.7271" gradientUnits="userSpaceOnUse">
<stop stop-color="#7CB118"/>
<stop offset="1" stop-color="#D7FF96"/>
</linearGradient>
<linearGradient id="paint2_linear_2_80" x1="2.28362" y1="7.0564" x2="2.28362" y2="10.5248" gradientUnits="userSpaceOnUse">
<stop stop-color="#7CB118"/>
<stop offset="1" stop-color="#D7FF96"/>
</linearGradient>
<linearGradient id="paint3_linear_2_80" x1="26.0008" y1="0.0537109" x2="26.0008" y2="24.7547" gradientUnits="userSpaceOnUse">
<stop stop-color="#7CB118"/>
<stop offset="1" stop-color="#D7FF96"/>
</linearGradient>
<linearGradient id="paint4_linear_2_80" x1="21.937" y1="7.74304" x2="21.937" y2="9.94186" gradientUnits="userSpaceOnUse">
<stop stop-color="#7CB118"/>
<stop offset="1" stop-color="#D7FF96"/>
</linearGradient>
</defs>
</svg>
