<svg width="36" height="25" viewBox="0 0 36 25" fill="none" xmlns="http://www.w3.org/2000/svg">
<path d="M24 10.3448H34.2857V9.92383L29.4265 5.17241H24V10.3448ZM24 12.069V18.103C24.7819 17.0563 26.0266 16.3793 27.4286 16.3793C29.186 16.3793 30.6963 17.4432 31.3577 18.9655H34.2857V12.069H24ZM22.2857 18.9655V3.44828V1.72414H1.71429V18.9655H2.92804C3.58937 17.4432 5.09973 16.3793 6.85714 16.3793C8.61456 16.3793 10.1249 17.4432 10.7862 18.9655H22.2857ZM24 3.44828H30.1224L36 9.1954V18.9655C36 19.9177 35.2325 20.6897 34.2857 20.6897H31.7143C31.7143 23.0702 29.7955 25 27.4286 25C25.0616 25 23.1429 23.0702 23.1429 20.6897H11.1429C11.1429 23.0702 9.22408 25 6.85714 25C4.49021 25 2.57143 23.0702 2.57143 20.6897H1.71429C0.767512 20.6897 0 19.9177 0 18.9655V1.72414C0 0.771923 0.767512 0 1.71429 0H22.2857C23.2325 0 24 0.771923 24 1.72414V3.44828ZM6.85714 23.2759C8.2773 23.2759 9.42857 22.118 9.42857 20.6897C9.42857 19.2613 8.2773 18.1034 6.85714 18.1034C5.43698 18.1034 4.28571 19.2613 4.28571 20.6897C4.28571 22.118 5.43698 23.2759 6.85714 23.2759ZM27.4286 23.2759C28.8487 23.2759 30 22.118 30 20.6897C30 19.2613 28.8487 18.1034 27.4286 18.1034C26.0084 18.1034 24.8571 19.2613 24.8571 20.6897C24.8571 22.118 26.0084 23.2759 27.4286 23.2759Z" fill="black"/>
</svg>
