<?xml version="1.0" encoding="UTF-8"?>
<svg id="Layer_2" data-name="Layer 2" xmlns="http://www.w3.org/2000/svg" viewBox="0 0 76.6 38.3">
  <defs>
    <style>
      .cls-1 {
        fill: #fff;
      }
    </style>
  </defs>
  <g id="Layer_1-2" data-name="Layer 1">
    <g>
      <path class="cls-1" d="M26.08,26.21c-3.35,0-6.29,2.71-6.58,6.05-.29,3.34,2.19,6.05,5.54,6.05s6.29-2.71,6.58-6.05c.29-3.34-2.19-6.05-5.54-6.05Zm-.78,9.03c-1.65,0-2.88-1.34-2.73-2.99,.14-1.65,1.6-2.99,3.25-2.99s2.88,1.34,2.73,2.99c-.14,1.65-1.6,2.99-3.25,2.99Z"/>
      <path class="cls-1" d="M75.46,16.72l-6.62-7.23c-.72-.79-2.22-1.43-3.33-1.43h-8.08l.52-6.05c.09-1.11-.74-2.02-1.85-2.02H15.72c-1.11,0-2.1,.91-2.19,2.02l-.03,.37h-5.22c-.66,0-1.24,.53-1.3,1.19-.06,.66,.43,1.19,1.09,1.19H25.56c.66,0,1.15,.54,1.09,1.19-.06,.66-.64,1.19-1.3,1.19H3.49c-.66,0-1.24,.54-1.3,1.19-.06,.66,.43,1.19,1.09,1.19H22.15c.66,0,1.15,.54,1.09,1.19-.06,.66-.64,1.19-1.3,1.19H5.88c-.66,0-1.24,.54-1.3,1.19-.06,.66,.43,1.19,1.09,1.19H26.52c.66,0,1.15,.53,1.09,1.19-.06,.66-.64,1.19-1.3,1.19H1.3c-.66,0-1.24,.54-1.3,1.19-.06,.66,.43,1.19,1.09,1.19H18.93c.66,0,1.15,.54,1.09,1.19-.06,.66-.64,1.19-1.3,1.19h-6.88l-.75,8.73c-.1,1.11,.73,2.02,1.85,2.02h5.05c.36-4.17,4.05-7.56,8.23-7.56s7.28,3.39,6.92,7.56h24.24c.36-4.17,4.05-7.56,8.23-7.56s7.28,3.39,6.92,7.56h1.01c1.11,0,2.1-.91,2.19-2.02l.87-10.08c.1-1.11-.41-2.66-1.13-3.44Zm-16.78,.42l.61-7.05h6.06c.57,0,1.58,.43,1.95,.84l5.7,6.22h-14.31Z"/>
      <path class="cls-1" d="M65.46,26.21c-3.35,0-6.29,2.71-6.58,6.05-.29,3.34,2.19,6.05,5.54,6.05s6.29-2.71,6.58-6.05c.29-3.34-2.19-6.05-5.54-6.05Zm-.78,9.03c-1.65,0-2.88-1.34-2.73-2.99,.14-1.65,1.6-2.99,3.25-2.99s2.88,1.34,2.73,2.99c-.14,1.65-1.6,2.99-3.25,2.99Z"/>
    </g>
  </g>
</svg>