<?xml version="1.0" encoding="UTF-8"?>
<svg id="Layer_2" data-name="Layer 2" xmlns="http://www.w3.org/2000/svg" viewBox="0 0 55.85 51.17">
  <defs>
    <style>
      .cls-1 {
        fill: #fff;
      }
    </style>
  </defs>
  <g id="Layer_1-2" data-name="Layer 1">
    <g>
      <path class="cls-1" d="M27.55,26.68l.03,.03c.56,.56,1.13,.69,2.22,.24l-2.44-2.44c-.43,.83-.33,1.64,.19,2.16Z"/>
      <path class="cls-1" d="M36.84,27.63c-.61-.61-1.26-.73-2.7-.02l2.71,2.71c.68-.99,.69-2,.03-2.66l-.03-.03Z"/>
      <path class="cls-1" d="M55.26,29.38L29.45,3.56c-.27-.27-.61-.46-.98-.54L14.85,.05c-.66-.15-1.36,.06-1.84,.54l-7.75,7.75c-.48,.48-.68,1.17-.54,1.84l.39,1.77,.44,2.01c-.43,.57-.84,1.19-1.24,1.83-1.32,2.17-2.4,4.72-3.17,7.49C-.09,27.74-.34,32.3,.45,36.08c.41,1.95,1.07,3.62,1.97,4.95,1.02,1.51,2.35,2.58,3.85,3.09,2.8,.95,5.88-.06,8.68-2.85,1.19-1.19,2.28-2.65,3.23-4.31l-2.06-2.06c-.92,1.73-1.98,3.22-3.15,4.39-1.06,1.06-2.18,1.81-3.23,2.15-.91,.3-1.75,.31-2.57,.03-.92-.31-1.75-1-2.43-2-.7-1.03-1.22-2.37-1.55-3.96-.7-3.36-.46-7.45,.65-11.51,.38-1.4,.86-2.73,1.4-3.96,.07-.16,.14-.32,.22-.48,.03-.06,.06-.12,.09-.19,.03-.06,.06-.12,.09-.18,0,0,0,0,0,0,.02-.04,.04-.09,.07-.13,.02-.05,.05-.09,.07-.14,.06-.12,.12-.23,.18-.34,.02-.05,.05-.1,.07-.14,0,0,0,0,0-.01,.03-.07,.07-.13,.1-.2,0-.01,.01-.03,.02-.04,.04-.07,.07-.13,.11-.19,.04-.07,.08-.14,.12-.21t0,0c.05-.09,.11-.19,.16-.28,.05-.09,.1-.17,.16-.26,.07-.11,.13-.22,.2-.32,.04-.07,.09-.14,.13-.21,.03-.04,.06-.09,.08-.13,.08-.13,.17-.25,.25-.37,.02-.03,.04-.06,.06-.09,.12-.18,.25-.35,.38-.52,.06-.07,.11-.15,.17-.22,.03-.04,.07-.09,.1-.13,.08-.11,.17-.21,.26-.31,0,0,.01-.02,.02-.02,.06-.07,.12-.14,.18-.21,.03-.04,.06-.07,.09-.11,.05-.06,.11-.12,.16-.18,.13-.15,.27-.29,.41-.43,.11-.11,.22-.22,.33-.32,.28-.26,.55-.49,.83-.7,.02-.01,.04-.03,.06-.04,.06-.05,.13-.09,.19-.14,.04-.03,.07-.05,.11-.08,.04-.03,.07-.05,.11-.07,.04-.02,.07-.05,.11-.07,.03-.02,.05-.03,.07-.05,0,0,.02-.01,.03-.02,.01,0,.02-.01,.03-.02,.02-.01,.03-.02,.05-.03,.03-.02,.05-.03,.07-.04l.03-.02c.33-.2,.67-.35,.99-.48,.07-.03,.13-.05,.2-.07,.91-.3,1.75-.31,2.57-.03,.53,.18,1.03,.48,1.49,.9,.03-.02,.07-.05,.1-.07,.14-.1,.27-.21,.39-.33,.35-.35,.6-.76,.74-1.22,.09-.29,.13-.59,.13-.89-.61-.46-1.26-.81-1.95-1.05-1.22-.41-2.48-.46-3.76-.14-.61,.15-1.22,.38-1.82,.68,.08-.72,.33-1.42,.75-2.04,.16-.24,.35-.47,.57-.69,1.79-1.79,4.69-1.79,6.48,0,.69,.69,1.11,1.54,1.27,2.43,.13,.72,.08,1.47-.13,2.17-.21,.69-.59,1.33-1.14,1.88-.19,.19-.39,.35-.6,.5-.45,.32-.95,.55-1.47,.69-1.37,.36-2.87,.08-4.03-.85-.07,.04-.14,.08-.21,.13-.49,.31-.99,.72-1.48,1.21-.93,.93-1.79,2.08-2.56,3.44-.3,.53-.59,1.08-.85,1.66l.78,3.57c.08,.37,.27,.72,.54,.98l7.41,7.41,4.51,4.51,13.9,13.9c.78,.78,2.04,.78,2.82,0l18.38-18.38c.78-.78,.78-2.04,0-2.82Zm-15.59,5.62c-.51,.51-1.33,.51-1.84,0l-1.19-1.19c-1.22,.85-2.62,1.4-4.15,1.62-.37,.06-.79-.05-1.1-.36-.5-.5-.48-1.29,.02-1.79,.26-.26,.51-.36,.73-.39,1.01-.12,1.92-.38,2.75-.84l-3.09-3.09c-2.4,1.33-4.17,1.63-5.96-.16l-.03-.03c-1.62-1.62-1.63-3.98-.19-5.99l-1.15-1.15c-.51-.51-.51-1.33,0-1.84,.51-.51,1.33-.51,1.84,0l1.16,1.16c1.05-.78,2.16-1.25,3.37-1.49,.34-.09,.81-.03,1.18,.34,.5,.5,.48,1.29-.02,1.79-.19,.19-.39,.3-.64,.36-.81,.17-1.51,.42-2.13,.77l2.95,2.95c2.71-1.59,4.65-1.87,6.39-.13l.03,.03c1.84,1.84,1.7,4.33-.04,6.48l1.12,1.12c.51,.51,.51,1.33,0,1.84Z"/>
    </g>
  </g>
</svg>