<svg width="25" height="26" viewBox="0 0 25 26" fill="none" xmlns="http://www.w3.org/2000/svg">
<path d="M23.9353 1.96977L23.9344 1.96956L18.8568 0.797815C18.8568 0.79781 18.8568 0.797805 18.8568 0.7978C18.6356 0.746958 18.405 0.863209 18.3137 1.07172C18.3136 1.07215 18.3134 1.07257 18.3132 1.073L15.9707 6.53871C15.888 6.73177 15.945 6.95717 16.1039 7.08545L16.1076 7.08843L16.1076 7.08844L19.0665 9.51026L19.4886 9.85568L19.2568 10.3494C17.4305 14.2405 14.2412 17.4757 10.2681 19.3379L9.77455 19.5693L9.42932 19.1475L7.0077 16.1888L23.9353 1.96977ZM23.9353 1.96977C24.148 2.01856 24.3 2.208 24.3 2.43004C24.3 14.5672 14.4626 24.3858 2.34421 24.3858C2.12203 24.3858 1.93325 24.2335 1.8837 24.0201C1.88368 24.02 1.88365 24.0199 1.88362 24.0198L0.71198 18.9427C0.711975 18.9426 0.71197 18.9426 0.711965 18.9426C0.661803 18.7244 0.774658 18.4909 0.992616 18.3939C0.993376 18.3936 0.994137 18.3932 0.994899 18.3929L6.45777 16.0517C6.64792 15.9702 6.87178 16.0231 7.00749 16.1886L23.9353 1.96977Z" stroke="#7CB118" stroke-width="1.4"/>
</svg>
