<svg width="163" height="106" viewBox="0 0 163 106" fill="none" xmlns="http://www.w3.org/2000/svg">
<path d="M101.101 34.0966L94.0312 33.2894C93.1999 33.1918 92.3573 33.2838 91.5667 33.5586C90.7761 33.8334 90.058 34.2838 89.4665 34.8759L84.345 39.9974C76.4435 35.9788 70.0211 29.5563 66.0026 21.6548L71.1518 16.5055C72.3487 15.3087 72.9332 13.6386 72.7383 11.9408L71.9312 4.92661C71.7734 3.56881 71.1217 2.31645 70.1004 1.40798C69.079 0.499508 67.7592 -0.00162065 66.3922 3.93763e-06H61.577C58.4318 3.93763e-06 55.8154 2.61639 56.0102 5.76163C57.4854 29.5318 76.4959 48.5146 100.238 49.9898C103.383 50.1846 106 47.5682 106 44.423V39.6077C106.028 36.7965 103.912 34.4306 101.101 34.0966Z" fill="white"/>
<path d="M39.6543 90.6582C39.6543 89.7012 39.332 88.8874 38.6875 88.2168C38.0495 87.5397 37.2715 87.2012 36.3535 87.2012C35.429 87.2012 34.6478 87.5397 34.0098 88.2168C33.3717 88.8874 33.0527 89.7012 33.0527 90.6582C33.0527 91.5957 33.3685 92.3867 34 93.0312C34.638 93.6758 35.4225 93.998 36.3535 93.998C37.291 93.998 38.0755 93.6823 38.707 93.0508C39.3385 92.4193 39.6543 91.6217 39.6543 90.6582ZM41.4512 90.6582C41.4512 91.4525 41.2689 92.2695 40.9043 93.1094C40.5462 93.9492 39.8952 95.0592 38.9512 96.4395L35.5137 101.439L34.1465 100.502L37.7891 95.2383C37.6458 95.3424 37.4212 95.4303 37.1152 95.502C36.8158 95.5671 36.5326 95.5996 36.2656 95.5996C34.8138 95.5996 33.6126 95.1341 32.6621 94.2031C31.7181 93.2656 31.2461 92.084 31.2461 90.6582C31.2461 89.252 31.7376 88.0573 32.7207 87.0742C33.7038 86.0911 34.9147 85.5996 36.3535 85.5996C37.7923 85.5996 39 86.0879 39.9766 87.0645C40.9596 88.0345 41.4512 89.2324 41.4512 90.6582ZM52.2227 101H42.7012L47.8672 94.7793C48.8112 93.64 49.4622 92.7253 49.8203 92.0352C50.1849 91.3451 50.3672 90.668 50.3672 90.0039C50.3672 89.1966 50.0938 88.5293 49.5469 88.002C49.0065 87.4681 48.3066 87.2012 47.4473 87.2012C46.6204 87.2012 45.9401 87.5039 45.4062 88.1094C44.8724 88.7083 44.599 89.4635 44.5859 90.375H42.8477C42.8542 88.8906 43.2643 87.7253 44.0781 86.8789C44.8984 86.026 46.0345 85.5996 47.4863 85.5996C48.9121 85.5996 50.0482 86 50.8945 86.8008C51.7409 87.6016 52.1641 88.6465 52.1641 89.9355C52.1641 90.8796 51.9362 91.7943 51.4805 92.6797C51.0247 93.5651 50.0742 94.8379 48.6289 96.498L46.1094 99.3984H52.2227V101ZM62.5449 93.4414C62.5449 91.5729 62.2194 90.0658 61.5684 88.9199C60.9238 87.7741 60.0775 87.2012 59.0293 87.2012C58.0137 87.2012 57.1836 87.7904 56.5391 88.9688C55.8945 90.1406 55.5723 91.6445 55.5723 93.4805C55.5723 95.3034 55.8945 96.8008 56.5391 97.9727C57.1901 99.138 58.0267 99.7207 59.0488 99.7207C60.11 99.7207 60.9564 99.151 61.5879 98.0117C62.2259 96.8659 62.5449 95.3424 62.5449 93.4414ZM64.332 93.4609C64.332 95.8438 63.847 97.7513 62.877 99.1836C61.9069 100.609 60.6243 101.322 59.0293 101.322C57.4538 101.322 56.181 100.606 55.2109 99.1738C54.2474 97.735 53.7656 95.8307 53.7656 93.4609C53.7656 91.0846 54.2507 89.1803 55.2207 87.748C56.1908 86.3158 57.4668 85.5996 59.0488 85.5996C60.6439 85.5996 61.9232 86.3125 62.8867 87.7383C63.8503 89.1641 64.332 91.0716 64.332 93.4609ZM74.1074 93.4414C74.1074 91.5729 73.7819 90.0658 73.1309 88.9199C72.4863 87.7741 71.64 87.2012 70.5918 87.2012C69.5762 87.2012 68.7461 87.7904 68.1016 88.9688C67.457 90.1406 67.1348 91.6445 67.1348 93.4805C67.1348 95.3034 67.457 96.8008 68.1016 97.9727C68.7526 99.138 69.5892 99.7207 70.6113 99.7207C71.6725 99.7207 72.5189 99.151 73.1504 98.0117C73.7884 96.8659 74.1074 95.3424 74.1074 93.4414ZM75.8945 93.4609C75.8945 95.8438 75.4095 97.7513 74.4395 99.1836C73.4694 100.609 72.1868 101.322 70.5918 101.322C69.0163 101.322 67.7435 100.606 66.7734 99.1738C65.8099 97.735 65.3281 95.8307 65.3281 93.4609C65.3281 91.0846 65.8132 89.1803 66.7832 87.748C67.7533 86.3158 69.0293 85.5996 70.6113 85.5996C72.2064 85.5996 73.4857 86.3125 74.4492 87.7383C75.4128 89.1641 75.8945 91.0716 75.8945 93.4609ZM86.4023 96.7812C86.4023 98.168 85.9759 99.2715 85.123 100.092C84.2767 100.912 83.1146 101.322 81.6367 101.322C80.2565 101.322 79.1758 100.958 78.3945 100.229C77.6133 99.4928 77.1999 98.4642 77.1543 97.1426H78.9609C78.9805 97.9564 79.2311 98.5911 79.7129 99.0469C80.1947 99.4961 80.8424 99.7207 81.6562 99.7207C82.5938 99.7207 83.3164 99.4603 83.8242 98.9395C84.3385 98.4186 84.5957 97.6862 84.5957 96.7422C84.5957 95.8242 84.3288 95.1081 83.7949 94.5938C83.2676 94.0794 82.5156 93.8223 81.5391 93.8223H81.0605V92.2207H81.5195C82.4049 92.2207 83.082 91.9993 83.5508 91.5566C84.026 91.1074 84.2637 90.4564 84.2637 89.6035C84.2637 88.8939 84.0391 88.3177 83.5898 87.875C83.1406 87.4258 82.5514 87.2012 81.8223 87.2012C81.1191 87.2012 80.5397 87.3835 80.084 87.748C79.6348 88.1061 79.3613 88.6107 79.2637 89.2617H77.5547C77.6784 88.1029 78.1178 87.2044 78.873 86.5664C79.6283 85.9219 80.6309 85.5996 81.8809 85.5996C83.1699 85.5996 84.1888 85.9609 84.9375 86.6836C85.6862 87.4062 86.0605 88.373 86.0605 89.584C86.0605 90.4564 85.8359 91.2051 85.3867 91.8301C84.9375 92.4551 84.3353 92.8457 83.5801 93.002C84.4264 93.1517 85.1068 93.5716 85.6211 94.2617C86.1419 94.9518 86.4023 95.7917 86.4023 96.7812ZM97.418 96.7812C97.418 98.168 96.9915 99.2715 96.1387 100.092C95.2923 100.912 94.1302 101.322 92.6523 101.322C91.2721 101.322 90.1914 100.958 89.4102 100.229C88.6289 99.4928 88.2155 98.4642 88.1699 97.1426H89.9766C89.9961 97.9564 90.2467 98.5911 90.7285 99.0469C91.2103 99.4961 91.8581 99.7207 92.6719 99.7207C93.6094 99.7207 94.332 99.4603 94.8398 98.9395C95.3542 98.4186 95.6113 97.6862 95.6113 96.7422C95.6113 95.8242 95.3444 95.1081 94.8105 94.5938C94.2832 94.0794 93.5312 93.8223 92.5547 93.8223H92.0762V92.2207H92.5352C93.4206 92.2207 94.0977 91.9993 94.5664 91.5566C95.0417 91.1074 95.2793 90.4564 95.2793 89.6035C95.2793 88.8939 95.0547 88.3177 94.6055 87.875C94.1562 87.4258 93.5671 87.2012 92.8379 87.2012C92.1348 87.2012 91.5553 87.3835 91.0996 87.748C90.6504 88.1061 90.377 88.6107 90.2793 89.2617H88.5703C88.694 88.1029 89.1335 87.2044 89.8887 86.5664C90.6439 85.9219 91.6465 85.5996 92.8965 85.5996C94.1855 85.5996 95.2044 85.9609 95.9531 86.6836C96.7018 87.4062 97.0762 88.373 97.0762 89.584C97.0762 90.4564 96.8516 91.2051 96.4023 91.8301C95.9531 92.4551 95.3509 92.8457 94.5957 93.002C95.4421 93.1517 96.1224 93.5716 96.6367 94.2617C97.1576 94.9518 97.418 95.7917 97.418 96.7812ZM108.961 85.9219L100.963 101.439L99.3027 100.619L106.305 87.5234H98.4629V85.9219H108.961ZM116.5 101H114.703V87.6406H111.842L112.662 85.9219H116.5V101ZM130.064 93.4414C130.064 91.5729 129.739 90.0658 129.088 88.9199C128.443 87.7741 127.597 87.2012 126.549 87.2012C125.533 87.2012 124.703 87.7904 124.059 88.9688C123.414 90.1406 123.092 91.6445 123.092 93.4805C123.092 95.3034 123.414 96.8008 124.059 97.9727C124.71 99.138 125.546 99.7207 126.568 99.7207C127.63 99.7207 128.476 99.151 129.107 98.0117C129.745 96.8659 130.064 95.3424 130.064 93.4414ZM131.852 93.4609C131.852 95.8438 131.367 97.7513 130.396 99.1836C129.426 100.609 128.144 101.322 126.549 101.322C124.973 101.322 123.701 100.606 122.73 99.1738C121.767 97.735 121.285 95.8307 121.285 93.4609C121.285 91.0846 121.77 89.1803 122.74 87.748C123.71 86.3158 124.986 85.5996 126.568 85.5996C128.163 85.5996 129.443 86.3125 130.406 87.7383C131.37 89.1641 131.852 91.0716 131.852 93.4609Z" fill="white"/>
</svg>
