<svg width="163" height="107" viewBox="0 0 163 107" fill="none" xmlns="http://www.w3.org/2000/svg">
<path d="M34.3613 93.7615C34.3613 91.893 34.0358 90.3858 33.3848 89.24C32.7402 88.0942 31.8939 87.5212 30.8457 87.5212C29.8301 87.5212 29 88.1104 28.3555 89.2888C27.7109 90.4607 27.3887 91.9646 27.3887 93.8005C27.3887 95.6235 27.7109 97.1208 28.3555 98.2927C29.0065 99.4581 29.8431 100.041 30.8652 100.041C31.9264 100.041 32.7728 99.4711 33.4043 98.3318C34.0423 97.186 34.3613 95.6625 34.3613 93.7615ZM36.1484 93.781C36.1484 96.1638 35.6634 98.0714 34.6934 99.5037C33.7233 100.929 32.4408 101.642 30.8457 101.642C29.2702 101.642 27.9974 100.926 27.0273 99.4939C26.0638 98.0551 25.582 96.1508 25.582 93.781C25.582 91.4047 26.0671 89.5004 27.0371 88.0681C28.0072 86.6358 29.2832 85.9197 30.8652 85.9197C32.4603 85.9197 33.7396 86.6326 34.7031 88.0583C35.6667 89.4841 36.1484 91.3917 36.1484 93.781ZM46.8906 96.3982C46.8906 97.9867 46.3926 99.2595 45.3965 100.217C44.4069 101.167 43.0723 101.642 41.3926 101.642C40.4811 101.642 39.6803 101.486 38.9902 101.174C38.3001 100.855 37.6784 100.357 37.125 99.6794L38.1504 98.4978C38.6712 99.0903 39.166 99.4972 39.6348 99.7185C40.1035 99.9333 40.6699 100.041 41.334 100.041C42.4408 100.041 43.3424 99.7022 44.0391 99.0251C44.7422 98.3481 45.0938 97.4724 45.0938 96.3982C45.0938 95.3565 44.752 94.5004 44.0684 93.8298C43.3913 93.1593 42.5189 92.824 41.4512 92.824C40.8001 92.824 40.1621 92.9314 39.5371 93.1462C38.9186 93.3611 38.388 93.6606 37.9453 94.0447L39.6934 86.2419H46.2656V87.8435H40.9922L40.1328 91.5642C40.3932 91.4405 40.6699 91.3526 40.9629 91.3005C41.2559 91.2485 41.5846 91.2224 41.9492 91.2224C43.4336 91.2224 44.6283 91.7042 45.5332 92.6677C46.4382 93.6313 46.8906 94.8748 46.8906 96.3982ZM57.6719 97.1013C57.6719 98.488 57.2454 99.5916 56.3926 100.412C55.5462 101.232 54.3841 101.642 52.9062 101.642C51.526 101.642 50.4453 101.278 49.6641 100.549C48.8828 99.8129 48.4694 98.7843 48.4238 97.4626H50.2305C50.25 98.2764 50.5007 98.9112 50.9824 99.3669C51.4642 99.8162 52.112 100.041 52.9258 100.041C53.8633 100.041 54.5859 99.7804 55.0938 99.2595C55.6081 98.7387 55.8652 98.0063 55.8652 97.0623C55.8652 96.1443 55.5983 95.4281 55.0645 94.9138C54.5371 94.3995 53.7852 94.1423 52.8086 94.1423H52.3301V92.5408H52.7891C53.6745 92.5408 54.3516 92.3194 54.8203 91.8767C55.2956 91.4275 55.5332 90.7764 55.5332 89.9236C55.5332 89.2139 55.3086 88.6378 54.8594 88.1951C54.4102 87.7458 53.821 87.5212 53.0918 87.5212C52.3887 87.5212 51.8092 87.7035 51.3535 88.0681C50.9043 88.4262 50.6309 88.9307 50.5332 89.5818H48.8242C48.9479 88.4229 49.3874 87.5245 50.1426 86.8865C50.8978 86.2419 51.9004 85.9197 53.1504 85.9197C54.4395 85.9197 55.4583 86.281 56.207 87.0037C56.9557 87.7263 57.3301 88.6931 57.3301 89.9041C57.3301 90.7764 57.1055 91.5251 56.6562 92.1501C56.207 92.7751 55.6048 93.1658 54.8496 93.322C55.696 93.4718 56.3763 93.8917 56.8906 94.5818C57.4115 95.2719 57.6719 96.1117 57.6719 97.1013ZM67.5449 96.5837C67.5449 95.6462 67.2259 94.8552 66.5879 94.2107C65.9499 93.5662 65.1686 93.2439 64.2441 93.2439C63.3066 93.2439 62.5221 93.5597 61.8906 94.1912C61.2591 94.8227 60.9434 95.6202 60.9434 96.5837C60.9434 97.5408 61.2624 98.3578 61.9004 99.0349C62.5384 99.7055 63.3197 100.041 64.2441 100.041C65.1621 100.041 65.9401 99.7055 66.5781 99.0349C67.2227 98.3578 67.5449 97.5408 67.5449 96.5837ZM69.3418 96.5837C69.3418 97.99 68.8503 99.1847 67.8672 100.168C66.8906 101.151 65.6829 101.642 64.2441 101.642C62.8053 101.642 61.5944 101.154 60.6113 100.177C59.6348 99.2009 59.1465 98.003 59.1465 96.5837C59.1465 95.7699 59.3288 94.9366 59.6934 94.0837C60.0645 93.2244 60.7155 92.1306 61.6465 90.8025L64.8008 86.2419H66.7832L62.7988 92.0037C62.9486 91.8995 63.1732 91.8149 63.4727 91.7498C63.7721 91.6781 64.0553 91.6423 64.3223 91.6423C65.7741 91.6423 66.972 92.1078 67.916 93.0388C68.8665 93.9698 69.3418 95.1514 69.3418 96.5837ZM77.3008 101.32H75.5039V87.9607H72.6426L73.4629 86.2419H77.3008V101.32ZM91.8711 97.1013C91.8711 98.488 91.4447 99.5916 90.5918 100.412C89.7454 101.232 88.5833 101.642 87.1055 101.642C85.7253 101.642 84.6445 101.278 83.8633 100.549C83.082 99.8129 82.6686 98.7843 82.623 97.4626H84.4297C84.4492 98.2764 84.6999 98.9112 85.1816 99.3669C85.6634 99.8162 86.3112 100.041 87.125 100.041C88.0625 100.041 88.7852 99.7804 89.293 99.2595C89.8073 98.7387 90.0645 98.0063 90.0645 97.0623C90.0645 96.1443 89.7975 95.4281 89.2637 94.9138C88.7363 94.3995 87.9844 94.1423 87.0078 94.1423H86.5293V92.5408H86.9883C87.8737 92.5408 88.5508 92.3194 89.0195 91.8767C89.4948 91.4275 89.7324 90.7764 89.7324 89.9236C89.7324 89.2139 89.5078 88.6378 89.0586 88.1951C88.6094 87.7458 88.0202 87.5212 87.291 87.5212C86.5879 87.5212 86.0085 87.7035 85.5527 88.0681C85.1035 88.4262 84.8301 88.9307 84.7324 89.5818H83.0234C83.1471 88.4229 83.5866 87.5245 84.3418 86.8865C85.097 86.2419 86.0996 85.9197 87.3496 85.9197C88.6387 85.9197 89.6576 86.281 90.4062 87.0037C91.1549 87.7263 91.5293 88.6931 91.5293 89.9041C91.5293 90.7764 91.3047 91.5251 90.8555 92.1501C90.4062 92.7751 89.804 93.1658 89.0488 93.322C89.8952 93.4718 90.5755 93.8917 91.0898 94.5818C91.6107 95.2719 91.8711 96.1117 91.8711 97.1013ZM103.004 96.3982C103.004 97.9867 102.506 99.2595 101.51 100.217C100.52 101.167 99.1855 101.642 97.5059 101.642C96.5944 101.642 95.7936 101.486 95.1035 101.174C94.4134 100.855 93.7917 100.357 93.2383 99.6794L94.2637 98.4978C94.7845 99.0903 95.2793 99.4972 95.748 99.7185C96.2168 99.9333 96.7832 100.041 97.4473 100.041C98.554 100.041 99.4557 99.7022 100.152 99.0251C100.855 98.3481 101.207 97.4724 101.207 96.3982C101.207 95.3565 100.865 94.5004 100.182 93.8298C99.5046 93.1593 98.6322 92.824 97.5645 92.824C96.9134 92.824 96.2754 92.9314 95.6504 93.1462C95.0319 93.3611 94.5013 93.6606 94.0586 94.0447L95.8066 86.2419H102.379V87.8435H97.1055L96.2461 91.5642C96.5065 91.4405 96.7832 91.3526 97.0762 91.3005C97.3691 91.2485 97.6979 91.2224 98.0625 91.2224C99.5469 91.2224 100.742 91.7042 101.646 92.6677C102.551 93.6313 103.004 94.8748 103.004 96.3982ZM113.824 96.3982C113.824 97.9867 113.326 99.2595 112.33 100.217C111.34 101.167 110.006 101.642 108.326 101.642C107.415 101.642 106.614 101.486 105.924 101.174C105.234 100.855 104.612 100.357 104.059 99.6794L105.084 98.4978C105.605 99.0903 106.1 99.4972 106.568 99.7185C107.037 99.9333 107.604 100.041 108.268 100.041C109.374 100.041 110.276 99.7022 110.973 99.0251C111.676 98.3481 112.027 97.4724 112.027 96.3982C112.027 95.3565 111.686 94.5004 111.002 93.8298C110.325 93.1593 109.452 92.824 108.385 92.824C107.734 92.824 107.096 92.9314 106.471 93.1462C105.852 93.3611 105.322 93.6606 104.879 94.0447L106.627 86.2419H113.199V87.8435H107.926L107.066 91.5642C107.327 91.4405 107.604 91.3526 107.896 91.3005C108.189 91.2485 108.518 91.2224 108.883 91.2224C110.367 91.2224 111.562 91.7042 112.467 92.6677C113.372 93.6313 113.824 94.8748 113.824 96.3982ZM124.068 93.7615C124.068 91.893 123.743 90.3858 123.092 89.24C122.447 88.0942 121.601 87.5212 120.553 87.5212C119.537 87.5212 118.707 88.1104 118.062 89.2888C117.418 90.4607 117.096 91.9646 117.096 93.8005C117.096 95.6235 117.418 97.1208 118.062 98.2927C118.714 99.4581 119.55 100.041 120.572 100.041C121.633 100.041 122.48 99.4711 123.111 98.3318C123.749 97.186 124.068 95.6625 124.068 93.7615ZM125.855 93.781C125.855 96.1638 125.37 98.0714 124.4 99.5037C123.43 100.929 122.148 101.642 120.553 101.642C118.977 101.642 117.704 100.926 116.734 99.4939C115.771 98.0551 115.289 96.1508 115.289 93.781C115.289 91.4047 115.774 89.5004 116.744 88.0681C117.714 86.6358 118.99 85.9197 120.572 85.9197C122.167 85.9197 123.447 86.6326 124.41 88.0583C125.374 89.4841 125.855 91.3917 125.855 93.781ZM135.631 93.7615C135.631 91.893 135.305 90.3858 134.654 89.24C134.01 88.0942 133.163 87.5212 132.115 87.5212C131.1 87.5212 130.27 88.1104 129.625 89.2888C128.98 90.4607 128.658 91.9646 128.658 93.8005C128.658 95.6235 128.98 97.1208 129.625 98.2927C130.276 99.4581 131.113 100.041 132.135 100.041C133.196 100.041 134.042 99.4711 134.674 98.3318C135.312 97.186 135.631 95.6625 135.631 93.7615ZM137.418 93.781C137.418 96.1638 136.933 98.0714 135.963 99.5037C134.993 100.929 133.71 101.642 132.115 101.642C130.54 101.642 129.267 100.926 128.297 99.4939C127.333 98.0551 126.852 96.1508 126.852 93.781C126.852 91.4047 127.337 89.5004 128.307 88.0681C129.277 86.6358 130.553 85.9197 132.135 85.9197C133.73 85.9197 135.009 86.6326 135.973 88.0583C136.936 89.4841 137.418 91.3917 137.418 93.781Z" fill="white"/>
<path d="M44 4.20337V46.1524L64.9745 25.1779L44 4.20337Z" fill="white"/>
<path d="M48.1699 0L74.724 26.5541C78.0777 29.9078 83.9266 29.9078 87.2803 26.5541L113.834 0H48.1699Z" fill="white"/>
<path d="M91.4634 30.7397C88.6721 33.5339 84.9544 35.0761 80.9998 35.0761C77.0453 35.0761 73.3275 33.5339 70.5363 30.7397L69.1599 29.3633L48.2031 50.32H113.797L92.8398 29.3633L91.4634 30.7397Z" fill="white"/>
<path d="M97.0254 25.1779L118 46.1524V4.20337L97.0254 25.1779Z" fill="white"/>
</svg>
