<svg width="163" height="106" viewBox="0 0 163 106" fill="none" xmlns="http://www.w3.org/2000/svg">
<path d="M16.1094 100.658C15.6927 100.886 15.2598 101.052 14.8105 101.156C14.3678 101.267 13.873 101.322 13.3262 101.322C11.8288 101.322 10.6146 100.863 9.68359 99.9453C8.7526 99.0208 8.28711 97.8197 8.28711 96.3418C8.28711 94.8444 8.76237 93.6335 9.71289 92.709C10.6634 91.7845 11.9167 91.3223 13.4727 91.3223C13.9544 91.3223 14.3939 91.3743 14.791 91.4785C15.1947 91.5762 15.6016 91.7357 16.0117 91.957V93.8809C15.6471 93.6139 15.25 93.4089 14.8203 93.2656C14.3971 93.1159 13.974 93.041 13.5508 93.041C12.4896 93.041 11.6465 93.3438 11.0215 93.9492C10.403 94.5482 10.0938 95.3587 10.0938 96.3809C10.0938 97.3574 10.4062 98.1387 11.0312 98.7246C11.6628 99.3105 12.5026 99.6035 13.5508 99.6035C14.0326 99.6035 14.4915 99.5286 14.9277 99.3789C15.3704 99.2292 15.7643 99.0176 16.1094 98.7441V100.658ZM24.6348 96.2246C24.6348 95.2285 24.3809 94.4505 23.873 93.8906C23.3652 93.3242 22.6719 93.041 21.793 93.041C20.9206 93.041 20.224 93.334 19.7031 93.9199C19.1823 94.4993 18.9219 95.2871 18.9219 96.2832C18.9219 97.2858 19.179 98.0898 19.6934 98.6953C20.2077 99.3008 20.888 99.6035 21.7344 99.6035C22.5938 99.6035 23.2904 99.291 23.8242 98.666C24.3646 98.041 24.6348 97.2272 24.6348 96.2246ZM26.4414 101H24.6348V99.5352C24.3288 100.128 23.9121 100.574 23.3848 100.873C22.8574 101.173 22.2227 101.322 21.4805 101.322C20.1849 101.322 19.1335 100.854 18.3262 99.916C17.5189 98.9785 17.1152 97.7611 17.1152 96.2637C17.1152 94.7923 17.5189 93.6009 18.3262 92.6895C19.14 91.778 20.2044 91.3223 21.5195 91.3223C22.2161 91.3223 22.8249 91.4622 23.3457 91.7422C23.8665 92.0156 24.2962 92.429 24.6348 92.9824V91.6445H26.4414V101ZM34.6055 91.498L34.2344 93.3047C34.1042 93.2201 33.9642 93.1582 33.8145 93.1191C33.6712 93.0801 33.5215 93.0605 33.3652 93.0605C32.571 93.0605 31.9688 93.3893 31.5586 94.0469C31.1549 94.6979 30.9531 95.668 30.9531 96.957V101H29.1465V91.6445H30.9531V93.3242C31.168 92.6341 31.5 92.1296 31.9492 91.8105C32.4049 91.485 33.0039 91.3223 33.7461 91.3223C33.9154 91.3223 34.0749 91.3385 34.2246 91.3711C34.3809 91.4036 34.5078 91.446 34.6055 91.498ZM41.7148 95.4238C41.6367 94.6491 41.373 94.0599 40.9238 93.6562C40.4746 93.2461 39.8659 93.041 39.0977 93.041C38.362 93.041 37.7533 93.2526 37.2715 93.6758C36.7962 94.0924 36.5098 94.6751 36.4121 95.4238H41.7148ZM43.4922 96.6641H36.373C36.4447 97.6211 36.7148 98.3503 37.1836 98.8516C37.6589 99.3529 38.3164 99.6035 39.1562 99.6035C39.7943 99.6035 40.3216 99.4798 40.7383 99.2324C41.1549 98.985 41.4935 98.6009 41.7539 98.0801L43.2578 98.8809C42.8281 99.7012 42.2747 100.313 41.5977 100.717C40.9206 101.12 40.1003 101.322 39.1367 101.322C37.737 101.322 36.627 100.863 35.8066 99.9453C34.9863 99.0273 34.5762 97.8001 34.5762 96.2637C34.5762 94.8379 35.0059 93.6595 35.8652 92.7285C36.7311 91.791 37.8086 91.3223 39.0977 91.3223C40.4128 91.3223 41.474 91.752 42.2812 92.6113C43.0885 93.4642 43.4922 94.5938 43.4922 96V96.6641ZM53.9219 92.2793C53.8242 91.7259 53.6257 91.3092 53.3262 91.0293C53.0332 90.7428 52.6458 90.5996 52.1641 90.5996C51.3828 90.5996 50.7285 90.9772 50.2012 91.7324C49.6803 92.4811 49.4199 93.4316 49.4199 94.584C49.4199 95.196 49.5534 95.6517 49.8203 95.9512C50.0872 96.2507 50.4941 96.4004 51.041 96.4004C51.6139 96.4004 52.1348 96.1725 52.6035 95.7168C53.0788 95.2546 53.3978 94.6556 53.5605 93.9199L53.9219 92.2793ZM59.498 92.0645C59.498 93.8092 59.127 95.1797 58.3848 96.1758C57.6426 97.1654 56.5879 97.6602 55.2207 97.6602C54.6348 97.6602 54.179 97.5267 53.8535 97.2598C53.528 96.9928 53.3652 96.6185 53.3652 96.1367C53.0788 96.625 52.7109 96.9993 52.2617 97.2598C51.8125 97.5137 51.3112 97.6406 50.7578 97.6406C49.8464 97.6406 49.1497 97.3737 48.668 96.8398C48.1862 96.306 47.9453 95.5378 47.9453 94.5352C47.9453 93.0898 48.349 91.8659 49.1562 90.8633C49.9701 89.8607 50.9531 89.3594 52.1055 89.3594C52.6003 89.3594 53.0332 89.4766 53.4043 89.7109C53.7754 89.9388 54.0553 90.2676 54.2441 90.6973L54.7227 89.7012H55.9434L54.7031 95.0039C54.6706 95.1406 54.6445 95.2676 54.625 95.3848C54.612 95.502 54.6055 95.6061 54.6055 95.6973C54.6055 95.9772 54.6543 96.1693 54.752 96.2734C54.8561 96.3711 55.0514 96.4199 55.3379 96.4199C56.2103 96.4199 56.9036 96.0391 57.418 95.2773C57.9388 94.5091 58.1992 93.4512 58.1992 92.1035C58.1992 90.5671 57.6686 89.3008 56.6074 88.3047C55.5462 87.3021 54.1497 86.8008 52.418 86.8008C50.276 86.8008 48.6029 87.4421 47.3984 88.7246C46.2005 90.0007 45.6016 91.752 45.6016 93.9785C45.6016 95.9837 46.1354 97.5104 47.2031 98.5586C48.2773 99.6003 49.8366 100.121 51.8809 100.121C52.903 100.121 53.9609 99.9583 55.0547 99.6328C56.1549 99.3073 57.0632 98.8776 57.7793 98.3438L58.4238 99.3203C57.6491 99.9453 56.6725 100.437 55.4941 100.795C54.3158 101.146 53.1178 101.322 51.9004 101.322C49.4915 101.322 47.623 100.691 46.2949 99.4277C44.9668 98.1582 44.3027 96.3483 44.3027 93.998C44.3027 91.4395 45.0286 89.4017 46.4805 87.8848C47.9388 86.3613 49.9342 85.5996 52.4668 85.5996C54.5306 85.5996 56.2168 86.2116 57.5254 87.4355C58.8405 88.653 59.498 90.196 59.498 92.0645ZM67.916 96.2246C67.916 95.2285 67.6621 94.4505 67.1543 93.8906C66.6465 93.3242 65.9531 93.041 65.0742 93.041C64.2018 93.041 63.5052 93.334 62.9844 93.9199C62.4635 94.4993 62.2031 95.2871 62.2031 96.2832C62.2031 97.2858 62.4603 98.0898 62.9746 98.6953C63.4889 99.3008 64.1693 99.6035 65.0156 99.6035C65.875 99.6035 66.5716 99.291 67.1055 98.666C67.6458 98.041 67.916 97.2272 67.916 96.2246ZM69.7227 101H67.916V99.5352C67.61 100.128 67.1934 100.574 66.666 100.873C66.1387 101.173 65.5039 101.322 64.7617 101.322C63.4661 101.322 62.4147 100.854 61.6074 99.916C60.8001 98.9785 60.3965 97.7611 60.3965 96.2637C60.3965 94.7923 60.8001 93.6009 61.6074 92.6895C62.4212 91.778 63.4857 91.3223 64.8008 91.3223C65.4974 91.3223 66.1061 91.4622 66.627 91.7422C67.1478 92.0156 67.5775 92.429 67.916 92.9824V91.6445H69.7227V101ZM79.7617 91.6445L75.2207 101.439L70.6602 91.6445H72.7012L75.2207 97.582L77.7012 91.6445H79.7617ZM87.7598 96.2832C87.7598 95.3392 87.457 94.5645 86.8516 93.959C86.2526 93.347 85.5007 93.041 84.5957 93.041C83.6777 93.041 82.9193 93.3438 82.3203 93.9492C81.7279 94.5547 81.4316 95.3327 81.4316 96.2832C81.4316 97.2467 81.7311 98.041 82.3301 98.666C82.9355 99.291 83.6908 99.6035 84.5957 99.6035C85.5137 99.6035 86.2689 99.291 86.8613 98.666C87.4603 98.041 87.7598 97.2467 87.7598 96.2832ZM89.5566 96.2832C89.5566 97.6895 89.0749 98.8809 88.1113 99.8574C87.1543 100.834 85.9759 101.322 84.5762 101.322C83.1829 101.322 82.0111 100.837 81.0605 99.8672C80.11 98.8906 79.6348 97.696 79.6348 96.2832C79.6348 94.8704 80.1068 93.6921 81.0508 92.748C81.9948 91.7975 83.1699 91.3223 84.5762 91.3223C85.9889 91.3223 87.1706 91.8008 88.1211 92.7578C89.0781 93.7083 89.5566 94.8835 89.5566 96.2832ZM99.0586 101H96.9004L93.043 96.0586V101H91.2363V84.4961H93.043V95.8047L96.6172 91.6445H98.7363L94.918 95.8438L99.0586 101ZM106.51 96.2246C106.51 95.2285 106.256 94.4505 105.748 93.8906C105.24 93.3242 104.547 93.041 103.668 93.041C102.796 93.041 102.099 93.334 101.578 93.9199C101.057 94.4993 100.797 95.2871 100.797 96.2832C100.797 97.2858 101.054 98.0898 101.568 98.6953C102.083 99.3008 102.763 99.6035 103.609 99.6035C104.469 99.6035 105.165 99.291 105.699 98.666C106.24 98.041 106.51 97.2272 106.51 96.2246ZM108.316 101H106.51V99.5352C106.204 100.128 105.787 100.574 105.26 100.873C104.732 101.173 104.098 101.322 103.355 101.322C102.06 101.322 101.008 100.854 100.201 99.916C99.3939 98.9785 98.9902 97.7611 98.9902 96.2637C98.9902 94.7923 99.3939 93.6009 100.201 92.6895C101.015 91.778 102.079 91.3223 103.395 91.3223C104.091 91.3223 104.7 91.4622 105.221 91.7422C105.742 92.0156 106.171 92.429 106.51 92.9824V91.6445H108.316V101ZM117.564 96.2246C117.564 95.2285 117.311 94.4505 116.803 93.8906C116.295 93.3242 115.602 93.041 114.723 93.041C113.85 93.041 113.154 93.334 112.633 93.9199C112.112 94.4993 111.852 95.2871 111.852 96.2832C111.852 97.2858 112.109 98.0898 112.623 98.6953C113.137 99.3008 113.818 99.6035 114.664 99.6035C115.523 99.6035 116.22 99.291 116.754 98.666C117.294 98.041 117.564 97.2272 117.564 96.2246ZM119.371 101H117.564V99.5352C117.258 100.128 116.842 100.574 116.314 100.873C115.787 101.173 115.152 101.322 114.41 101.322C113.115 101.322 112.063 100.854 111.256 99.916C110.449 98.9785 110.045 97.7611 110.045 96.2637C110.045 94.7923 110.449 93.6009 111.256 92.6895C112.07 91.778 113.134 91.3223 114.449 91.3223C115.146 91.3223 115.755 91.4622 116.275 91.7422C116.796 92.0156 117.226 92.429 117.564 92.9824V84.4961H119.371V101ZM129.146 96.2832C129.146 95.3392 128.844 94.5645 128.238 93.959C127.639 93.347 126.887 93.041 125.982 93.041C125.064 93.041 124.306 93.3438 123.707 93.9492C123.115 94.5547 122.818 95.3327 122.818 96.2832C122.818 97.2467 123.118 98.041 123.717 98.666C124.322 99.291 125.077 99.6035 125.982 99.6035C126.9 99.6035 127.656 99.291 128.248 98.666C128.847 98.041 129.146 97.2467 129.146 96.2832ZM130.943 96.2832C130.943 97.6895 130.462 98.8809 129.498 99.8574C128.541 100.834 127.363 101.322 125.963 101.322C124.57 101.322 123.398 100.837 122.447 99.8672C121.497 98.8906 121.021 97.696 121.021 96.2832C121.021 94.8704 121.493 93.6921 122.438 92.748C123.382 91.7975 124.557 91.3223 125.963 91.3223C127.376 91.3223 128.557 91.8008 129.508 92.7578C130.465 93.7083 130.943 94.8835 130.943 96.2832ZM134.859 100.082C134.859 100.427 134.739 100.72 134.498 100.961C134.257 101.202 133.964 101.322 133.619 101.322C133.274 101.322 132.981 101.202 132.74 100.961C132.499 100.72 132.379 100.427 132.379 100.082C132.379 99.737 132.499 99.444 132.74 99.2031C132.981 98.9622 133.274 98.8418 133.619 98.8418C133.964 98.8418 134.257 98.9622 134.498 99.2031C134.739 99.444 134.859 99.737 134.859 100.082ZM143.678 98.4609C143.678 99.3398 143.359 100.036 142.721 100.551C142.089 101.065 141.223 101.322 140.123 101.322C139.283 101.322 138.574 101.156 137.994 100.824C137.421 100.486 137.005 99.9974 136.744 99.3594L138.258 98.4023C138.427 98.8385 138.671 99.1673 138.99 99.3887C139.316 99.61 139.719 99.7207 140.201 99.7207C140.722 99.7207 141.132 99.6198 141.432 99.418C141.731 99.2096 141.881 98.9232 141.881 98.5586C141.881 98.1549 141.734 97.8424 141.441 97.6211C141.148 97.3997 140.595 97.1393 139.781 96.8398C138.915 96.5273 138.271 96.14 137.848 95.6777C137.431 95.209 137.223 94.6491 137.223 93.998C137.223 93.1647 137.503 92.5104 138.062 92.0352C138.622 91.5599 139.4 91.3223 140.396 91.3223C141.119 91.3223 141.721 91.472 142.203 91.7715C142.691 92.0645 143.076 92.5202 143.355 93.1387L141.9 94.0371C141.731 93.6465 141.52 93.3633 141.266 93.1875C141.018 93.0117 140.709 92.9238 140.338 92.9238C139.902 92.9238 139.566 93.0117 139.332 93.1875C139.098 93.3633 138.98 93.6139 138.98 93.9395C138.98 94.291 139.107 94.5807 139.361 94.8086C139.622 95.0299 140.107 95.2611 140.816 95.502C141.826 95.8275 142.555 96.2246 143.004 96.6934C143.453 97.1556 143.678 97.7448 143.678 98.4609ZM152.096 96.2246C152.096 95.2285 151.842 94.4505 151.334 93.8906C150.826 93.3242 150.133 93.041 149.254 93.041C148.382 93.041 147.685 93.334 147.164 93.9199C146.643 94.4993 146.383 95.2871 146.383 96.2832C146.383 97.2858 146.64 98.0898 147.154 98.6953C147.669 99.3008 148.349 99.6035 149.195 99.6035C150.055 99.6035 150.751 99.291 151.285 98.666C151.826 98.041 152.096 97.2272 152.096 96.2246ZM153.902 101H152.096V99.5352C151.79 100.128 151.373 100.574 150.846 100.873C150.318 101.173 149.684 101.322 148.941 101.322C147.646 101.322 146.594 100.854 145.787 99.916C144.98 98.9785 144.576 97.7611 144.576 96.2637C144.576 94.7923 144.98 93.6009 145.787 92.6895C146.601 91.778 147.665 91.3223 148.98 91.3223C149.677 91.3223 150.286 91.4622 150.807 91.7422C151.327 92.0156 151.757 92.429 152.096 92.9824V91.6445H153.902V101Z" fill="white"/>
<path d="M81.0063 0H80.9938C67.2094 0 56 11.2125 56 25C55.9915 30.2657 57.6583 35.3975 60.7594 39.6531L57.6438 48.9406L67.2532 45.8688C71.3293 48.573 76.1146 50.0105 81.0063 50C94.7907 50 106 38.7844 106 25C106 11.2156 94.7907 0 81.0063 0ZM95.5532 35.3031C94.95 37.0062 92.5563 38.4188 90.6469 38.8312C89.3407 39.1094 87.6344 39.3313 81.8907 36.95C74.5438 33.9062 69.8125 26.4406 69.4438 25.9562C69.0907 25.4719 66.475 22.0031 66.475 18.4156C66.475 14.8281 68.2969 13.0813 69.0313 12.3313C69.6344 11.7156 70.6313 11.4344 71.5875 11.4344C71.8969 11.4344 72.175 11.45 72.425 11.4625C73.1594 11.4937 73.5282 11.5375 74.0125 12.6969C74.6157 14.15 76.0844 17.7375 76.2594 18.1063C76.4375 18.475 76.6157 18.975 76.3657 19.4594C76.1313 19.9594 75.925 20.1812 75.5563 20.6062C75.1875 21.0312 74.8375 21.3563 74.4688 21.8125C74.1313 22.2094 73.75 22.6344 74.175 23.3687C74.6 24.0875 76.0688 26.4844 78.2313 28.4094C81.0219 30.8937 83.2844 31.6875 84.0938 32.025C84.6969 32.275 85.4157 32.2156 85.8563 31.7469C86.4157 31.1438 87.1063 30.1438 87.8094 29.1594C88.3094 28.4531 88.9407 28.3656 89.6032 28.6156C90.2782 28.85 93.85 30.6156 94.5844 30.9812C95.3188 31.35 95.8032 31.525 95.9813 31.8344C96.1563 32.1437 96.1563 33.5969 95.5532 35.3031Z" fill="white"/>
</svg>
