<svg width="78" height="78" viewBox="0 0 78 78" fill="none" xmlns="http://www.w3.org/2000/svg">
    <g filter="url(#filter0_d_29243_1170)">
        <rect x="24" y="16" width="30" height="30" rx="15" fill="#7CB118" />
        <path d="M35.5 25C33.5673 25 32 26.4911 32 28.3308C32 29.8159 32.6125 33.3405 38.6416 36.9034C38.7496 36.9666 38.8736 37 39 37C39.1264 37 39.2504 36.9666 39.3584 36.9034C45.3875 33.3405 46 29.8159 46 28.3308C46 26.4911 44.4327 25 42.5 25C40.5673 25 39 27.0187 39 27.0187C39 27.0187 37.4327 25 35.5 25Z" stroke="white" stroke-width="1.5" stroke-linecap="round" stroke-linejoin="round" />
    </g>
    <defs>
        <filter id="filter0_d_29243_1170" x="0" y="0" width="78" height="78" filterUnits="userSpaceOnUse" color-interpolation-filters="sRGB">
            <feFlood flood-opacity="0" result="BackgroundImageFix" />
            <feColorMatrix in="SourceAlpha" type="matrix" values="0 0 0 0 0 0 0 0 0 0 0 0 0 0 0 0 0 0 127 0" result="hardAlpha" />
            <feOffset dy="8" />
            <feGaussianBlur stdDeviation="12" />
            <feComposite in2="hardAlpha" operator="out" />
            <feColorMatrix type="matrix" values="0 0 0 0 0 0 0 0 0 0 0 0 0 0 0 0 0 0 0.16 0" />
            <feBlend mode="normal" in2="BackgroundImageFix" result="effect1_dropShadow_29243_1170" />
            <feBlend mode="normal" in="SourceGraphic" in2="effect1_dropShadow_29243_1170" result="shape" />
        </filter>
    </defs>
</svg>