<svg width="52" height="53" viewBox="0 0 52 53" fill="none" xmlns="http://www.w3.org/2000/svg">
<path d="M26.3556 25.0182C24.6699 24.6136 24.4766 24.4529 24.4766 23.4531C24.4766 22.1275 26.424 21.473 27.2184 22.5397C27.7228 23.2121 28.6794 23.349 29.3519 22.8431C30.0243 22.3388 30.1597 21.3837 29.6553 20.7097C29.1136 19.9876 28.3584 19.4775 27.5234 19.1785V17.3594C27.5234 16.5173 26.8421 15.8359 26 15.8359C25.1579 15.8359 24.4766 16.5173 24.4766 17.3594V19.1634C22.7071 19.7943 21.4297 21.4696 21.4297 23.4531C21.4297 26.9686 24.0675 27.6024 25.6444 27.9818C27.3301 28.3864 27.5234 28.5471 27.5234 29.5469C27.5234 30.3874 26.8405 31.0703 26 31.0703C25.5165 31.0703 25.0716 30.8486 24.7816 30.4603C24.2772 29.7879 23.325 29.6554 22.6481 30.1569C21.9757 30.6612 21.8403 31.6163 22.3447 32.2903C22.8864 33.0124 23.6416 33.5225 24.4766 33.8215V35.6406C24.4766 36.4827 25.1579 37.1641 26 37.1641C26.8421 37.1641 27.5234 36.4827 27.5234 35.6406V33.8366C29.2929 33.2057 30.5703 31.5304 30.5703 29.5469C30.5703 26.0314 27.9325 25.3976 26.3556 25.0182Z" fill="#7CB118"/>
<path d="M52 26.6016C52 13.6241 42.3194 2.58213 29.4817 0.91732C28.6962 0.807227 27.9954 1.30712 27.808 2.05838L26.3099 8.05249C26.0835 8.95193 26.7122 9.8538 27.6518 9.93891C36.3223 10.7096 42.8594 17.8731 42.8594 26.6016C42.8594 32.2207 40.0356 37.4442 35.4073 40.5327L33.4138 37.8756C32.6526 36.8564 31.0273 37.1699 30.718 38.4201L27.6711 50.6076C27.43 51.5657 28.1567 52.5 29.1484 52.5H41.3359C42.5927 52.5 43.3049 51.0617 42.5544 50.0631L40.9074 47.8657C47.8849 43.0187 52 35.1873 52 26.6016ZM24.3482 43.0611C15.6777 42.2904 9.14062 35.1269 9.14062 26.3984C9.14062 20.7793 11.9644 15.5558 16.5927 12.4673L18.5862 15.1244C19.3407 16.1316 20.9703 15.84 21.282 14.5799L24.3289 2.39241C24.57 1.43427 23.8433 0.5 22.8516 0.5H10.6641C9.40733 0.5 8.69507 1.93833 9.44562 2.93689L11.0926 5.1343C4.11511 9.98127 0 17.8127 0 26.3984C0 39.3759 9.68063 50.4179 22.5183 52.0827C23.2766 52.1838 24.0031 51.6992 24.192 50.9416L25.6901 44.9475C25.9165 44.0481 25.2878 43.1462 24.3482 43.0611Z" fill="url(#paint0_linear_2_67)"/>
<defs>
<linearGradient id="paint0_linear_2_67" x1="26" y1="52.5" x2="26" y2="0.5" gradientUnits="userSpaceOnUse">
<stop stop-color="#7CB118"/>
<stop offset="1" stop-color="#D7FF96"/>
</linearGradient>
</defs>
</svg>
