<svg width="52" height="53" viewBox="0 0 52 53" fill="none" xmlns="http://www.w3.org/2000/svg">
<g clip-path="url(#clip0_2_57)">
<path d="M51.1689 20.5524L50.068 9.54164C50.0329 9.19175 49.878 8.86462 49.6293 8.616L43.8841 2.87081C43.6355 2.62208 43.3085 2.4671 42.9585 2.43216L31.9476 1.33112C29.3609 1.07204 26.8228 1.97838 24.9843 3.81676L2.23102 26.5699C0.792289 28.0085 0 29.9215 0 31.9561C0 33.9907 0.792289 35.9036 2.23102 37.3422L15.1578 50.269C16.5965 51.7077 18.5094 52.5 20.544 52.5C22.5786 52.5 24.4915 51.7077 25.9301 50.269L48.6834 27.5159C50.5218 25.6774 51.4277 23.1393 51.1689 20.5524ZM41.3705 16.8748C39.784 18.4613 37.2117 18.4613 35.6252 16.8748C34.0387 15.2882 34.0387 12.716 35.6252 11.1295C37.2117 9.54296 39.784 9.54296 41.3705 11.1295C42.957 12.716 42.957 15.2882 41.3705 16.8748Z" fill="url(#paint0_linear_2_57)"/>
<path d="M31.547 22.9375L32.3086 22.176C32.9035 21.5811 32.9035 20.6165 32.3086 20.0216C31.7136 19.4266 30.7491 19.4266 30.1541 20.0216L29.2676 20.9081C29.1285 20.8239 28.9861 20.7409 28.8367 20.6607C27.0097 19.6796 24.7607 19.8308 22.9673 21.0554C21.3272 22.1753 20.439 23.9533 20.6496 25.6956C20.7554 26.5713 21.0071 27.5284 21.4574 28.7183L15.9863 34.1893C15.385 33.4556 15.1159 32.8104 14.856 31.5671C14.6838 30.7435 13.8765 30.2158 13.053 30.3877C12.2294 30.5598 11.7013 31.367 11.8736 32.1906C12.2863 34.165 12.862 35.2444 13.8249 36.3508L12.9183 37.2573C12.3234 37.8523 12.3234 38.8168 12.9183 39.4118C13.5133 40.0067 14.4778 40.0067 15.0728 39.4118L16.0751 38.4095C17.0582 39.0325 18.1668 39.3826 19.3445 39.4324C19.4396 39.4365 19.5346 39.4384 19.6296 39.4384C21.0504 39.4384 22.4564 38.9907 23.6176 38.1638C24.7668 37.3453 25.606 36.189 25.9805 34.9076C26.3986 33.4769 26.2454 31.937 25.5372 30.4547C25.3769 30.1192 25.2152 29.7748 25.0572 29.4272L29.3474 25.137C29.7554 25.8511 29.7584 26.4195 29.7579 26.4597C29.7051 27.2956 30.3374 28.0181 31.174 28.0756C32.0133 28.1331 32.7406 27.4994 32.7982 26.66C32.8585 25.7844 32.59 24.3364 31.547 22.9375ZM22.788 31.7681C23.8616 34.0155 22.3416 35.332 21.8503 35.682C20.9392 36.3309 19.5964 36.639 18.334 36.1506L22.7649 31.7197C22.7728 31.7359 22.7802 31.7517 22.788 31.7681ZM23.6745 25.33C23.6021 24.7306 23.999 24.0404 24.6856 23.5716C25.263 23.1773 26.137 22.9016 26.9985 23.1773L23.8713 26.3045C23.78 25.9619 23.7113 25.6341 23.6745 25.33ZM38.8569 13.6432C38.2619 13.0482 38.2619 12.0837 38.8569 11.4887L49.3993 0.946215C49.9942 0.351262 50.9588 0.351262 51.5537 0.946215C52.1487 1.54117 52.1487 2.50571 51.5537 3.10066L41.0114 13.6432C40.4165 14.238 39.4519 14.238 38.8569 13.6432Z" fill="white" fill-opacity="0.92"/>
</g>
<defs>
<linearGradient id="paint0_linear_2_57" x1="8.69446" y1="43.8056" x2="46.7566" y2="5.7434" gradientUnits="userSpaceOnUse">
<stop stop-color="#7CB118"/>
<stop offset="1" stop-color="#D7FF96"/>
</linearGradient>
<clipPath id="clip0_2_57">
<rect width="52" height="52" fill="white" transform="translate(0 0.5)"/>
</clipPath>
</defs>
</svg>
