<?xml version="1.0" encoding="UTF-8"?>
<svg id="Layer_2" data-name="Layer 2" xmlns="http://www.w3.org/2000/svg" viewBox="0 0 61.28 59.15">
  <defs>
    <style>
      .cls-1 {
        fill: #fff;
      }
    </style>
  </defs>
  <g id="Layer_1-2" data-name="Layer 1">
    <g>
      <path class="cls-1" d="M31.71,10.04c1.01,0,1.83,.81,1.83,1.83v1.15c1.2,.2,2.37,.58,3.43,1.15,1.89,1.03,3.5,2.59,4.39,4.57,.29,.65,.58,1.47,.6,2.26,.03,1.58-1.29,2.86-2.86,2.86-1.17,0-2.06-.49-2.45-1.34-.53-1.1-.53-2.35-1.25-3.36-.61-.86-1.53-1.51-2.57-1.76-1.74-.4-3.56,.38-4.62,1.77-1.13,1.47-1.16,3.47-.18,5.06,1.4,2.27,3.39,2.33,5.66,3.13,1.14,.39,2.33,.67,3.45,1.11,1.65,.65,3.23,1.81,4.27,3.38,.85,1.27,1.27,2.91,1.27,4.91,0,2.61-.82,4.75-2.48,6.41-1.77,1.77-4.16,2.72-6.66,3.01v1.09c0,1.02-.82,1.83-1.83,1.83s-1.83-.81-1.83-1.83v-1.13c-1.38-.18-2.72-.54-3.93-1.06-1.89-.81-3.64-2.64-4.61-4.64-.31-.65-.59-1.47-.6-2.26-.03-1.58,1.28-2.86,2.86-2.86,1.17,0,2.06,.5,2.45,1.34,.85,1.82,1.35,4.04,4.06,4.91,1.59,.51,3.94,.64,5.87-1.41,.53-.49,1.07-1.56,1.07-2.81s-.35-2.09-1.01-2.71c-.66-.61-1.65-1.27-3.04-1.67-3.64-1.06-7.86-2.31-10.11-5.62-.86-1.27-1.27-2.91-1.27-4.91,0-2.61,.83-4.74,2.49-6.41,1.61-1.61,3.52-2.68,5.76-3.01v-1.14c0-1.02,.82-1.83,1.83-1.83h0Z"/>
      <path class="cls-1" d="M31.43,59.14c13.16,.12,25.28-8.64,28.84-21.92,4.22-15.74-5.17-32-20.91-36.22C23.63-3.21,7.37,6.18,3.15,21.92c-.42,1.56,.5,3.17,2.06,3.6,1.56,.42,3.17-.5,3.6-2.06,0,0,0-.01,0-.02C12.21,10.76,25.17,3.27,37.85,6.67c12.68,3.4,20.16,16.36,16.76,29.04-3.4,12.68-16.35,20.16-29.03,16.76-4.02-1.08-7.69-3.19-10.63-6.14-1.13-1.16-2.98-1.19-4.14-.06-1.16,1.13-1.19,2.98-.06,4.14,.02,.02,.04,.04,.07,.07,3.67,3.67,8.24,6.31,13.26,7.65,2.46,.66,4.93,.99,7.37,1.01h0Z"/>
      <path class="cls-1" d="M.7,21.12c-.25,0-.49,.14-.61,.35-.12,.21-.12,.49,0,.7l5.92,12.38c.12,.21,.36,.35,.61,.35s.49-.14,.61-.35l5.92-12.38c.12-.21,.12-.49,0-.7-.12-.21-.36-.35-.61-.35H.7Z"/>
    </g>
  </g>
</svg>