<svg width="25" height="25" viewBox="0 0 25 25" fill="none" xmlns="http://www.w3.org/2000/svg">
<path d="M0.0689259 11.3364L11.6587 24.6172C11.7635 24.7373 11.893 24.8337 12.0385 24.8998C12.184 24.9658 12.3421 25 12.5021 25C12.662 25 12.8201 24.9658 12.9656 24.8998C13.1111 24.8337 13.2406 24.7373 13.3454 24.6172L24.9317 11.3364C24.9667 11.2964 24.9894 11.2472 24.9971 11.1947C25.0048 11.1422 24.9971 11.0886 24.9751 11.0403C24.953 10.992 24.9174 10.951 24.8726 10.9223C24.8277 10.8935 24.7755 10.8782 24.7222 10.8781H21.8937C21.7331 10.8781 21.5794 10.9475 21.4712 11.069L13.8273 19.8291L13.8273 0.277767C13.8273 0.124996 13.7015 0 13.5479 0H11.4527C11.2991 0 11.1734 0.124996 11.1734 0.277767L11.1734 19.8291L3.52946 11.069C3.4247 10.9475 3.27106 10.8781 3.10693 10.8781H0.278444C0.0409908 10.8781 -0.088213 11.1558 0.0689259 11.3364Z" fill="#FF0303"/>
</svg>
