<svg width="170" height="55" viewBox="0 0 170 55" fill="none" xmlns="http://www.w3.org/2000/svg">
<rect width="170" height="55" rx="10" fill="#848484"/>
<path d="M66.5 15H36.5C35.837 15 35.2011 15.2634 34.7322 15.7322C34.2634 16.2011 34 16.837 34 17.5V37.5C34 38.163 34.2634 38.7989 34.7322 39.2678C35.2011 39.7366 35.837 40 36.5 40H66.5C67.163 40 67.7989 39.7366 68.2678 39.2678C68.7366 38.7989 69 38.163 69 37.5V17.5C69 16.837 68.7366 16.2011 68.2678 15.7322C67.7989 15.2634 67.163 15 66.5 15ZM63.75 17.5L51.5 25.975L39.25 17.5H63.75ZM36.5 37.5V18.6375L50.7875 28.525C50.9967 28.6702 51.2453 28.7479 51.5 28.7479C51.7547 28.7479 52.0033 28.6702 52.2125 28.525L66.5 18.6375V37.5H36.5Z" fill="white"/>
<path d="M91.248 36H82.5361V19.4141H91.248V21.3477H84.6094V26.1924H91.248V28.126H84.6094V34.0664H91.248V36ZM107.984 36H106.008V29.8877C106.008 28.9352 105.854 28.237 105.546 27.793C105.245 27.3418 104.765 27.1162 104.106 27.1162C103.34 27.1162 102.785 27.4134 102.441 28.0078C102.105 28.6022 101.937 29.5726 101.937 30.9189V36H99.9492V29.8877C99.9492 28.8923 99.8132 28.1833 99.541 27.7607C99.2689 27.3311 98.8034 27.1162 98.1445 27.1162C97.3783 27.1162 96.8089 27.4385 96.4365 28.083C96.0641 28.7204 95.8779 29.7015 95.8779 31.0264V36H93.9014V25.709H95.8779V27.0195C96.1429 26.4609 96.5189 26.0456 97.0059 25.7734C97.4928 25.4941 98.1016 25.3545 98.832 25.3545C99.5124 25.3545 100.096 25.512 100.583 25.8271C101.07 26.1423 101.417 26.5934 101.625 27.1807C101.911 26.5934 102.327 26.1423 102.871 25.8271C103.415 25.512 104.056 25.3545 104.794 25.3545C105.811 25.3545 106.595 25.6911 107.146 26.3643C107.705 27.0303 107.984 27.9899 107.984 29.2432V36ZM118.093 30.7471C118.093 29.6514 117.813 28.7956 117.255 28.1797C116.696 27.5566 115.934 27.2451 114.967 27.2451C114.007 27.2451 113.241 27.5674 112.668 28.2119C112.095 28.8493 111.809 29.7158 111.809 30.8115C111.809 31.9144 112.091 32.7988 112.657 33.4648C113.223 34.1309 113.971 34.4639 114.902 34.4639C115.848 34.4639 116.614 34.1201 117.201 33.4326C117.796 32.7451 118.093 31.8499 118.093 30.7471ZM120.08 36H118.093V34.3887C117.756 35.0404 117.298 35.5309 116.718 35.8604C116.138 36.1898 115.439 36.3545 114.623 36.3545C113.198 36.3545 112.041 35.8389 111.153 34.8076C110.265 33.7764 109.821 32.4372 109.821 30.79C109.821 29.1715 110.265 27.861 111.153 26.8584C112.049 25.8558 113.219 25.3545 114.666 25.3545C115.432 25.3545 116.102 25.5085 116.675 25.8164C117.248 26.1172 117.72 26.5719 118.093 27.1807V25.709H120.08V36ZM125.301 36H123.324V25.709H125.301V36ZM125.612 21.541C125.612 21.9062 125.487 22.2142 125.236 22.4648C124.986 22.7155 124.678 22.8408 124.312 22.8408C123.947 22.8408 123.639 22.7155 123.389 22.4648C123.138 22.2142 123.013 21.9062 123.013 21.541C123.013 21.1829 123.138 20.8786 123.389 20.6279C123.639 20.3773 123.947 20.252 124.312 20.252C124.678 20.252 124.986 20.3773 125.236 20.6279C125.487 20.8786 125.612 21.1829 125.612 21.541ZM130.489 36H128.513V17.8457H130.489V36Z" fill="white"/>
</svg>
