<svg width="28" height="26" viewBox="0 0 28 26" fill="none" xmlns="http://www.w3.org/2000/svg">
    <path fill-rule="evenodd" clip-rule="evenodd" d="M4.45881 6.8426C5.23674 6.54035 6.07079 6.38477 6.91312 6.38477C7.75545 6.38477 8.58949 6.54035 9.36742 6.8426C10.1454 7.14485 10.8519 7.58782 11.4465 8.14611L11.4498 8.14924L11.5081 8.20455L11.5665 8.14924L11.5698 8.14611C12.1644 7.58782 12.8709 7.14485 13.6488 6.8426C14.4267 6.54035 15.2608 6.38477 16.1031 6.38477C16.9454 6.38477 17.7795 6.54035 18.5574 6.8426C19.3351 7.14475 20.0414 7.58752 20.6358 8.14553C23.1809 10.5275 23.2374 14.466 20.2218 17.3407L20.2153 17.3469L12.2152 24.8324C12.0277 25.0079 11.7733 25.1065 11.5081 25.1065C11.2429 25.1065 10.9885 25.0079 10.801 24.8324L2.79445 17.3407C-0.221245 14.4661 -0.164624 10.5275 2.3804 8.14553C2.97486 7.58752 3.68115 7.14475 4.45881 6.8426ZM6.91312 8.25617C6.33402 8.25617 5.76061 8.36313 5.22578 8.57093C4.69096 8.77873 4.20523 9.08327 3.79645 9.46709L3.79523 9.46824C2.10161 11.053 1.89787 13.8119 4.21863 16.0267L11.5081 22.8475L18.7976 16.0268C21.1184 13.8119 20.9146 11.053 19.221 9.46824L19.2198 9.46709C18.811 9.08327 18.3253 8.77873 17.7905 8.57093C17.2556 8.36313 16.6822 8.25617 16.1031 8.25617C15.524 8.25617 14.9506 8.36313 14.4158 8.57093C13.8817 8.77845 13.3965 9.08247 12.9881 9.46558C12.9875 9.46608 12.987 9.46659 12.9865 9.46709L12.2198 10.1938C12.0319 10.3719 11.7756 10.4721 11.5081 10.4721C11.2407 10.4721 10.9844 10.3719 10.7965 10.1938L10.0298 9.46709C10.0292 9.46659 10.0287 9.46608 10.0282 9.46558C9.61973 9.08247 9.13458 8.77845 8.60045 8.57093C8.06563 8.36313 7.49222 8.25617 6.91312 8.25617Z" fill="black" />
    <circle cx="19.0081" cy="8.5" r="7.5" fill="#7CB118" stroke="white" stroke-width="2" />
    <path d="M19.6331 12C19.5085 12 19.4021 11.956 19.3141 11.868C19.2335 11.78 19.1931 11.6737 19.1931 11.549V5.532L19.3691 5.598L16.7401 9.03L16.6961 8.898H20.8101C20.9275 8.898 21.0265 8.93833 21.1071 9.019C21.1878 9.09967 21.2281 9.19867 21.2281 9.316C21.2281 9.426 21.1878 9.52133 21.1071 9.602C21.0265 9.67533 20.9275 9.712 20.8101 9.712H16.0911C15.9811 9.712 15.8785 9.668 15.7831 9.58C15.6951 9.492 15.6511 9.38933 15.6511 9.272C15.6511 9.162 15.6878 9.06667 15.7611 8.986L19.2701 4.476C19.3215 4.41 19.3801 4.366 19.4461 4.344C19.5121 4.31467 19.5781 4.3 19.6441 4.3C19.7688 4.3 19.8715 4.344 19.9521 4.432C20.0328 4.51267 20.0731 4.61533 20.0731 4.74V11.549C20.0731 11.6737 20.0291 11.78 19.9411 11.868C19.8605 11.956 19.7578 12 19.6331 12Z" fill="white" />
</svg>
    