<svg width="21" height="24" viewBox="0 0 21 24" fill="none" xmlns="http://www.w3.org/2000/svg">
<g clip-path="url(#clip0_45_4227)">
<path d="M3.675 6.5V10H2.1C1.54305 10 1.0089 10.2107 0.615076 10.5858C0.221249 10.9609 0 11.4696 0 12L0 22C0 22.5304 0.221249 23.0391 0.615076 23.4142C1.0089 23.7893 1.54305 24 2.1 24H18.9C19.457 24 19.9911 23.7893 20.3849 23.4142C20.7787 23.0391 21 22.5304 21 22V12C21 11.4696 20.7787 10.9609 20.3849 10.5858C19.9911 10.2107 19.457 10 18.9 10H17.325V6.5C17.325 4.77609 16.6059 3.12279 15.326 1.90381C14.0461 0.684819 12.3101 0 10.5 0C8.6899 0 6.95393 0.684819 5.674 1.90381C4.39406 3.12279 3.675 4.77609 3.675 6.5ZM6.3 10V6.5C6.3 5.43913 6.7425 4.42172 7.53015 3.67157C8.3178 2.92143 9.38609 2.5 10.5 2.5C11.6139 2.5 12.6822 2.92143 13.4698 3.67157C14.2575 4.42172 14.7 5.43913 14.7 6.5V10H6.3ZM8.4 15.5C8.40008 15.1535 8.49467 14.813 8.6745 14.5118C8.85433 14.2106 9.11323 13.9591 9.42584 13.7819C9.73845 13.6046 10.094 13.5078 10.4578 13.5008C10.8215 13.4939 11.1809 13.577 11.5007 13.7421C11.8206 13.9072 12.0899 14.1486 12.2823 14.4427C12.4747 14.7368 12.5836 15.0734 12.5983 15.4196C12.613 15.7658 12.533 16.1097 12.3662 16.4176C12.1993 16.7255 11.9514 16.9868 11.6466 17.176L11.6382 17.181C11.6382 17.181 11.8429 18.361 12.0739 19.751V19.752C12.0739 19.9506 11.9911 20.1412 11.8436 20.2816C11.6961 20.4221 11.4961 20.501 11.2875 20.501H9.7104C9.50182 20.501 9.30178 20.4221 9.1543 20.2816C9.00681 20.1412 8.92395 19.9506 8.92395 19.752V19.751L9.3597 17.181C9.06488 16.9997 8.82241 16.751 8.65441 16.4575C8.48641 16.1641 8.39822 15.8352 8.3979 15.501L8.4 15.5Z" fill="#848484"/>
</g>
<defs>
<clipPath id="clip0_45_4227">
<rect width="21" height="24" fill="white"/>
</clipPath>
</defs>
</svg>
