<svg width="41" height="26" viewBox="0 0 41 26" fill="none" xmlns="http://www.w3.org/2000/svg">
<path d="M10.9333 0.0858154C6.42333 0.0858154 2.73333 3.83582 2.73333 8.41915C2.73333 11.1747 4.06857 13.6275 6.10763 15.1469C2.50373 16.9636 0 20.7303 0 25.0858H2.73333C2.73333 20.4691 6.39053 16.7525 10.9333 16.7525C15.4761 16.7525 19.1333 20.4691 19.1333 25.0858H21.8667C21.8667 20.4691 25.5239 16.7525 30.0667 16.7525C34.6095 16.7525 38.2667 20.4691 38.2667 25.0858H41C41 20.7289 38.4963 16.9636 34.8924 15.1469C35.9358 14.3742 36.7852 13.3623 37.3715 12.1933C37.9578 11.0243 38.2645 9.73123 38.2667 8.41915C38.2667 3.83582 34.5767 0.0858154 30.0667 0.0858154C25.5567 0.0858154 21.8667 3.83582 21.8667 8.41915C21.8667 11.1747 23.2019 13.6275 25.241 15.1469C23.2442 16.1446 21.5914 17.7333 20.5 19.7039C19.4086 17.7333 17.7558 16.1446 15.759 15.1469C16.8025 14.3742 17.6519 13.3623 18.2382 12.1933C18.8245 11.0243 19.1312 9.73123 19.1333 8.41915C19.1333 3.83582 15.4433 0.0858154 10.9333 0.0858154ZM10.9333 2.86359C13.9714 2.86359 16.4 5.33165 16.4 8.41915C16.4 11.5066 13.9714 13.9747 10.9333 13.9747C7.89523 13.9747 5.46667 11.5066 5.46667 8.41915C5.46667 5.33165 7.89523 2.86359 10.9333 2.86359ZM30.0667 2.86359C33.1048 2.86359 35.5333 5.33165 35.5333 8.41915C35.5333 11.5066 33.1048 13.9747 30.0667 13.9747C27.0286 13.9747 24.6 11.5066 24.6 8.41915C24.6 5.33165 27.0286 2.86359 30.0667 2.86359Z" fill="#7CB118"/>
</svg>
