<svg width="22" height="14" viewBox="0 0 22 14" fill="none" xmlns="http://www.w3.org/2000/svg">
<path d="M1.7946 8.16665C2.43893 8.16665 2.96126 7.64431 2.96126 6.99998C2.96126 6.35565 2.43893 5.83331 1.7946 5.83331C1.15026 5.83331 0.62793 6.35565 0.62793 6.99998C0.62793 7.64431 1.15026 8.16665 1.7946 8.16665Z" fill="#7CB118"/>
<path d="M20.5313 5.83331H6.39134C5.78567 5.83331 5.29468 6.32431 5.29468 6.92998V7.06998C5.29468 7.67565 5.78567 8.16665 6.39134 8.16665H20.5313C21.137 8.16665 21.628 7.67565 21.628 7.06998V6.92998C21.628 6.32431 21.137 5.83331 20.5313 5.83331Z" fill="#7CB118"/>
<path d="M20.5313 11.6667H1.7246C1.11892 11.6667 0.62793 12.1577 0.62793 12.7634V12.9034C0.62793 13.509 1.11892 14 1.7246 14H20.5313C21.1369 14 21.6279 13.509 21.6279 12.9034V12.7634C21.6279 12.1577 21.1369 11.6667 20.5313 11.6667Z" fill="#7CB118"/>
<path d="M20.5313 0H1.7246C1.11892 0 0.62793 0.490994 0.62793 1.09667V1.23667C0.62793 1.84234 1.11892 2.33333 1.7246 2.33333H20.5313C21.1369 2.33333 21.6279 1.84234 21.6279 1.23667V1.09667C21.6279 0.490994 21.1369 0 20.5313 0Z" fill="#7CB118"/>
</svg>
