<svg width="38" height="34" viewBox="0 0 38 34" fill="none" xmlns="http://www.w3.org/2000/svg">
<path fill-rule="evenodd" clip-rule="evenodd" d="M6.7272 0.831464C8.04913 0.282556 9.46642 0 10.8978 0C12.3292 0 13.7464 0.282556 15.0684 0.831464C16.3903 1.38037 17.5909 2.18484 18.6013 3.19872L18.6069 3.2044L18.7061 3.30485L18.8052 3.20441L18.8108 3.19872C19.8212 2.18484 21.0218 1.38037 22.3437 0.831464C23.6657 0.282556 25.083 0 26.5143 0C27.9457 0 29.363 0.282556 30.6849 0.831464C32.0064 1.38018 33.2066 2.18428 34.2168 3.19768C38.5415 7.52356 38.6377 14.6762 33.5131 19.8967L33.5021 19.9079L19.9076 33.5022C19.589 33.8209 19.1567 34 18.7061 34C18.2554 34 17.8232 33.8209 17.5045 33.5022L3.89896 19.8967C-1.22561 14.6762 -1.12939 7.52355 3.19536 3.19767C4.20552 2.18428 5.40572 1.38018 6.7272 0.831464ZM10.8978 3.39859C9.91372 3.39859 8.93934 3.59285 8.03051 3.97022C7.12168 4.3476 6.29628 4.90067 5.60165 5.59771L5.59957 5.5998C2.72161 8.47775 2.3754 13.4882 6.31906 17.5105L18.7061 29.8975L31.093 17.5105C35.0367 13.4882 34.6905 8.47776 31.8125 5.5998L31.8105 5.59771C31.1158 4.90067 30.2904 4.3476 29.3816 3.97022C28.4728 3.59285 27.4984 3.39859 26.5143 3.39859C25.5303 3.39859 24.5559 3.59285 23.647 3.97022C22.7394 4.3471 21.915 4.89921 21.2209 5.59496C21.22 5.59588 21.2191 5.5968 21.2182 5.59771L19.9154 6.91748C19.5961 7.24091 19.1605 7.42297 18.7061 7.42297C18.2516 7.42297 17.816 7.24091 17.4967 6.91748L16.1939 5.59771C16.193 5.5968 16.1921 5.59588 16.1912 5.59496C15.4971 4.89921 14.6727 4.3471 13.7651 3.97022C12.8562 3.59285 11.8819 3.39859 10.8978 3.39859Z" fill="black"/>
</svg>
