<svg width="19" height="19" viewBox="0 0 19 19" fill="none" xmlns="http://www.w3.org/2000/svg">
<path fill-rule="evenodd" clip-rule="evenodd" d="M3.5 9.5C3.5 9.08579 3.83579 8.75 4.25 8.75H14.75C15.1642 8.75 15.5 9.08579 15.5 9.5C15.5 9.91421 15.1642 10.25 14.75 10.25H4.25C3.83579 10.25 3.5 9.91421 3.5 9.5Z" fill="black"/>
<path fill-rule="evenodd" clip-rule="evenodd" d="M8.96967 3.71967C9.26256 3.42678 9.73744 3.42678 10.0303 3.71967L15.2803 8.96967C15.5732 9.26256 15.5732 9.73744 15.2803 10.0303L10.0303 15.2803C9.73744 15.5732 9.26256 15.5732 8.96967 15.2803C8.67678 14.9874 8.67678 14.5126 8.96967 14.2197L13.6893 9.5L8.96967 4.78033C8.67678 4.48744 8.67678 4.01256 8.96967 3.71967Z" fill="black"/>
</svg>
