<svg width="16" height="18" viewBox="0 0 16 18" fill="none" xmlns="http://www.w3.org/2000/svg">
<path fill-rule="evenodd" clip-rule="evenodd" d="M8 1.5C6.4087 1.5 4.88258 2.13214 3.75736 3.25736C2.63214 4.38258 2 5.9087 2 7.5C2 9.82354 3.5118 12.0782 5.16946 13.8279C5.98296 14.6866 6.799 15.3896 7.41251 15.8781C7.64084 16.0599 7.84027 16.2114 8 16.3294C8.15973 16.2114 8.35916 16.0599 8.58749 15.8781C9.201 15.3896 10.017 14.6866 10.8305 13.8279C12.4882 12.0782 14 9.82354 14 7.5C14 5.9087 13.3679 4.38258 12.2426 3.25736C11.1174 2.13214 9.5913 1.5 8 1.5ZM8 17.25C7.58397 17.874 7.58379 17.8739 7.58357 17.8738L7.58143 17.8723L7.57643 17.869L7.55924 17.8574C7.54464 17.8474 7.52381 17.8332 7.49717 17.8147C7.4439 17.7778 7.36735 17.7241 7.27084 17.6544C7.07791 17.5151 6.80477 17.3117 6.47812 17.0516C5.826 16.5323 4.95454 15.7821 4.08054 14.8596C2.3632 13.0468 0.5 10.4265 0.5 7.5C0.5 5.51088 1.29018 3.60322 2.6967 2.1967C4.10322 0.790176 6.01088 0 8 0C9.98912 0 11.8968 0.790176 13.3033 2.1967C14.7098 3.60322 15.5 5.51088 15.5 7.5C15.5 10.4265 13.6368 13.0468 11.9195 14.8596C11.0455 15.7821 10.174 16.5323 9.52188 17.0516C9.19523 17.3117 8.92209 17.5151 8.72916 17.6544C8.63265 17.7241 8.5561 17.7778 8.50283 17.8147C8.47619 17.8332 8.45536 17.8474 8.44076 17.8574L8.42357 17.869L8.41857 17.8723L8.41699 17.8734C8.41678 17.8735 8.41603 17.874 8 17.25ZM8 17.25L8.41603 17.874C8.1641 18.042 7.83549 18.0417 7.58357 17.8738L8 17.25Z" fill="#7CB118"/>
<path fill-rule="evenodd" clip-rule="evenodd" d="M8 6C7.17157 6 6.5 6.67157 6.5 7.5C6.5 8.32843 7.17157 9 8 9C8.82843 9 9.5 8.32843 9.5 7.5C9.5 6.67157 8.82843 6 8 6ZM5 7.5C5 5.84315 6.34315 4.5 8 4.5C9.65685 4.5 11 5.84315 11 7.5C11 9.15685 9.65685 10.5 8 10.5C6.34315 10.5 5 9.15685 5 7.5Z" fill="#7CB118"/>
</svg>
