<svg width="18" height="14" viewBox="0 0 18 14" fill="none" xmlns="http://www.w3.org/2000/svg">
<path fill-rule="evenodd" clip-rule="evenodd" d="M3 1.75C2.58921 1.75 2.25 2.08921 2.25 2.5V11.5C2.25 11.9108 2.58921 12.25 3 12.25H15C15.4108 12.25 15.75 11.9108 15.75 11.5V2.5C15.75 2.08921 15.4108 1.75 15 1.75H3ZM0.75 2.5C0.75 1.26079 1.76079 0.25 3 0.25H15C16.2392 0.25 17.25 1.26079 17.25 2.5V11.5C17.25 12.7392 16.2392 13.75 15 13.75H3C1.76079 13.75 0.75 12.7392 0.75 11.5V2.5Z" fill="#7CB118"/>
<path fill-rule="evenodd" clip-rule="evenodd" d="M0.885579 2.06997C1.12312 1.73063 1.59076 1.6481 1.9301 1.88564L9 6.83457L16.0699 1.88564C16.4092 1.6481 16.8769 1.73063 17.1144 2.06997C17.352 2.4093 17.2694 2.87695 16.9301 3.11449L9.4301 8.36449C9.17186 8.54526 8.82815 8.54526 8.56991 8.36449L1.06991 3.11449C0.73057 2.87695 0.648044 2.4093 0.885579 2.06997Z" fill="#7CB118"/>
</svg>
