<svg width="18" height="18" viewBox="0 0 18 18" fill="none" xmlns="http://www.w3.org/2000/svg">
<path d="M14.9175 17.1975C14.85 17.1975 14.7825 17.1975 14.7075 17.19C12.285 16.9275 9.93002 16.0875 7.89752 14.7675C6.00752 13.5675 4.37252 11.9325 3.17252 10.0425C1.85252 8.0025 1.01252 5.64 0.75752 3.2175C0.72752 2.895 0.76502 2.5875 0.86252 2.2875C0.96002 1.9875 1.12502 1.7175 1.33502 1.485C1.54502 1.2525 1.80002 1.0725 2.08502 0.945C2.37752 0.8175 2.68502 0.75 3.00002 0.75H5.25002C5.77502 0.75 6.31502 0.9375 6.73502 1.2975C7.14752 1.65 7.41752 2.145 7.49252 2.685C7.58252 3.3525 7.74752 4.0125 7.98002 4.635C8.13002 5.04 8.16752 5.475 8.07002 5.895C7.98002 6.315 7.77002 6.705 7.47002 7.005L6.93002 7.545C7.81502 8.925 8.98502 10.1025 10.3725 10.9875L10.9125 10.4475C11.22 10.14 11.61 9.93 12.03 9.8475C12.45 9.7575 12.885 9.7875 13.29 9.9375C13.9125 10.17 14.5725 10.335 15.2325 10.425C15.7875 10.5 16.2825 10.7775 16.6425 11.1975C16.995 11.6175 17.19 12.15 17.175 12.6975V14.94C17.175 15.255 17.115 15.555 16.9875 15.8475C16.86 16.1325 16.6725 16.395 16.4475 16.605C16.215 16.815 15.945 16.98 15.645 17.0775C15.405 17.16 15.165 17.1975 14.9175 17.1975ZM5.26502 2.25H5.25752H3.00002C2.89502 2.25 2.79752 2.2725 2.70002 2.3175C2.60252 2.355 2.51252 2.415 2.44502 2.49C2.37002 2.565 2.31752 2.655 2.28752 2.76C2.25752 2.8575 2.24252 2.9625 2.25002 3.0675C2.48252 5.25 3.24002 7.38 4.43252 9.2325C5.52002 10.9425 6.99752 12.42 8.70752 13.5075C10.5525 14.7075 12.6825 15.4575 14.8575 15.6975C14.9475 15.705 15.0525 15.69 15.15 15.66C15.2475 15.63 15.3375 15.57 15.42 15.5025C15.5025 15.435 15.5625 15.345 15.6 15.2475C15.645 15.15 15.66 15.045 15.66 14.94V12.69C15.66 12.6825 15.66 12.675 15.66 12.675C15.6675 12.4875 15.6 12.315 15.48 12.1725C15.36 12.03 15.195 11.94 15.015 11.9175C14.25 11.82 13.485 11.625 12.75 11.355C12.615 11.3025 12.465 11.295 12.33 11.325C12.1875 11.355 12.06 11.4225 11.955 11.5275L11.01 12.48C10.77 12.72 10.4025 12.765 10.11 12.6C8.11502 11.4675 6.46502 9.81 5.32502 7.8225C5.16752 7.5075 5.21252 7.14 5.45252 6.9L6.40502 5.9475C6.50252 5.85 6.57002 5.7225 6.60002 5.58C6.63002 5.4375 6.62252 5.295 6.57002 5.16C6.29252 4.425 6.10502 3.66 6.00002 2.8875C5.97752 2.715 5.88752 2.55 5.75252 2.43C5.61752 2.3175 5.44502 2.25 5.26502 2.25Z" fill="#7CB118"/>
</svg>
