<svg width="21" height="24" viewBox="0 0 21 24" fill="none" xmlns="http://www.w3.org/2000/svg">
    <path d="M19.7499 10.15V10.1533V10.2059C19.6819 13.576 17.8195 16.7507 15.3926 19.2966C14.0194 20.7325 12.4996 22.0026 10.8453 23.0733L10.8019 23.1014L10.7628 23.1352C10.5855 23.2883 10.332 23.2883 10.1547 23.1352L10.1189 23.1044L10.0796 23.0782C7.6217 21.4455 5.45082 19.3937 3.69214 17.0055L3.6901 17.0027C2.19529 14.9921 1.34163 12.5761 1.25007 10.0577C1.2797 4.89129 5.44042 0.739434 10.5327 0.75002C12.9899 0.761376 15.3393 1.75976 17.0584 3.51343C18.7906 5.28052 19.7607 7.67096 19.7499 10.15ZM10.4896 14.2636L10.4896 14.2637H10.4999H10.5352C11.5644 14.2637 12.5566 13.8641 13.289 13.132L13.2892 13.1318C14.0384 12.3822 14.4628 11.3779 14.4628 10.3213C14.4628 8.13553 12.707 6.36692 10.5352 6.36692C8.35946 6.36692 6.62052 8.13953 6.62052 10.3213C6.62052 12.4808 8.33413 14.2339 10.4896 14.2636Z" stroke="black" stroke-width="1.5" />
</svg>
    