<svg width="23" height="28" viewBox="0 0 23 28" fill="none" xmlns="http://www.w3.org/2000/svg">
<path fill-rule="evenodd" clip-rule="evenodd" d="M1 11.5068C1.01961 5.68431 5.7155 0.98028 11.4886 1.00006C17.2616 1.01984 21.9257 5.75594 21.9061 11.5784V11.6978C21.8351 15.4826 19.7397 18.9809 17.1708 21.715C15.7017 23.2537 14.0611 24.6159 12.2817 25.7745C11.8059 26.1895 11.1002 26.1895 10.6244 25.7745C7.97173 24.0331 5.64358 21.8346 3.74644 19.2794C2.05555 17.0512 1.09552 14.3468 1 11.5426L1 11.5068Z" stroke="#7CB118" stroke-width="2" stroke-linecap="round" stroke-linejoin="round"/>
<path fill-rule="evenodd" clip-rule="evenodd" d="M11.453 14.6464C13.0613 14.6464 14.365 13.3315 14.365 11.7095C14.365 10.0875 13.0613 8.77258 11.453 8.77258C9.84476 8.77258 8.54102 10.0875 8.54102 11.7095C8.54102 13.3315 9.84476 14.6464 11.453 14.6464Z" stroke="#7CB118" stroke-width="2" stroke-linecap="round" stroke-linejoin="round"/>
</svg>
