<svg width="11" height="12" viewBox="0 0 11 12" fill="none" xmlns="http://www.w3.org/2000/svg">
<path d="M10.1279 5.07447V5.07665V5.10167C10.0943 6.74239 9.18604 8.30078 7.98387 9.56196C7.30365 10.2732 6.55126 10.9019 5.73266 11.4317L5.70373 11.4505L5.67763 11.473C5.63591 11.509 5.57868 11.509 5.53695 11.473L5.51312 11.4524L5.4869 11.435C4.26986 10.6265 3.19515 9.61074 2.32465 8.42861L2.32329 8.42678C1.59146 7.44242 1.17333 6.2598 1.12798 5.02696C1.1438 2.51278 3.16859 0.494956 5.64385 0.500009C6.83883 0.505571 7.98161 0.991141 8.81785 1.84422C9.66089 2.70424 10.1331 3.86781 10.1279 5.07447ZM5.62099 7.25681L5.62099 7.25686H5.62788H5.64553C6.19248 7.25686 6.72061 7.04447 7.11079 6.6544L7.11093 6.65426C7.50842 6.25656 7.73434 5.72281 7.73434 5.16066C7.73434 3.9995 6.80122 3.05846 5.64553 3.05846C4.48719 3.05846 3.56319 4.00217 3.56319 5.16066C3.56319 6.30806 4.47423 7.241 5.62099 7.25681Z" stroke="white"/>
</svg>
