<svg width="34" height="26" viewBox="0 0 34 26" fill="none" xmlns="http://www.w3.org/2000/svg">
<path d="M33.0009 6.51513C33.5685 6.68077 33.9712 7.18291 34 7.78287V23.434C33.9686 24.0757 33.5031 24.5452 32.8532 24.7526C27.6878 26.413 22.0477 26.4116 16.9019 24.7735C14.3048 23.9466 11.5875 23.4353 8.85961 23.4692C6.43777 23.4992 4.01592 23.9114 1.72092 24.6705C1.72092 24.6705 1.27108 24.8048 0.870923 24.6626C0.364846 24.4839 0.0261538 23.974 0 23.434V2.56583C0.0313846 1.92282 0.496923 1.45459 1.14685 1.24591C6.30177 -0.410501 11.9523 -0.413109 17.0981 1.22504C18.2188 1.58241 19.3538 1.91239 20.5125 2.1289C24.4107 2.85928 28.5103 2.57626 32.2791 1.32808L32.521 1.272C32.6308 1.26287 32.6583 1.25635 32.7695 1.26287C33.915 1.33069 34.6212 3.30273 33.0428 3.82313C33.0009 3.83748 32.9591 3.85052 32.9159 3.86487C27.7218 5.54867 22.0398 5.54215 16.9019 3.9053C14.5062 3.14231 12.0177 2.64017 9.50692 2.60234C7.18839 2.56713 4.86723 2.87885 2.63108 3.52055L2.61538 21.6889C7.40546 20.4577 12.4362 20.609 17.0981 22.0932C21.7012 23.5592 26.7005 23.8175 31.3689 22.478L31.3846 7.78287C31.3846 7.78287 31.7272 6.26993 33.0009 6.51513ZM27.5269 18.247C28.4645 18.3122 29.104 19.5108 28.5208 20.3142C28.1677 20.7994 27.5034 20.8659 26.8221 20.9207C25.279 21.0446 23.7098 21.0146 22.1798 20.8555C21.3258 20.7668 20.6903 19.8264 21.0277 19.0373C21.2748 18.4596 21.9405 18.2104 22.6087 18.277C24.1753 18.427 25.7524 18.4243 27.319 18.2535C27.319 18.2535 27.3857 18.2431 27.5269 18.247ZM17.034 7.80505C19.4362 7.82722 21.6802 9.67666 22.1209 12.0491C22.7212 15.2772 19.6978 18.7817 16.048 18.1074C13.9348 17.7161 12.1602 15.8876 11.8464 13.7564C11.4227 10.8727 13.7922 7.87417 16.8993 7.80505C16.9438 7.80505 16.9882 7.80505 17.034 7.80505ZM16.983 10.4136C15.283 10.4292 13.872 12.4339 14.6488 14.0903C15.2032 15.2746 16.7515 15.8954 17.9795 15.3945C19.3081 14.8533 19.9855 13.099 19.295 11.7961C18.8661 10.9835 17.986 10.4344 17.051 10.4136C17.0288 10.4136 17.0052 10.4136 16.983 10.4136ZM9.24015 5.20304C10.1032 5.20696 10.9676 5.25391 11.8255 5.34651C12.1118 5.37781 12.988 5.77561 13.0691 6.50991C13.1515 7.25726 12.4649 8.00721 11.679 7.95373C10.0588 7.84156 8.35615 7.77244 6.67577 7.94982C6.67577 7.94982 6.00492 7.95373 5.62831 7.58854C4.94962 6.93249 5.27785 5.51737 6.35015 5.36216C7.27208 5.22782 8.26854 5.20174 9.24015 5.20304Z" fill="black"/>
</svg>
