<svg width="53" height="33" viewBox="0 0 53 33" fill="none" xmlns="http://www.w3.org/2000/svg">
<path d="M51.4426 8.2692C52.3273 8.47944 52.9552 9.11677 53 9.87826V29.7432C52.9511 30.5576 52.2254 31.1536 51.2123 31.4168C43.1603 33.5241 34.3685 33.5225 26.3471 31.4433C22.2987 30.3938 18.0628 29.7448 13.8106 29.7879C10.0353 29.8259 6.26012 30.3491 2.68262 31.3125C2.68262 31.3125 1.98138 31.483 1.35762 31.3026C0.568731 31.0758 0.0407692 30.4285 0 29.7432V3.25662C0.0489231 2.44051 0.774616 1.84622 1.78773 1.58135C9.82335 -0.52102 18.6315 -0.524331 26.6529 1.55486C28.3998 2.00845 30.1692 2.42726 31.9753 2.70206C38.052 3.62909 44.4425 3.26987 50.3174 1.68564L50.6945 1.61446C50.8657 1.60287 50.9085 1.59459 51.0818 1.60287C52.8675 1.68895 53.9683 4.19193 51.5078 4.85244C51.4426 4.87065 51.3774 4.8872 51.3101 4.90541C43.2133 7.04255 34.3562 7.03427 26.3471 4.95673C22.6127 3.98832 18.7335 3.35098 14.8196 3.30298C11.2054 3.25828 7.58715 3.65392 4.10138 4.46838L4.07692 27.5282C11.5438 25.9655 19.3858 26.1576 26.6529 28.0414C33.8283 29.9021 41.6213 30.2299 48.8986 28.5298L48.9231 9.87826C48.9231 9.87826 49.4572 7.95799 51.4426 8.2692ZM42.9096 23.1596C44.3712 23.2424 45.368 24.7637 44.4588 25.7834C43.9085 26.3992 42.8729 26.4837 41.8109 26.5532C39.4055 26.7105 36.9593 26.6724 34.5743 26.4704C33.2432 26.3579 32.2525 25.1643 32.7785 24.1628C33.1637 23.4294 34.2013 23.1133 35.243 23.1977C37.685 23.3881 40.1434 23.3847 42.5855 23.1679C42.5855 23.1679 42.6895 23.1546 42.9096 23.1596ZM26.553 9.9064C30.2977 9.93455 33.7957 12.2819 34.4826 15.2931C35.4183 19.3902 30.7053 23.8383 25.016 22.9825C21.7218 22.4859 18.9557 20.165 18.4664 17.46C17.806 13.7999 21.4997 9.99414 26.343 9.9064C26.4123 9.9064 26.4817 9.9064 26.553 9.9064ZM26.4735 13.2172C23.8235 13.2371 21.624 15.7815 22.8348 17.8838C23.6992 19.3869 26.1127 20.1749 28.0268 19.5392C30.0979 18.8522 31.1538 16.6257 30.0775 14.972C29.4089 13.9406 28.037 13.2437 26.5795 13.2172C26.5448 13.2172 26.5082 13.2172 26.4735 13.2172ZM14.4038 6.60386C15.7492 6.60883 17.0966 6.66842 18.4338 6.78596C18.8802 6.82569 20.246 7.33059 20.3724 8.26258C20.5008 9.21113 19.4306 10.163 18.2055 10.0951C15.6798 9.95275 13.0258 9.86502 10.4063 10.0902C10.4063 10.0902 9.36061 10.0951 8.77354 9.63161C7.71558 8.79893 8.22723 7.00282 9.89877 6.80582C11.3359 6.63531 12.8892 6.60221 14.4038 6.60386Z" fill="white"/>
</svg>
