<svg width="25" height="28" viewBox="0 0 25 28" fill="none" xmlns="http://www.w3.org/2000/svg">
<path d="M4.75 1.08582L1 6.08582V23.5858C1 24.2489 1.26339 24.8847 1.73223 25.3536C2.20107 25.8224 2.83696 26.0858 3.5 26.0858H21C21.663 26.0858 22.2989 25.8224 22.7678 25.3536C23.2366 24.8847 23.5 24.2489 23.5 23.5858V6.08582L19.75 1.08582H4.75Z" stroke="#7CB118" stroke-width="2" stroke-linecap="round" stroke-linejoin="round"/>
<path d="M1 6.08582H23.5" stroke="#7CB118" stroke-width="2" stroke-linecap="round" stroke-linejoin="round"/>
<path d="M17.25 11.0858C17.25 12.4119 16.7232 13.6837 15.7855 14.6213C14.8479 15.559 13.5761 16.0858 12.25 16.0858C10.9239 16.0858 9.65215 15.559 8.71447 14.6213C7.77678 13.6837 7.25 12.4119 7.25 11.0858" stroke="#7CB118" stroke-width="2" stroke-linecap="round" stroke-linejoin="round"/>
</svg>
