<svg width="33" height="26" viewBox="0 0 33 26" fill="none" xmlns="http://www.w3.org/2000/svg">
<path d="M22.6875 7.84375C22.6875 7.57025 22.7961 7.30794 22.9895 7.11455C23.1829 6.92115 23.4452 6.8125 23.7188 6.8125H27.8438C28.1173 6.8125 28.3796 6.92115 28.573 7.11455C28.7664 7.30794 28.875 7.57025 28.875 7.84375V9.90625C28.875 10.1798 28.7664 10.4421 28.573 10.6355C28.3796 10.8289 28.1173 10.9375 27.8438 10.9375H23.7188C23.4452 10.9375 23.1829 10.8289 22.9895 10.6355C22.7961 10.4421 22.6875 10.1798 22.6875 9.90625V7.84375Z" fill="#848484"/>
<path d="M4.125 0.625C3.03098 0.625 1.98177 1.0596 1.20818 1.83318C0.434597 2.60677 0 3.65598 0 4.75L0 21.25C0 22.344 0.434597 23.3932 1.20818 24.1668C1.98177 24.9404 3.03098 25.375 4.125 25.375H28.875C29.969 25.375 31.0182 24.9404 31.7918 24.1668C32.5654 23.3932 33 22.344 33 21.25V4.75C33 3.65598 32.5654 2.60677 31.7918 1.83318C31.0182 1.0596 29.969 0.625 28.875 0.625H4.125ZM30.9375 4.75V15.0625H2.0625V4.75C2.0625 4.20299 2.2798 3.67839 2.66659 3.29159C3.05339 2.9048 3.57799 2.6875 4.125 2.6875H28.875C29.422 2.6875 29.9466 2.9048 30.3334 3.29159C30.7202 3.67839 30.9375 4.20299 30.9375 4.75ZM28.875 23.3125H4.125C3.57799 23.3125 3.05339 23.0952 2.66659 22.7084C2.2798 22.3216 2.0625 21.797 2.0625 21.25V19.1875H30.9375V21.25C30.9375 21.797 30.7202 22.3216 30.3334 22.7084C29.9466 23.0952 29.422 23.3125 28.875 23.3125Z" fill="#848484"/>
</svg>
