<svg width="310" height="255" viewBox="0 0 310 255" fill="none" xmlns="http://www.w3.org/2000/svg">
<g opacity="0.15">
<path d="M6.59223 122.893H36.9569V140.421H25.3225M1 87.7529H36.9569V105.281H1V87.7529ZM72.9134 105.281H36.9569H72.9134ZM36.9569 87.7529H50.7248H36.9569ZM18.9785 105.281H54.9349V122.809H18.9785V105.281Z" stroke="#474747" stroke-width="2" stroke-miterlimit="10" stroke-linecap="round" stroke-linejoin="round"/>
<path d="M228.631 151.212H242.399M36.957 122.893H72.9135V140.421H36.957V122.893ZM192.674 151.212H228.631V168.74H192.674V151.212ZM264.588 168.74H228.631H264.588Z" stroke="#474747" stroke-width="2" stroke-miterlimit="10" stroke-linecap="round" stroke-linejoin="round"/>
<path d="M210.652 168.74H246.609V186.268H210.652V168.74ZM198.266 186.352H228.63V203.88H216.996L198.266 186.352ZM251.802 203.88H228.63V186.352H258.568L251.802 203.88ZM75.4297 22.0649H131.231V67.2986H75.4297V22.0649Z" stroke="#474747" stroke-width="2" stroke-miterlimit="10" stroke-linecap="round" stroke-linejoin="round"/>
<path d="M83.127 56.8236L93.3508 42.0208L103.924 55.1238" stroke="#474747" stroke-width="2" stroke-miterlimit="10" stroke-linecap="round" stroke-linejoin="round"/>
<path d="M100.043 50.3157L114.308 36.4695L124.431 56.8238" stroke="#474747" stroke-width="2" stroke-miterlimit="10" stroke-linecap="round" stroke-linejoin="round"/>
<path d="M96.3164 45.7007C97.022 43.5632 99.0357 42.0208 101.409 42.0208C103.365 42.0208 105.076 43.068 106.013 44.6318L96.3164 45.7007ZM276.273 97.8448H196.909C193.979 97.8448 191.603 95.4694 191.603 92.5394C191.603 89.6094 193.979 87.234 196.909 87.234H276.273C279.203 87.234 281.578 89.6094 281.578 92.5394C281.578 95.4699 279.203 97.8448 276.273 97.8448V97.8448Z" stroke="#474747" stroke-width="2" stroke-miterlimit="10" stroke-linecap="round" stroke-linejoin="round"/>
<path d="M247.123 22.7174L253.067 12.8833C254.211 10.9909 256.784 10.5849 258.455 12.0336C260.125 13.4823 260.088 16.087 258.377 17.4872L247.241 26.6004M248.994 87.2346H225.756L220.922 57.5813H253.828L248.994 87.2346ZM216.531 48.9707H258.36V57.5813H216.531V48.9707ZM242.758 48.9707H234.176C231.841 40.7516 229.789 32.1396 230.041 23.7406C230.342 19.7153 234.691 16.3054 238.467 16.3068C242.243 16.3054 246.592 19.7153 246.893 23.7406C247.144 32.14 245.092 40.7516 242.758 48.9707V48.9707Z" stroke="#474747" stroke-width="2" stroke-miterlimit="10" stroke-linecap="round" stroke-linejoin="round"/>
<path d="M253.152 12.7781L250.32 3.98986C249.885 2.63904 250.772 1.22206 252.176 1.02268C252.506 0.975861 252.843 1.00173 253.162 1.09846C253.481 1.19519 253.775 1.36045 254.023 1.58269C254.272 1.80493 254.469 2.07877 254.6 2.38506C254.732 2.69135 254.795 3.02269 254.785 3.35591L254.575 10.4585" stroke="#474747" stroke-width="2" stroke-miterlimit="10" stroke-linecap="round" stroke-linejoin="round"/>
</g>
<path d="M234.129 82.6284L174.338 205.277L115.137 176.416L174.928 53.7681L234.129 82.6284Z" fill="#7CB118"/>
<path d="M210.679 79.5863L191.754 70.3594C188.161 77.7293 179.274 80.7907 171.904 77.1973L125.238 172.912L170.851 195.151L217.517 99.4367C210.147 95.8432 207.086 86.9562 210.679 79.5863Z" fill="#F6F9EA"/>
<path d="M210.679 79.5863L191.754 70.3594C188.161 77.7293 179.274 80.7907 171.904 77.1973L125.238 172.912L170.851 195.151L217.517 99.4367C210.147 95.8432 207.086 86.9562 210.679 79.5863V79.5863Z" stroke="#474747" stroke-width="2" stroke-miterlimit="10" stroke-linecap="round" stroke-linejoin="round"/>
<path d="M178.426 63.8518L224.041 86.0861L170.88 195.15L125.265 172.916L178.426 63.8518Z" stroke="#474747" stroke-width="2" stroke-miterlimit="10" stroke-linecap="round" stroke-linejoin="round"/>
<path d="M179.156 135.489C187.743 135.489 194.705 128.528 194.705 119.941C194.705 111.353 187.743 104.392 179.156 104.392C170.569 104.392 163.607 111.353 163.607 119.941C163.607 128.528 170.569 135.489 179.156 135.489Z" fill="#77BA85"/>
<path d="M179.156 135.489C187.743 135.489 194.705 128.528 194.705 119.941C194.705 111.353 187.743 104.392 179.156 104.392C170.569 104.392 163.607 111.353 163.607 119.941C163.607 128.528 170.569 135.489 179.156 135.489Z" stroke="#474747" stroke-width="6" stroke-miterlimit="10" stroke-linecap="round" stroke-linejoin="round"/>
<path d="M278.635 124.678L173.118 211.187L131.361 160.255L236.878 73.7462L278.635 124.678Z" fill="#A2CE53"/>
<path d="M258.57 112.143L245.221 95.8611C238.881 101.06 229.527 100.134 224.328 93.7935L141.982 161.307L174.156 200.549L256.502 133.036C251.304 126.695 252.229 117.341 258.57 112.143Z" fill="#F6F9EA"/>
<path d="M258.57 112.143L245.221 95.8611C238.881 101.06 229.527 100.134 224.328 93.7935L141.982 161.307L174.156 200.549L256.502 133.036C251.304 126.695 252.229 117.341 258.57 112.143V112.143Z" stroke="#474747" stroke-width="2" stroke-miterlimit="10" stroke-linecap="round" stroke-linejoin="round"/>
<path d="M235.812 84.3777L267.986 123.62L174.159 200.546L141.985 161.303L235.812 84.3777Z" stroke="#474747" stroke-width="2" stroke-miterlimit="10" stroke-linecap="round" stroke-linejoin="round"/>
<path d="M213.082 151.211C221.669 151.211 228.631 144.25 228.631 135.662C228.631 127.075 221.669 120.114 213.082 120.114C204.495 120.114 197.533 127.075 197.533 135.662C197.533 144.25 204.495 151.211 213.082 151.211Z" fill="#97CD78"/>
<path d="M213.082 151.211C221.669 151.211 228.631 144.25 228.631 135.662C228.631 127.075 221.669 120.114 213.082 120.114C204.495 120.114 197.533 127.075 197.533 135.662C197.533 144.25 204.495 151.211 213.082 151.211Z" stroke="#474747" stroke-width="6" stroke-miterlimit="10" stroke-linecap="round" stroke-linejoin="round"/>
<path opacity="0.32" d="M214.826 119.382C214.826 111.325 211.801 103.965 206.833 98.3633L131.346 160.254L173.103 211.186L214.826 176.978V119.382Z" fill="#474747" stroke="#474747" stroke-width="6" stroke-miterlimit="10" stroke-linecap="round" stroke-linejoin="round"/>
<path opacity="0.15" d="M6.19141 251.247H306.172" stroke="#474747" stroke-width="6" stroke-miterlimit="10" stroke-linecap="round" stroke-linejoin="round"/>
<path d="M183.105 251.246H87.9445C72.9286 251.246 60.7559 239.074 60.7559 224.058V117.116C60.7559 102.1 72.9286 89.9275 87.9445 89.9275H183.105C198.12 89.9275 210.293 102.1 210.293 117.116V224.058C210.293 239.074 198.12 251.246 183.105 251.246Z" fill="#CFA65E"/>
<path d="M183.105 251.246H87.9445C72.9286 251.246 60.7559 239.074 60.7559 224.058V117.116C60.7559 102.1 72.9286 89.9275 87.9445 89.9275H183.105C198.12 89.9275 210.293 102.1 210.293 117.116V224.058C210.293 239.074 198.12 251.246 183.105 251.246Z" fill="#CFA65E"/>
<path d="M183.105 245.755H87.9445C72.9286 245.755 60.7559 233.582 60.7559 218.566V224.058C60.7559 239.074 72.9286 251.247 87.9445 251.247H183.105C198.12 251.247 210.293 239.074 210.293 224.058V218.566C210.293 233.582 198.12 245.755 183.105 245.755Z" fill="#CFA65E"/>
<path d="M183.105 89.9275H87.9445C72.9286 89.9275 60.7559 101.112 60.7559 114.909V120.738C60.7559 106.941 72.9286 95.7567 87.9445 95.7567H183.105C198.12 95.7567 210.293 106.941 210.293 120.738V114.909C210.293 101.112 198.12 89.9275 183.105 89.9275Z" fill="#CFA65E"/>
<path opacity="0.3" d="M151.384 156.302H126.914C122.41 156.302 118.758 152.65 118.758 148.146V98.0841C118.758 93.5794 122.41 89.9275 126.914 89.9275H159.541V148.146C159.541 152.65 155.889 156.302 151.384 156.302Z" fill="#474747" stroke="#474747" stroke-width="6" stroke-miterlimit="10" stroke-linecap="round" stroke-linejoin="round"/>
<g opacity="0.46">
<path d="M70.7266 223.366V117.808C70.7266 108.298 78.4359 100.589 87.946 100.589H183.106C192.616 100.589 200.326 108.298 200.326 117.808V223.366C200.326 232.877 192.616 240.586 183.106 240.586H87.946C78.4359 240.586 70.7266 232.877 70.7266 223.366V223.366Z" stroke="#474747" stroke-width="2" stroke-linecap="round" stroke-linejoin="round" stroke-dasharray="13.96 9.97"/>
</g>
<path d="M147.759 151.318H123.289C118.785 151.318 115.133 147.666 115.133 143.161V87.8778C115.133 83.3731 118.785 79.7212 123.289 79.7212H147.759C152.264 79.7212 155.916 83.3731 155.916 87.8778V143.161C155.916 147.666 152.264 151.318 147.759 151.318Z" fill="#CFA65E"/>
<path d="M147.759 147.542H123.289C118.785 147.542 115.133 143.89 115.133 139.385V143.161C115.133 147.666 118.785 151.318 123.289 151.318H147.759C152.264 151.318 155.916 147.666 155.916 143.161V139.385C155.916 143.89 152.264 147.542 147.759 147.542Z" fill="#CFA65E"/>
<path d="M147.759 79.7212H123.289C118.785 79.7212 115.133 83.3731 115.133 87.8778V90.9596C115.133 86.4549 118.785 82.803 123.289 82.803H147.759C152.264 82.803 155.916 86.4549 155.916 90.9596V87.8778C155.916 83.3731 152.264 79.7212 147.759 79.7212Z" fill="#CFA65E"/>
<path d="M147.759 151.318H123.289C118.785 151.318 115.133 147.666 115.133 143.161V87.8778C115.133 83.3731 118.785 79.7212 123.289 79.7212H147.759C152.264 79.7212 155.916 83.3731 155.916 87.8778V143.161C155.916 147.666 152.264 151.318 147.759 151.318Z" stroke="#474747" stroke-width="2" stroke-miterlimit="10" stroke-linecap="round" stroke-linejoin="round"/>
<path opacity="0.3" d="M136.885 139.672C142.704 139.672 147.421 134.955 147.421 129.137C147.421 123.318 142.704 118.601 136.885 118.601C131.067 118.601 126.35 123.318 126.35 129.137C126.35 134.955 131.067 139.672 136.885 139.672Z" fill="#474747" stroke="#474747" stroke-width="6" stroke-miterlimit="10" stroke-linecap="round" stroke-linejoin="round"/>
<g opacity="0.46">
<path d="M123.291 145.88C121.792 145.88 120.572 144.66 120.572 143.161V87.8776C120.572 86.3781 121.792 85.1587 123.291 85.1587H147.761C149.26 85.1587 150.48 86.3781 150.48 87.8776V143.161C150.48 144.66 149.26 145.88 147.761 145.88H123.291Z" stroke="#474747" stroke-width="2" stroke-linecap="round" stroke-linejoin="round" stroke-dasharray="9.84 11.81"/>
</g>
<path d="M135.526 136.953C141.344 136.953 146.061 132.237 146.061 126.418C146.061 120.599 141.344 115.882 135.526 115.882C129.707 115.882 124.99 120.599 124.99 126.418C124.99 132.237 129.707 136.953 135.526 136.953Z" fill="#8F6D5D"/>
<path d="M135.526 136.953C141.344 136.953 146.061 132.237 146.061 126.418C146.061 120.599 141.344 115.882 135.526 115.882C129.707 115.882 124.99 120.599 124.99 126.418C124.99 132.237 129.707 136.953 135.526 136.953Z" stroke="#474747" stroke-width="2" stroke-miterlimit="10" stroke-linecap="round" stroke-linejoin="round"/>
<g opacity="0.6">
<path d="M139.969 121.016C140.352 122.73 138.305 123.829 135.288 124.451C132.267 125.048 129.552 125.149 129.181 123.698C128.798 122.272 130.844 119.626 133.861 118.767C136.882 117.884 139.597 119.329 139.969 121.016Z" fill="#FFFCEE"/>
</g>
<path d="M286.827 251.246H255.096C254.222 251.246 253.385 250.899 252.767 250.282C252.15 249.664 251.803 248.827 251.803 247.953V245.753C251.803 244.88 252.15 244.042 252.767 243.424C253.385 242.807 254.222 242.46 255.096 242.46H286.827C287.7 242.46 288.538 242.807 289.156 243.424C289.773 244.042 290.12 244.88 290.12 245.753V247.953C290.12 248.386 290.035 248.814 289.87 249.214C289.704 249.613 289.462 249.976 289.156 250.282C288.85 250.588 288.487 250.83 288.087 250.996C287.688 251.161 287.26 251.246 286.827 251.246Z" fill="#FDB740"/>
<path opacity="0.88" d="M286.827 243.366H255.096C254.663 243.366 254.235 243.451 253.836 243.617C253.436 243.782 253.073 244.025 252.767 244.331C252.461 244.636 252.219 244.999 252.053 245.399C251.888 245.799 251.803 246.227 251.803 246.659V247.943C251.803 247.07 252.15 246.232 252.767 245.614C253.385 244.997 254.222 244.65 255.096 244.65H286.827C287.7 244.65 288.538 244.997 289.156 245.614C289.773 246.232 290.12 247.07 290.12 247.943V246.659C290.12 246.227 290.035 245.799 289.87 245.399C289.704 244.999 289.462 244.636 289.156 244.331C288.85 244.025 288.487 243.782 288.087 243.617C287.688 243.451 287.26 243.366 286.827 243.366Z" fill="#FFF3C0"/>
<path d="M286.827 250.255H255.096C254.222 250.255 253.385 249.908 252.767 249.29C252.15 248.673 251.803 247.835 251.803 246.962V245.678C251.803 246.551 252.15 247.389 252.767 248.006C253.385 248.624 254.222 248.971 255.096 248.971H286.827C287.7 248.971 288.538 248.624 289.156 248.006C289.773 247.389 290.12 246.551 290.12 245.678V246.962C290.12 247.394 290.035 247.822 289.87 248.222C289.704 248.621 289.462 248.984 289.156 249.29C288.85 249.596 288.487 249.839 288.087 250.004C287.688 250.17 287.26 250.255 286.827 250.255Z" fill="#F29E25"/>
<path d="M292.108 242.46H260.377C259.504 242.46 258.666 242.113 258.048 241.496C257.431 240.878 257.084 240.041 257.084 239.167V236.967C257.084 236.534 257.169 236.106 257.335 235.707C257.5 235.307 257.743 234.944 258.048 234.638C258.354 234.332 258.717 234.09 259.117 233.924C259.516 233.759 259.945 233.674 260.377 233.674H292.108C292.541 233.674 292.969 233.759 293.368 233.924C293.768 234.09 294.131 234.332 294.437 234.638C294.743 234.944 294.985 235.307 295.151 235.707C295.316 236.106 295.401 236.534 295.401 236.967V239.167C295.401 240.041 295.054 240.878 294.437 241.496C293.819 242.113 292.982 242.46 292.108 242.46Z" fill="#FDB740"/>
<path opacity="0.88" d="M292.108 234.58H260.377C259.504 234.58 258.666 234.927 258.048 235.544C257.431 236.162 257.084 237 257.084 237.873V239.157C257.084 238.283 257.431 237.446 258.048 236.828C258.666 236.211 259.504 235.864 260.377 235.864H292.108C292.982 235.864 293.819 236.211 294.437 236.828C295.054 237.446 295.401 238.283 295.401 239.157V237.873C295.401 237 295.054 236.162 294.437 235.545C293.819 234.927 292.982 234.58 292.108 234.58Z" fill="#FFF3C0"/>
<path d="M292.108 241.468H260.377C259.945 241.468 259.516 241.383 259.117 241.218C258.717 241.052 258.354 240.81 258.048 240.504C257.743 240.198 257.5 239.835 257.335 239.435C257.169 239.036 257.084 238.608 257.084 238.175V236.891C257.084 237.765 257.431 238.602 258.048 239.22C258.666 239.838 259.504 240.184 260.377 240.184H292.108C292.982 240.184 293.819 239.838 294.437 239.22C295.054 238.602 295.401 237.765 295.401 236.891V238.175C295.401 238.608 295.316 239.036 295.151 239.435C294.985 239.835 294.743 240.198 294.437 240.504C294.131 240.81 293.768 241.052 293.368 241.218C292.969 241.383 292.541 241.468 292.108 241.468Z" fill="#F29E25"/>
<path d="M286.827 233.674H255.096C254.663 233.674 254.235 233.588 253.836 233.423C253.436 233.258 253.073 233.015 252.767 232.709C252.461 232.403 252.219 232.04 252.053 231.641C251.888 231.241 251.803 230.813 251.803 230.381V228.18C251.803 227.307 252.15 226.469 252.767 225.852C253.385 225.234 254.222 224.887 255.096 224.887H286.827C287.7 224.887 288.538 225.234 289.156 225.852C289.773 226.469 290.12 227.307 290.12 228.18V230.381C290.12 230.813 290.035 231.241 289.87 231.641C289.704 232.04 289.462 232.403 289.156 232.709C288.85 233.015 288.487 233.258 288.087 233.423C287.688 233.589 287.26 233.674 286.827 233.674Z" fill="#FDB740"/>
<path opacity="0.88" d="M286.827 225.794H255.096C254.222 225.794 253.385 226.141 252.767 226.758C252.15 227.376 251.803 228.213 251.803 229.087V230.37C251.803 229.938 251.888 229.51 252.053 229.11C252.219 228.711 252.461 228.348 252.767 228.042C253.073 227.736 253.436 227.493 253.836 227.328C254.235 227.163 254.663 227.077 255.096 227.077H286.827C287.26 227.077 287.688 227.163 288.087 227.328C288.487 227.493 288.85 227.736 289.156 228.042C289.461 228.348 289.704 228.711 289.869 229.11C290.035 229.51 290.12 229.938 290.12 230.37V229.087C290.12 228.654 290.035 228.226 289.87 227.826C289.704 227.427 289.462 227.064 289.156 226.758C288.85 226.452 288.487 226.21 288.087 226.044C287.688 225.879 287.26 225.794 286.827 225.794Z" fill="#FFF3C0"/>
<path d="M286.827 232.682H255.096C254.222 232.682 253.385 232.335 252.767 231.717C252.15 231.1 251.803 230.262 251.803 229.389V228.105C251.803 228.537 251.888 228.966 252.053 229.365C252.219 229.765 252.461 230.128 252.767 230.433C253.073 230.739 253.436 230.982 253.836 231.147C254.235 231.313 254.663 231.398 255.096 231.398H286.827C287.26 231.398 287.688 231.313 288.087 231.147C288.487 230.982 288.85 230.739 289.156 230.433C289.461 230.128 289.704 229.765 289.869 229.365C290.035 228.966 290.12 228.537 290.12 228.105V229.389C290.12 229.821 290.035 230.249 289.87 230.649C289.704 231.049 289.462 231.412 289.156 231.717C288.85 232.023 288.487 232.266 288.087 232.431C287.688 232.597 287.26 232.682 286.827 232.682Z" fill="#F29E25"/>
<path d="M250.915 227.029L229.239 250.203C228.943 250.519 228.589 250.773 228.195 250.952C227.801 251.131 227.376 251.23 226.944 251.245C226.511 251.259 226.081 251.188 225.676 251.036C225.271 250.884 224.9 250.654 224.584 250.358L222.977 248.855C222.661 248.56 222.407 248.205 222.228 247.811C222.049 247.417 221.95 246.992 221.935 246.56C221.921 246.128 221.992 245.697 222.144 245.292C222.296 244.887 222.526 244.516 222.822 244.201L244.498 221.027C244.793 220.711 245.148 220.456 245.542 220.278C245.936 220.099 246.361 219.999 246.793 219.985C247.225 219.971 247.656 220.041 248.061 220.193C248.466 220.346 248.837 220.576 249.153 220.871L250.759 222.374C251.397 222.971 251.772 223.797 251.801 224.67C251.83 225.543 251.511 226.391 250.915 227.029Z" fill="#FDB740"/>
<path opacity="0.88" d="M245.16 221.646L223.484 244.82C222.887 245.458 222.568 246.307 222.598 247.18C222.627 248.052 223.001 248.878 223.639 249.475L224.577 250.351C224.261 250.056 224.006 249.701 223.828 249.308C223.649 248.914 223.549 248.489 223.535 248.056C223.52 247.624 223.591 247.193 223.743 246.788C223.896 246.384 224.126 246.013 224.421 245.697L246.097 222.523C246.694 221.885 247.52 221.511 248.393 221.481C249.265 221.452 250.114 221.771 250.752 222.368L249.815 221.491C249.177 220.894 248.328 220.575 247.455 220.605C246.582 220.634 245.757 221.008 245.16 221.646Z" fill="#FFF3C0"/>
<path d="M250.192 226.352L228.516 249.525C228.221 249.841 227.866 250.096 227.472 250.275C227.078 250.453 226.653 250.553 226.221 250.567C225.789 250.582 225.358 250.511 224.953 250.359C224.548 250.207 224.177 249.976 223.861 249.681L222.924 248.804C223.562 249.401 224.41 249.719 225.283 249.69C226.156 249.661 226.982 249.286 227.579 248.649L249.255 225.475C249.851 224.837 250.17 223.988 250.141 223.115C250.112 222.242 249.737 221.417 249.099 220.82L250.037 221.697C250.675 222.294 251.049 223.119 251.078 223.992C251.108 224.865 250.789 225.714 250.192 226.352Z" fill="#F29E25"/>
</svg>
