<svg width="25" height="26" viewBox="0 0 25 26" fill="none" xmlns="http://www.w3.org/2000/svg">
<path d="M9.375 18.2733C12.3438 18.2733 15.4511 17.73 17.75 16.5729V17.2733C17.75 17.2764 17.7511 17.3079 17.7075 17.3789C17.6601 17.4561 17.5661 17.5679 17.3943 17.7032C17.0448 17.9784 16.4773 18.27 15.6871 18.5335C14.1171 19.057 11.8851 19.3983 9.375 19.3983C6.86489 19.3983 4.63286 19.057 3.06291 18.5335C2.27271 18.27 1.70517 17.9784 1.35575 17.7032C1.18394 17.5679 1.08995 17.4561 1.0425 17.3789C0.999777 17.3093 0.999973 17.2777 0.999999 17.2735L1 17.2733V16.573C3.29891 17.73 6.40623 18.2733 9.375 18.2733ZM20.6404 9.51511C20.4385 9.18165 20.196 8.8721 19.9207 8.58544C21.4034 8.36079 22.8099 8.00501 24 7.49456V7.89832C24 7.90037 23.9677 8.20013 23.1595 8.6431C22.5588 8.97235 21.703 9.27668 20.6404 9.51511ZM1 21.9608V21.5562C1.868 21.9286 2.84221 22.2153 3.86082 22.4297C5.57309 22.7901 7.48313 22.9608 9.375 22.9608C11.2669 22.9608 13.1769 22.7901 14.8892 22.4297C15.9078 22.2153 16.882 21.9286 17.75 21.5562V21.9608C17.75 21.9639 17.7511 21.9954 17.7075 22.0664C17.6601 22.1436 17.5661 22.2554 17.3943 22.3907C17.0448 22.6659 16.4773 22.9575 15.6871 23.221C14.1171 23.7445 11.8851 24.0858 9.375 24.0858C6.86489 24.0858 4.63286 23.7445 3.06291 23.221C2.27271 22.9575 1.70517 22.6659 1.35575 22.3907C1.18394 22.2554 1.08995 22.1436 1.0425 22.0664C0.999777 21.9968 0.999973 21.9652 0.999999 21.961L1 21.9608ZM24 3.21082V3.21104C24 3.21521 24.0002 3.24683 23.9575 3.31636C23.9101 3.39356 23.8161 3.50535 23.6443 3.64066C23.2948 3.91588 22.7273 4.20753 21.9371 4.47103C20.3671 4.99453 18.1351 5.33582 15.625 5.33582C13.1149 5.33582 10.8829 4.99453 9.31291 4.47103C8.52271 4.20753 7.95517 3.91588 7.60575 3.64066C7.43394 3.50535 7.33995 3.39356 7.2925 3.31636C7.24978 3.24684 7.24997 3.21522 7.25 3.21104L7.25 3.21082L7.25 3.21059C7.24997 3.20642 7.24978 3.1748 7.2925 3.10527C7.33995 3.02808 7.43394 2.91628 7.60575 2.78097C7.95517 2.50575 8.52271 2.2141 9.31291 1.9506C10.8829 1.4271 13.1149 1.08582 15.625 1.08582C18.1351 1.08582 20.3671 1.4271 21.9371 1.9506C22.7273 2.2141 23.2948 2.50575 23.6443 2.78097C23.8161 2.91628 23.9101 3.02808 23.9575 3.10527C24.0002 3.1748 24 3.20642 24 3.21059V3.21082ZM24 12.5858C24 12.591 23.9995 12.6048 23.9881 12.6326C23.9758 12.6628 23.9489 12.7129 23.8923 12.7809C23.7743 12.9227 23.5603 13.1027 23.214 13.2981C22.7411 13.565 22.099 13.8173 21.3125 14.0333V13.0069C22.2687 12.7983 23.182 12.527 24 12.1787V12.5858ZM1 11.8046C1 11.6134 1.08873 11.3409 1.4387 10.9962C1.79221 10.648 2.35502 10.2885 3.1311 9.96523C4.67889 9.3205 6.88612 8.89832 9.375 8.89832C11.8639 8.89832 14.0711 9.3205 15.6189 9.96523C16.395 10.2885 16.9578 10.648 17.3113 10.9962C17.6613 11.3409 17.75 11.6134 17.75 11.8046C17.75 11.9957 17.6613 12.2683 17.3113 12.6129C16.9578 12.9611 16.395 13.3206 15.6189 13.6439C14.0711 14.2886 11.8639 14.7108 9.375 14.7108C6.88612 14.7108 4.67889 14.2886 3.1311 13.6439C2.35502 13.3206 1.79221 12.9611 1.4387 12.6129C1.08873 12.2683 1 11.9957 1 11.8046Z" stroke="#7CB118" stroke-width="2"/>
</svg>
