<svg width="36" height="23" viewBox="0 0 36 23" fill="none" xmlns="http://www.w3.org/2000/svg">
<g clip-path="url(#clip0_45_4391)">
<path fill-rule="evenodd" clip-rule="evenodd" d="M-2.25 0H38.25V23H-2.25V0Z" fill="#199D00"/>
<path fill-rule="evenodd" clip-rule="evenodd" d="M7.95447 6.51817C7.91228 7.05723 7.849 8.00059 8.39216 8.09942C9.0408 8.15332 8.6822 7.16504 8.91951 6.98535C8.96169 6.89551 9.04079 6.89551 9.04607 7.00781V7.84785C9.04607 8.11738 9.25701 8.19824 9.41521 8.25215C9.58396 8.24317 9.69998 8.25215 9.76326 8.38692L9.84763 9.83789C9.84763 9.83789 10.2379 9.93672 10.259 9.02481C10.2748 8.48574 10.1324 8.04102 10.2168 7.9377C10.2168 7.83438 10.375 7.82988 10.4804 7.8793C10.6492 7.97813 10.723 8.10391 10.9867 8.05899C11.3875 7.96016 11.6301 7.79395 11.6353 7.5334C11.6274 7.27735 11.5649 7.02467 11.4508 6.7877C11.4719 6.74278 11.3769 6.62149 11.398 6.57656C11.4666 6.67539 11.5773 6.66641 11.5984 6.57656C11.5299 6.38789 11.4244 6.20371 11.2556 6.12734C11.1133 6.01953 10.9023 6.0375 10.8338 6.26211C10.7916 6.51817 10.9392 6.81914 11.1554 7.0707C11.2029 7.16504 11.2662 7.32676 11.2398 7.47051C11.1238 7.52891 11.0078 7.50195 10.9076 7.4166C10.9076 7.4166 10.5912 7.21445 10.5912 7.16504C10.6756 6.70684 10.607 6.65293 10.5595 6.52266C10.5279 6.34746 10.4277 6.28906 10.3486 6.17227C10.2695 6.10039 10.164 6.10039 10.1113 6.17227C9.96892 6.37891 10.0375 6.82363 10.1377 7.02578C10.2115 7.20996 10.3222 7.32676 10.2695 7.32676C10.2273 7.43008 10.1377 7.40313 10.0691 7.28184C9.99194 7.02658 9.95471 6.76376 9.95837 6.5002C9.93201 6.29356 9.90037 5.85332 9.73689 5.73652C9.64197 5.62871 9.49958 5.68262 9.44685 5.78145C9.43293 5.98213 9.43822 6.18345 9.46267 6.3834C9.56814 6.71582 9.60505 7.01231 9.65779 7.34922C9.67361 7.80293 9.35193 7.54688 9.36775 7.31777C9.43693 7.02976 9.43153 6.73235 9.35193 6.44629C9.29919 6.32949 9.24119 6.30254 9.10935 6.32051C9.00915 6.32051 8.75076 6.5586 8.67693 6.96289C8.67693 6.96289 8.61365 7.16953 8.58728 7.35371C8.55037 7.56035 8.39216 7.71309 8.27615 7.32676C8.18122 7.04375 8.11794 6.35645 7.95974 6.51817H7.95447Z" fill="white"/>
<path fill-rule="evenodd" clip-rule="evenodd" d="M9.7207 8.72373L8.0332 9.41553C8.04902 9.0876 8.82949 8.49912 9.36738 8.49463C9.71016 8.49912 9.62578 8.60693 9.71543 8.72373H9.7207Z" fill="white"/>
<path fill-rule="evenodd" clip-rule="evenodd" d="M9.42054 9.17309C8.5346 11.1272 11.5035 11.4012 11.8358 9.25395C11.8674 9.1641 11.994 9.07875 12.0151 9.2225C11.9465 11.1676 9.71585 11.2979 9.33616 10.687C9.24684 10.4767 9.2022 10.2546 9.20432 10.0311C9.15159 9.64926 8.91429 9.7975 8.87737 10.1748C8.84046 10.386 8.851 10.4444 8.851 10.6465C8.96702 12.1829 11.841 11.5225 12.3104 10.2557C12.5582 9.55492 12.2682 9.03832 12.4 9.03832C12.6848 9.29887 13.0856 9.07426 13.1752 8.98442C13.2121 8.93949 13.3071 8.90805 13.3703 8.96645C13.5918 9.10121 13.9821 9.03832 14.0664 8.80024C14.1139 8.56215 14.1508 8.31957 14.1614 8.0725C13.9768 8.11742 13.8449 8.14887 13.8291 8.21625L13.7922 8.42289C13.7764 8.49027 13.6235 8.49027 13.6129 8.40492C13.5444 8.13539 13.2596 8.10395 13.0856 8.51723C12.9748 8.59809 12.7639 8.61606 12.7428 8.49477C12.7692 8.21625 12.6373 8.18031 12.3737 8.31059L12.1205 6.68442C12.226 6.68442 12.3315 6.7518 12.4317 6.64399C12.3262 6.35199 12.0889 5.75902 11.9571 5.7141C11.8991 5.65121 11.8463 5.69164 11.7619 5.70961C11.6248 5.74555 11.4983 5.84438 11.5405 6.04203C11.6987 6.88656 11.8041 7.52895 11.9676 8.37797C11.994 8.47231 11.8991 8.60258 11.7725 8.5891C11.5616 8.46781 11.5088 8.22074 11.1397 8.22973C10.876 8.22973 10.5807 8.4768 10.5438 8.71039C10.4963 8.89906 10.4805 9.10121 10.5438 9.26293C10.7283 9.4516 10.9498 9.43363 11.1449 9.3932C11.3032 9.33481 11.435 9.20004 11.493 9.23149C11.5299 9.27191 11.4983 9.72113 10.7389 10.0625C10.2801 10.2422 9.91096 10.2782 9.71585 9.95922C9.59456 9.75707 9.72639 8.99789 9.42054 9.17309Z" fill="white"/>
<path fill-rule="evenodd" clip-rule="evenodd" d="M13.2014 7.18751C13.3755 7.13361 14.2192 6.30704 14.2192 6.30704L14.0926 6.2172C14.0452 6.18575 14.0505 6.14982 14.0926 6.11837C14.3036 6.01056 14.235 5.78595 14.1296 5.67814C14.058 5.6484 13.9792 5.63333 13.8995 5.63411C13.8199 5.63489 13.7416 5.6515 13.6708 5.68263C13.5231 5.80392 13.4915 5.99708 13.6075 6.11388C13.7182 6.1588 13.829 6.25763 13.7551 6.31154C13.4071 6.62599 12.4632 7.16954 12.5739 7.18751C12.595 7.21447 13.1803 7.21447 13.1962 7.18751H13.2014ZM8.0862 10.1074C7.76979 10.5387 7.74343 11.1811 7.91745 11.3742C8.01237 11.4641 8.1653 11.5045 8.27604 11.4731C8.47644 11.4012 8.56608 11.0553 8.51862 10.934C8.45007 10.8442 8.39733 10.8307 8.32878 10.9026C8.19167 11.1451 8.13366 10.9789 8.11784 10.8442C8.10273 10.6159 8.11687 10.387 8.16003 10.1613C8.19694 9.97267 8.16003 10.0266 8.0862 10.1074ZM21.6442 9.42013C21.3383 8.85411 20.9112 8.29708 20.7794 8.08595C20.3684 7.53253 19.9321 6.99306 19.4716 6.46876C19.1446 6.13634 20.0094 6.60802 19.3661 5.94318L18.8967 5.60626C18.7913 5.54337 18.5382 5.42658 18.496 5.61525C18.4749 5.78595 18.4854 5.87579 18.5171 6.01505C18.5434 6.1049 18.7016 6.26212 18.7807 6.35197C19.8619 7.5718 20.8114 8.87233 21.6178 10.2377C21.755 10.1793 21.7233 9.51447 21.6442 9.42013Z" fill="white"/>
<path fill-rule="evenodd" clip-rule="evenodd" d="M20.2994 11.2978C20.2361 11.3562 20.447 11.6033 20.7213 11.6033C21.1748 11.5584 21.5756 11.3427 21.9447 10.7677C22.0947 10.5765 22.1904 10.3581 22.2242 10.1298C22.2689 9.03933 22.1662 7.94805 21.9183 6.8775C21.9025 6.78766 21.9183 6.67985 21.9289 6.65289C21.9605 6.62145 22.0607 6.65289 22.1134 6.57652C22.1926 6.50914 21.9025 5.94762 21.7443 5.73649C21.6916 5.63766 21.6652 5.57477 21.5703 5.74547C21.4557 5.93383 21.4012 6.14448 21.4121 6.35641C21.6283 7.63668 21.6968 8.75523 21.834 10.0355C21.8498 10.1613 21.8287 10.341 21.7285 10.4129C21.3306 10.7903 20.8436 11.0918 20.2994 11.2978ZM26.4429 11.2933C26.116 11.455 26.116 11.6392 26.3797 11.6437C26.8332 11.5988 27.3711 11.5673 27.7402 11.0912C27.8706 10.8669 27.946 10.6223 27.9617 10.3724C28.0281 9.2987 27.9449 8.22205 27.7138 7.165C27.7033 7.07516 27.6558 6.86402 27.6717 6.83707C27.7033 6.77418 27.8509 6.84156 27.9037 6.76969C27.9775 6.70231 27.5187 6.19918 27.3552 5.98356C27.3025 5.88473 27.2814 5.82184 27.1812 5.99254C27.075 6.18263 27.0418 6.39639 27.0863 6.60348C27.3289 7.99606 27.5082 9.03824 27.5451 10.2691C27.524 10.3859 27.5187 10.4488 27.4554 10.597C27.3131 10.7498 27.1549 10.9474 27.0072 11.0418C26.8595 11.1316 26.5431 11.2214 26.4429 11.2933Z" fill="white"/>
<path fill-rule="evenodd" clip-rule="evenodd" d="M26.6853 10.049C26.6853 9.72103 26.6905 9.44251 26.68 9.19544C26.6766 8.98619 26.6227 8.77978 26.5218 8.589C26.4269 8.40482 26.4849 8.25657 26.4374 8.05892C26.3952 7.86126 26.4058 7.56478 26.3425 7.33568C26.3214 7.24583 26.2687 6.95384 26.2845 6.92239C26.3108 6.8595 26.411 6.92239 26.4638 6.85052C26.5376 6.78314 26.2001 6.04193 26.0314 5.83079C25.9733 5.73646 25.8573 5.7679 25.7255 5.92064C25.5937 6.02396 25.6411 6.25306 25.6939 6.47318C26.0155 7.92415 26.2634 9.24036 26.2106 10.6195C26.1896 10.7363 26.6853 10.2691 26.6853 10.049ZM24.2753 8.25208C24.0696 8.2431 23.6425 7.90618 23.5159 7.71302C23.4952 7.66581 23.4864 7.61542 23.49 7.56511C23.4936 7.51481 23.5097 7.46572 23.537 7.42103C23.6161 7.37611 23.7321 7.33118 23.8218 7.37611C23.8218 7.37611 23.9114 7.48392 23.8956 7.49739C24.0011 7.54232 24.0538 7.51986 24.0644 7.47943C24.0696 7.41204 24.0327 7.37161 24.0327 7.29974C24.0802 7.0931 24.3491 7.06165 24.4546 7.19193C24.5284 7.27279 24.5601 7.439 24.5653 7.5513C24.5653 7.6097 24.4599 7.54232 24.3913 7.5513C24.3333 7.56927 24.3175 7.63216 24.3122 7.68607C24.3017 7.83431 24.2806 8.07239 24.2753 8.24759V8.25208ZM20.489 10.4083C20.5417 9.9681 20.4679 9.18196 20.4626 8.92142C20.4344 8.25135 20.3693 7.58277 20.2675 6.9179C20.2042 6.54056 20.4468 6.95833 20.4151 6.73821C20.336 6.36536 20.0935 6.10931 19.8034 5.77239C19.7138 5.66009 19.7138 5.63763 19.5714 5.79935C19.4132 6.10032 19.5503 6.31146 19.5925 6.54954C19.7981 7.3222 19.9194 8.03196 19.9774 8.73724C20.0382 9.46988 20.0452 10.205 19.9985 10.9384C20.1567 10.9429 20.3993 10.7273 20.489 10.4083Z" fill="white"/>
<path fill-rule="evenodd" clip-rule="evenodd" d="M27.3866 9.70323C27.0228 9.18214 26.4796 8.62511 26.332 8.41397C25.843 7.83227 25.3294 7.26588 24.7921 6.71593C24.3439 6.31163 25.0031 6.64854 24.7077 6.33409C24.4599 6.10499 24.3913 6.02862 24.1751 5.88936C24.0697 5.83097 24.0064 5.71866 23.9642 5.91182C23.9474 6.07914 23.9439 6.24723 23.9536 6.41495C23.9536 6.49132 24.0486 6.63956 24.1329 6.7294C25.2245 7.87491 26.4216 9.04288 27.3814 10.5118C27.5185 10.4534 27.471 9.79308 27.3814 9.70323H27.3866Z" fill="white"/>
<path fill-rule="evenodd" clip-rule="evenodd" d="M10.9653 8.74636C10.9389 8.78679 10.8809 8.8362 10.902 8.88561C10.9389 8.93054 10.9758 8.94401 11.0391 8.94401C11.0971 8.94401 11.1815 8.95749 11.1973 8.93054C11.2289 8.89909 11.25 8.84069 11.2289 8.78229C11.1657 8.64753 10.9969 8.70143 10.9653 8.74636Z" fill="#1BA400"/>
<path fill-rule="evenodd" clip-rule="evenodd" d="M23.1789 16.2843C23.6641 16.3022 23.9805 16.3067 24.4076 16.3472L24.9139 16.3022C25.4729 16.2573 25.4939 16.9806 25.4939 16.9806C25.4939 17.4073 25.2988 17.4298 25.051 17.4747C24.9086 17.4927 24.84 17.4028 24.7609 17.313C24.6417 17.3456 24.5146 17.3517 24.3918 17.331C24.1861 17.322 23.9857 17.322 23.7854 17.3085C23.5744 17.295 23.4584 17.331 23.2422 17.313C23.2 17.3714 23.1367 17.4522 23.0102 17.4298C22.9047 17.4163 22.7729 17.1603 22.8098 16.9581C22.8889 16.8144 22.8625 16.8638 22.8625 16.8009C20.8797 16.756 18.8811 16.6796 16.9404 16.7021C15.4217 16.7065 13.924 16.7604 12.4211 16.8144C11.6195 16.8054 11.0078 16.6976 10.5859 16.172C10.6281 16.172 12.632 16.2663 13.2174 16.2349C14.2984 16.2259 15.2898 16.1495 16.392 16.1226C18.5646 16.154 20.7215 16.154 22.8941 16.2843C22.6832 16.163 22.6832 15.88 22.9996 15.8081C23.026 15.7901 23.0418 15.9474 23.0893 15.9429C23.3477 15.9294 23.2316 16.2259 23.1789 16.2843ZM14.4461 6.07803C14.1191 6.87764 14.6359 7.75811 14.9945 7.67275C15.2582 7.7626 15.4164 7.34033 15.5219 6.88213C15.601 6.75186 15.6537 6.73838 15.6906 6.80576C15.6801 7.4167 15.7434 7.55596 15.9279 7.74014C16.3393 8.00967 16.682 7.77607 16.7084 7.75361L17.0248 7.47959C17.0986 7.41221 17.1936 7.41221 17.2937 7.46611C17.3939 7.54248 17.3781 7.67275 17.5891 7.7626C17.7684 7.82549 18.1428 7.78057 18.2324 7.65029C18.3484 7.4751 18.3801 7.4167 18.4328 7.35381C18.5172 7.25947 18.6596 7.2999 18.6596 7.33135C18.6438 7.38525 18.5594 7.43467 18.6174 7.5335C18.7229 7.59639 18.7439 7.55596 18.802 7.54248C19.0129 7.45264 19.1711 7.06631 19.1711 7.06631C19.1764 6.92256 19.0814 6.93154 19.0182 6.96748L18.8547 7.06182C18.7492 7.07529 18.5541 7.13369 18.4539 7.00342C18.3537 6.85068 18.3537 6.63057 18.2799 6.47334C18.2799 6.46436 18.1428 6.22627 18.2693 6.21279C18.3326 6.22178 18.4645 6.25322 18.4855 6.15889C18.5488 6.06455 18.3484 5.79951 18.2061 5.66475C18.0848 5.55244 17.916 5.53897 17.7525 5.65576C17.6365 5.74561 17.6523 5.84443 17.6312 5.93877C17.6112 6.00637 17.6104 6.07706 17.6287 6.145C17.647 6.21295 17.6841 6.27621 17.7367 6.32959C17.8527 6.51826 18.0584 6.76533 17.9898 7.11572C17.9898 7.11572 17.8686 7.27744 17.6576 7.25498C17.568 7.2415 17.4256 7.21006 17.3518 6.7249C17.2937 6.36553 17.3623 5.85342 17.183 5.61533C17.1145 5.46709 17.067 5.32783 16.9088 5.5749C16.8666 5.67373 16.682 5.82197 16.8139 6.12295C16.9386 6.39417 16.9751 6.68906 16.9193 6.97647C16.8402 7.07529 16.8244 7.10674 16.7242 7.20107C16.5871 7.33584 16.4342 7.2999 16.3182 7.25049C16.2127 7.19209 16.1283 7.16064 16.0756 6.9585C16.0861 6.64404 16.1072 6.12744 16.0387 6.01963C15.9385 5.84893 15.775 5.91182 15.7064 5.96572C15.3927 6.26259 15.1827 6.62823 15.1 7.02139C15.0051 7.28193 14.9049 7.20557 14.8363 7.10225C14.6676 6.96748 14.6518 5.90283 14.4461 6.07803Z" fill="white"/>
<path fill-rule="evenodd" clip-rule="evenodd" d="M15.4375 7.82101C15.5904 7.73117 15.5218 7.66828 15.7433 7.85695C16.0292 8.28784 16.1952 8.76887 16.2285 9.26301C16.2179 9.3798 16.3129 9.45168 16.3603 9.42472C16.3814 9.15519 17.1566 8.77785 17.8685 8.72394C17.974 8.70148 17.9213 8.52629 17.9371 8.43644C17.8949 8.09953 18.1586 7.79406 18.5277 7.7716C19.0339 7.83449 19.2027 8.06359 19.2132 8.40949C19.1552 9.08332 18.3326 9.19562 17.8738 9.24953C17.8052 9.27199 17.7736 9.29894 17.8738 9.33039L19.8039 9.33937L19.9041 9.38429C19.9146 9.42922 19.8724 9.39328 19.7986 9.50109C19.6924 9.65998 19.626 9.83587 19.6035 10.0177C19.0287 10.1794 18.4328 10.2423 17.8316 10.3097C17.6207 10.3995 17.5152 10.5208 17.5574 10.6556C17.6312 10.8038 18.0953 10.9566 18.0953 10.9611C18.1849 11.006 18.2851 11.1183 18.0689 11.3474C17.1302 11.3114 16.3972 10.97 16.1441 10.4894C16.0703 10.44 15.9859 10.4894 15.9332 10.5523C15.564 10.9566 15.2054 11.3159 14.5779 11.5136C14.2088 11.5944 13.8238 11.4642 13.6445 11.2575C13.5232 11.1362 13.5285 11.006 13.4863 10.979C13.2806 11.0554 11.5404 11.6843 11.7619 11.3878C12.1838 11.006 12.922 10.7185 13.5654 10.3411C13.6129 10.2109 13.6972 9.77961 13.9504 9.64035C13.9662 9.64035 13.9134 9.89191 13.9187 9.99972C13.9187 10.0896 13.9082 10.121 13.9293 10.0986C13.9767 10.0761 14.7572 9.55051 14.8257 9.38879C14.8996 9.29894 14.8416 9.06535 14.8416 9.05637C14.6939 8.73293 14.4882 8.70597 14.4144 8.54426C14.3459 8.33312 14.3775 8.09054 14.5199 8.01867C14.6464 7.92433 14.7941 7.93332 14.9365 8.04113C15.0947 8.16242 15.2318 8.40051 15.274 8.5757C15.2476 8.64308 15.063 8.53078 15.0103 8.56222C15.1118 8.66159 15.1793 8.78279 15.2054 8.91261C15.3109 9.28097 15.2793 9.42472 15.1738 9.66281C14.8257 10.2872 14.3828 10.4714 13.9925 10.705C13.982 10.705 13.9767 10.8622 14.1191 10.9476C14.1718 10.9925 14.3775 11.015 14.6148 10.9476C15.1218 10.7077 15.5317 10.3429 15.7908 9.9009C15.8356 9.56459 15.7924 9.22401 15.6642 8.90363C15.5113 8.60265 15.332 8.1759 15.332 8.16691C15.3267 7.97824 15.3425 7.91535 15.4375 7.82101ZM10.3855 6.08703C10.607 6.17687 11.0289 6.13644 11.0078 5.83097L10.9972 5.69172C10.955 5.60187 10.8285 5.62433 10.8021 5.71418C10.7916 5.74562 10.8179 5.79504 10.7863 5.80851C10.7652 5.82648 10.6966 5.8175 10.6966 5.73215C10.6966 5.70519 10.6756 5.67824 10.6597 5.66027C10.6492 5.65129 10.6386 5.65129 10.6123 5.65129C10.5806 5.65129 10.5806 5.65578 10.5648 5.67824C10.5595 5.7007 10.549 5.72316 10.549 5.75011C10.549 5.78156 10.5279 5.79054 10.5068 5.79504C10.4752 5.79504 10.4804 5.79504 10.4541 5.78605C10.4435 5.77258 10.4277 5.76808 10.4277 5.74113L10.4119 5.66926C10.4013 5.65578 10.3802 5.64679 10.3591 5.6423C10.2379 5.6423 10.2273 5.76359 10.2379 5.80851C10.2273 5.8175 10.222 6.02863 10.3855 6.08703Z" fill="white"/>
<path fill-rule="evenodd" clip-rule="evenodd" d="M16.8979 8.4318C17.1194 8.52164 17.652 8.47223 17.5202 8.18024L17.5096 8.03648C17.4622 7.94664 17.3409 7.9691 17.3145 8.06344C17.304 8.09039 17.3304 8.13981 17.2934 8.15328C17.2776 8.17125 17.2038 8.16227 17.2091 8.08141C17.2091 8.05445 17.188 8.02301 17.1721 8.00504C17.1563 8.00055 17.1511 7.99606 17.1194 7.99606C17.093 7.99606 17.093 8.00504 17.0772 8.0275C17.0667 8.04996 17.0614 8.07242 17.0614 8.09938C17.0561 8.12633 17.0403 8.13531 17.0139 8.1443C16.9876 8.1443 16.9929 8.1443 16.9718 8.13082C16.9559 8.11734 16.9401 8.11285 16.9401 8.09039L16.9243 8.01852C16.9138 8.00504 16.8927 7.99605 16.8716 7.99156C16.7503 7.99156 16.7397 8.10836 16.745 8.15328C16.7397 8.16227 16.7345 8.37789 16.9032 8.4318H16.8979ZM20.6948 7.46149C20.9163 7.55133 21.3329 7.5109 21.3171 7.20992L21.3065 7.06617C21.2591 6.97633 21.1378 6.99879 21.1114 7.08863C21.1009 7.12008 21.1272 7.16949 21.0903 7.18746C21.0745 7.20094 21.0007 7.19195 21.0059 7.1066C21.0059 7.07965 20.9848 7.0527 20.969 7.03473C20.9532 7.02574 20.9479 7.02574 20.9163 7.02574C20.8899 7.02574 20.8899 7.03473 20.8741 7.05719L20.8583 7.12457C20.853 7.15602 20.8372 7.16949 20.8108 7.16949C20.7845 7.16949 20.7897 7.16949 20.7686 7.16051C20.7528 7.14703 20.737 7.14254 20.737 7.12008C20.737 7.09762 20.7317 7.06168 20.7212 7.04371C20.7106 7.03024 20.6895 7.02574 20.6684 7.02125C20.5471 7.02125 20.5366 7.13805 20.5419 7.18297C20.5366 7.19195 20.5313 7.40309 20.7001 7.46149H20.6948ZM22.6618 9.90074C22.2768 10.2736 22.4456 10.889 22.5352 11.0238C22.6618 11.2394 22.762 11.3787 23.0098 11.4865C23.2366 11.6257 23.4159 11.5404 23.5108 11.4416C23.7376 11.2394 23.7429 10.7228 23.8483 10.624C23.9221 10.4353 24.112 10.4668 24.2016 10.5521C24.2855 10.6535 24.3979 10.7354 24.5286 10.7902C24.7395 10.9474 24.9927 10.9789 25.2458 10.8351C25.4145 10.7498 25.5253 10.6464 25.6255 10.4353C25.7309 10.1838 25.6782 9.01578 25.6518 8.32398L25.4304 7.35816C25.4304 7.34918 25.404 6.89996 25.3776 6.79664C25.3776 6.75172 25.3618 6.73824 25.4145 6.74274C25.4725 6.78766 25.4778 6.78766 25.52 6.80113C25.5727 6.81012 25.6255 6.72477 25.5886 6.65289L25.0612 5.81734C25.019 5.78141 24.961 5.74547 24.8925 5.82633C24.852 5.85752 24.8198 5.89568 24.798 5.93827C24.7762 5.98087 24.7652 6.02693 24.7659 6.0734C24.7817 6.27106 24.8186 6.4732 24.8345 6.67086L25.0454 7.68609C25.1139 8.40484 25.1298 8.99781 25.1983 9.72105C25.1878 10.0265 25.077 10.2916 24.9716 10.332C24.9716 10.332 24.8134 10.4084 24.7079 10.323C24.6288 10.2961 24.3177 9.87828 24.3177 9.87828C24.1595 9.75699 24.054 9.78844 23.9432 9.87828C23.6268 10.1388 23.4897 10.615 23.2735 10.9474C23.2208 11.0238 23.0626 11.0822 22.8938 10.9429C22.4614 10.4353 22.7145 9.71656 22.6618 9.90074ZM20.795 5.69156C20.9954 5.75895 21.1325 6.10484 21.0903 6.27555C21.0481 6.4777 20.9427 6.70231 20.8688 6.67535C20.7845 6.6484 20.9216 6.46871 20.8425 6.28004C20.8003 6.15426 20.5261 5.92965 20.5577 5.86676C20.505 5.7275 20.6737 5.66461 20.795 5.68707V5.69156Z" fill="white"/>
<path fill-rule="evenodd" clip-rule="evenodd" d="M23.305 10.1073C23.342 9.69405 23.2734 9.44249 23.2629 9.19991C23.2523 8.95733 22.9412 7.10655 22.8779 6.92686C22.7988 6.57647 23.1785 6.88194 23.1363 6.6753C23.0045 6.42374 22.6828 6.05088 22.5826 5.83077C22.5193 5.74092 22.5457 5.65108 22.4086 5.80831C22.2905 6.08397 22.249 6.37919 22.2873 6.67081C22.6142 8.12178 22.9464 9.32569 22.8937 10.7048C23.0519 10.7048 23.2259 10.4038 23.305 10.1073ZM26.7011 6.27549C26.8857 6.35186 26.9912 6.78311 26.9701 6.9044C26.9332 7.12901 26.8382 7.37159 26.7697 7.34014C26.6906 7.31319 26.7855 7.00772 26.7486 6.91338C26.7064 6.77862 26.4586 6.53604 26.4849 6.46417C26.4322 6.31143 26.5904 6.24854 26.7011 6.27549ZM13.217 9.32569C13.391 9.38409 13.4965 9.69854 13.4806 9.78838C13.4384 9.9546 13.3488 10.1343 13.2802 10.1073C13.2117 10.0894 13.2961 9.86475 13.2644 9.79288C13.2486 9.62667 13.006 9.53682 13.0113 9.46495C12.9691 9.33018 13.1168 9.30772 13.2222 9.32569H13.217Z" fill="white"/>
<path fill-rule="evenodd" clip-rule="evenodd" d="M17.4147 9.80205C17.6362 9.81104 17.7469 9.96377 17.5412 10.0267C17.3303 10.0851 17.1352 10.1345 17.1299 10.386C17.209 10.7454 17.0244 10.6196 16.919 10.5747C16.7924 10.4938 16.4338 10.3052 16.3811 9.90088C16.3758 9.80654 16.4655 9.72119 16.6078 9.72119C16.8188 9.77061 17.1352 9.7751 17.4147 9.80205Z" fill="#1B9D00"/>
<path fill-rule="evenodd" clip-rule="evenodd" d="M8.58176 5.58836C8.83488 5.65125 8.8507 5.97469 8.83488 6.06903C8.79797 6.23973 8.70832 6.42391 8.64504 6.40145C8.57121 6.37899 8.64504 6.14539 8.60813 6.07352C8.57121 5.97469 8.355 5.78602 8.37609 5.73211C8.32863 5.61981 8.48156 5.5659 8.58176 5.58836ZM13.639 7.09774C13.4386 7.18758 13.3648 7.45711 13.4861 7.61883C13.6021 7.7536 13.7814 7.70418 13.8025 7.70418C13.9976 7.72215 14.1136 7.39422 14.1136 7.39422C14.1136 7.39422 14.1189 7.30438 13.8921 7.47957C13.7919 7.49305 13.7866 7.46161 13.7603 7.41668C13.7361 7.33116 13.7454 7.24126 13.7866 7.16063C13.8236 7.07977 13.7497 7.04383 13.639 7.09774ZM15.1155 5.46258C15.0101 5.52098 14.815 5.69618 14.8097 5.89383C14.8044 6.00614 14.778 6.00614 14.8624 6.07352C14.931 6.15438 14.989 6.14989 15.1155 6.09149C15.1471 6.07458 15.1741 6.05227 15.195 6.02597C15.2159 5.99968 15.2301 5.96998 15.2368 5.93875C15.2685 5.81297 15.0786 6.00164 15.0575 5.85789C15.0154 5.72313 15.1366 5.66922 15.2527 5.54344C15.2527 5.4536 15.2527 5.3952 15.1103 5.46258H15.1155ZM16.2968 5.64227C16.2503 5.80585 16.2221 5.9728 16.2124 6.1409C16.1808 6.26668 16.3706 6.32059 16.4497 6.15887C16.5763 5.86688 16.5763 5.7411 16.5868 5.61981C16.5499 5.42664 16.397 5.43114 16.2968 5.64227ZM23.7851 8.89012C23.8062 8.86766 24.8398 8.24325 24.8398 8.24325C24.9452 8.2118 24.9189 8.56668 24.8714 8.56219C24.5509 8.82535 24.1822 9.04231 23.7798 9.20457C23.7271 9.23602 23.6796 8.96649 23.7798 8.89012H23.7851ZM24.7185 8.88114C24.903 8.9575 24.9769 9.41121 24.9558 9.5325C24.9558 9.77508 24.7818 9.96375 24.7079 9.9368C24.6341 9.90535 24.7185 9.63582 24.6816 9.54149C24.6394 9.40672 24.4864 9.15965 24.5128 9.08778C24.4601 8.93504 24.6077 8.85418 24.7237 8.88114H24.7185ZM18.6013 10.8307C18.6868 10.7457 18.7863 10.6716 18.8966 10.6106C19.0021 10.5657 19.097 10.6466 19.0917 10.6421C19.1075 10.7319 19.0284 10.8083 19.0548 10.9251C19.0759 10.97 19.0917 11.0239 19.1919 11.0059C19.3554 10.8936 19.5083 10.8847 19.6665 10.8802C19.7984 10.8847 19.8036 11.0688 19.7193 11.0688C19.4187 11.1227 19.2868 11.1946 19.0706 11.262C18.9652 11.3159 18.8808 11.2485 18.8808 11.244C18.8808 11.2395 18.8228 11.1946 18.8597 11.0778C18.8702 10.988 18.828 10.9341 18.7331 10.9431C18.6698 10.979 18.6066 10.997 18.5749 10.9296C18.5591 10.8847 18.5538 10.8577 18.6013 10.8307ZM25.8048 11.0733C25.847 11.1182 25.8786 11.1632 25.7995 11.244L25.6044 11.3878C25.5728 11.4327 25.5517 11.5136 25.6571 11.536C25.847 11.5809 26.29 11.3339 26.29 11.3294C26.3638 11.2845 26.3427 11.1946 26.3321 11.1946C26.29 11.1542 26.195 11.1811 26.1318 11.1722C26.1001 11.1722 25.9999 11.1632 26.0474 11.0823C26.0828 11.0426 26.1112 10.9987 26.1318 10.952C26.1581 10.8981 26.1318 10.8622 26.0263 10.8307C25.9155 10.8128 25.8681 10.8218 25.7468 10.8307C25.6835 10.8397 25.6624 10.8667 25.6466 10.9341C25.6519 11.0374 25.7257 11.0329 25.8048 11.0688V11.0733Z" fill="white"/>
<path fill-rule="evenodd" clip-rule="evenodd" d="M18.6383 8.52169C18.6119 8.56662 18.517 8.56662 18.4274 8.52169C18.3377 8.47677 18.285 8.4049 18.3166 8.36447C18.3483 8.32404 18.4379 8.32404 18.5276 8.36447C18.6172 8.4049 18.6647 8.48126 18.6383 8.52169ZM13.9449 6.11388C13.8922 6.12736 13.8184 6.08693 13.7867 6.02404C13.7551 5.96115 13.7709 5.90724 13.8237 5.89376C13.8764 5.88029 13.9449 5.92521 13.9819 5.98361C14.0188 6.04201 13.9977 6.1049 13.9397 6.11837L13.9449 6.11388Z" fill="#259F00"/>
<path fill-rule="evenodd" clip-rule="evenodd" d="M23.2316 16.8457C23.7273 16.8637 24.1914 16.8457 24.6818 16.8682C24.7714 16.9355 24.7082 17.0928 24.6501 17.0838L24.2388 17.0703C24.2335 16.9355 23.8328 16.958 23.8433 17.0748C23.6271 17.0973 23.432 17.0703 23.2105 17.0613C23.1472 16.9939 23.1578 16.8727 23.2316 16.8457Z" fill="#209000"/>
</g>
<defs>
<clipPath id="clip0_45_4391">
<rect width="36" height="23" fill="white"/>
</clipPath>
</defs>
</svg>
