<svg width="15" height="15" viewBox="0 0 15 15" fill="none" xmlns="http://www.w3.org/2000/svg">
<path fill-rule="evenodd" clip-rule="evenodd" d="M6.92793 1.76084C4.22173 1.76084 2.02793 3.95464 2.02793 6.66084C2.02793 9.36704 4.22173 11.5608 6.92793 11.5608C9.63413 11.5608 11.8279 9.36704 11.8279 6.66084C11.8279 3.95464 9.63413 1.76084 6.92793 1.76084ZM0.62793 6.66084C0.62793 3.18145 3.44854 0.36084 6.92793 0.36084C10.4073 0.36084 13.2279 3.18145 13.2279 6.66084C13.2279 10.1402 10.4073 12.9608 6.92793 12.9608C3.44854 12.9608 0.62793 10.1402 0.62793 6.66084Z" fill="black"/>
<path fill-rule="evenodd" clip-rule="evenodd" d="M10.3879 10.1209C10.6613 9.84749 11.1045 9.84749 11.3778 10.1209L14.4228 13.1659C14.6962 13.4392 14.6962 13.8824 14.4228 14.1558C14.1495 14.4292 13.7063 14.4292 13.4329 14.1558L10.3879 11.1108C10.1145 10.8374 10.1145 10.3942 10.3879 10.1209Z" fill="black"/>
</svg>
