<svg width="19" height="19" viewBox="0 0 19 19" fill="none" xmlns="http://www.w3.org/2000/svg">
    <path fill-rule="evenodd" clip-rule="evenodd" d="M17.5303 1.46967C17.8232 1.76256 17.8232 2.23744 17.5303 2.53033L9.28033 10.7803C8.98744 11.0732 8.51256 11.0732 8.21967 10.7803C7.92678 10.4874 7.92678 10.0126 8.21967 9.71967L16.4697 1.46967C16.7626 1.17678 17.2374 1.17678 17.5303 1.46967Z" fill="white" />
    <path fill-rule="evenodd" clip-rule="evenodd" d="M17.5303 1.46969C17.7341 1.67342 17.8031 1.97584 17.7079 2.24778L12.4579 17.2478C12.3563 17.538 12.0878 17.7369 11.7806 17.7494C11.4733 17.7619 11.1895 17.5856 11.0646 17.3046L8.1818 10.8182L1.6954 7.93538C1.41439 7.81049 1.23809 7.52671 1.25063 7.21945C1.26316 6.91219 1.46199 6.64371 1.75224 6.54213L16.7522 1.29213C17.0242 1.19695 17.3266 1.26596 17.5303 1.46969ZM4.03331 7.33297L9.05461 9.56466C9.22428 9.64007 9.35995 9.77574 9.43536 9.94542L11.667 14.9667L15.7775 3.2225L4.03331 7.33297Z" fill="white" />
</svg>
    