<svg width="78" height="78" viewBox="0 0 78 78" fill="none" xmlns="http://www.w3.org/2000/svg">
<g filter="url(#filter0_d_29243_1168)">
<rect x="24" y="16" width="30" height="30" rx="15" fill="#7CB118"/>
</g>
<path d="M42.8498 32.7143C42.5264 32.7167 42.2078 32.7923 41.9178 32.9356C41.6278 33.0788 41.3739 33.286 41.1754 33.5414L37.2012 31.5529C37.2523 31.3729 37.2797 31.1871 37.2825 31C37.2797 30.813 37.2523 30.6271 37.2012 30.4472L41.1754 28.4586C41.3739 28.714 41.6278 28.9212 41.9178 29.0644C42.2078 29.2077 42.5264 29.2833 42.8498 29.2857C43.2734 29.2857 43.6873 29.16 44.0395 28.9246C44.3916 28.6891 44.6661 28.3545 44.8281 27.9629C44.9902 27.5713 45.0326 27.1405 44.95 26.7248C44.8674 26.3091 44.6634 25.9273 44.364 25.6276C44.0645 25.3279 43.683 25.1239 43.2676 25.0412C42.8522 24.9585 42.4217 25.0009 42.0304 25.1631C41.6392 25.3253 41.3047 25.6 41.0694 25.9524C40.8342 26.3047 40.7086 26.719 40.7086 27.1429C40.7115 27.3299 40.7388 27.5158 40.7899 27.6957L36.8157 29.6843C36.6172 29.4288 36.3634 29.2217 36.0734 29.0784C35.7833 28.9352 35.4647 28.8595 35.1413 28.8571C34.5734 28.8571 34.0287 29.0829 33.6272 29.4848C33.2256 29.8866 33 30.4317 33 31C33 31.5683 33.2256 32.1134 33.6272 32.5152C34.0287 32.9171 34.5734 33.1429 35.1413 33.1429C35.4647 33.1405 35.7833 33.0648 36.0734 32.9216C36.3634 32.7783 36.6172 32.5712 36.8157 32.3157L40.7899 34.3043C40.6744 34.7372 40.6974 35.1954 40.8557 35.6145C41.0139 36.0336 41.2994 36.3926 41.6721 36.6409C42.0448 36.8891 42.4858 37.0143 42.9333 36.9987C43.3807 36.9831 43.812 36.8276 44.1665 36.5539C44.521 36.2803 44.7809 35.9023 44.9096 35.4732C45.0383 35.0441 45.0294 34.5854 44.8841 34.1616C44.7387 33.7378 44.4643 33.3703 44.0995 33.1107C43.7346 32.8511 43.2975 32.7124 42.8498 32.7143V32.7143ZM42.8498 25.8571C43.104 25.8571 43.3523 25.9326 43.5636 26.0738C43.7749 26.2151 43.9396 26.4159 44.0368 26.6508C44.1341 26.8858 44.1595 27.1443 44.1099 27.3937C44.0604 27.6431 43.938 27.8722 43.7583 28.052C43.5786 28.2318 43.3497 28.3543 43.1005 28.4039C42.8513 28.4535 42.593 28.428 42.3582 28.3307C42.1234 28.2334 41.9228 28.0686 41.7816 27.8572C41.6404 27.6457 41.5651 27.3972 41.5651 27.1429C41.5651 26.8019 41.7004 26.4748 41.9414 26.2337C42.1823 25.9926 42.5091 25.8571 42.8498 25.8571V25.8571ZM35.1413 32.2857C34.8872 32.2857 34.6388 32.2103 34.4275 32.069C34.2162 31.9278 34.0515 31.727 33.9543 31.492C33.8571 31.2571 33.8316 30.9986 33.8812 30.7492C33.9308 30.4998 34.0531 30.2707 34.2328 30.0909C34.4125 29.9111 34.6414 29.7886 34.8906 29.739C35.1398 29.6894 35.3982 29.7148 35.6329 29.8122C35.8677 29.9095 36.0683 30.0743 36.2095 30.2857C36.3507 30.4971 36.426 30.7457 36.426 31C36.426 31.341 36.2907 31.668 36.0497 31.9091C35.8088 32.1503 35.482 32.2857 35.1413 32.2857ZM42.8498 36.1429C42.5957 36.1429 42.3474 36.0675 42.1361 35.9262C41.9248 35.7849 41.7601 35.5841 41.6629 35.3492C41.5656 35.1142 41.5402 34.8557 41.5898 34.6063C41.6393 34.3569 41.7617 34.1278 41.9414 33.948C42.1211 33.7682 42.35 33.6458 42.5992 33.5961C42.8484 33.5465 43.1067 33.572 43.3415 33.6693C43.5763 33.7666 43.7769 33.9314 43.9181 34.1429C44.0593 34.3543 44.1346 34.6029 44.1346 34.8572C44.1346 35.1982 43.9993 35.5252 43.7583 35.7663C43.5174 36.0074 43.1906 36.1429 42.8498 36.1429V36.1429Z" fill="white"/>
<defs>
<filter id="filter0_d_29243_1168" x="0" y="0" width="78" height="78" filterUnits="userSpaceOnUse" color-interpolation-filters="sRGB">
<feFlood flood-opacity="0" result="BackgroundImageFix"/>
<feColorMatrix in="SourceAlpha" type="matrix" values="0 0 0 0 0 0 0 0 0 0 0 0 0 0 0 0 0 0 127 0" result="hardAlpha"/>
<feOffset dy="8"/>
<feGaussianBlur stdDeviation="12"/>
<feComposite in2="hardAlpha" operator="out"/>
<feColorMatrix type="matrix" values="0 0 0 0 0 0 0 0 0 0 0 0 0 0 0 0 0 0 0.16 0"/>
<feBlend mode="normal" in2="BackgroundImageFix" result="effect1_dropShadow_29243_1168"/>
<feBlend mode="normal" in="SourceGraphic" in2="effect1_dropShadow_29243_1168" result="shape"/>
</filter>
</defs>
</svg>
