<svg width="35" height="34" viewBox="0 0 35 34" fill="none" xmlns="http://www.w3.org/2000/svg">
<path d="M28.32 21.8572C27.4037 21.8639 26.5008 22.0782 25.6791 22.4841C24.8574 22.89 24.1383 23.4769 23.5757 24.2008L12.3154 18.5665C12.4603 18.0566 12.5378 17.53 12.546 17C12.5378 16.4701 12.4603 15.9434 12.3154 15.4336L23.5757 9.7993C24.1383 10.5231 24.8574 11.11 25.6791 11.5159C26.5008 11.9218 27.4037 12.1362 28.32 12.1429C29.5199 12.1429 30.6929 11.7868 31.6906 11.1197C32.6883 10.4525 33.4659 9.50429 33.9251 8.39488C34.3843 7.28547 34.5045 6.0647 34.2704 4.88696C34.0363 3.70922 33.4585 2.62739 32.61 1.77829C31.7615 0.92918 30.6805 0.350931 29.5036 0.116664C28.3267 -0.117604 27.1069 0.00263066 25.9983 0.462163C24.8897 0.921696 23.9422 1.69989 23.2755 2.69833C22.6089 3.69677 22.2531 4.87062 22.2531 6.07144C22.2613 6.60142 22.3388 7.12804 22.4836 7.63787L11.2234 13.2722C10.6608 12.5483 9.94164 11.9614 9.11995 11.5556C8.29825 11.1497 7.39536 10.9353 6.47904 10.9286C4.86999 10.9286 3.32684 11.5683 2.18907 12.7069C1.0513 13.8455 0.412109 15.3898 0.412109 17C0.412109 18.6103 1.0513 20.1546 2.18907 21.2932C3.32684 22.4318 4.86999 23.0715 6.47904 23.0715C7.39536 23.0647 8.29825 22.8504 9.11995 22.4445C9.94164 22.0386 10.6608 21.4517 11.2234 20.7279L22.4836 26.3622C22.1564 27.5886 22.2215 28.8869 22.6698 30.0744C23.1181 31.2619 23.9271 32.2789 24.983 32.9824C26.0389 33.6859 27.2886 34.0405 28.5564 33.9963C29.8241 33.9521 31.0461 33.5114 32.0505 32.7361C33.055 31.9608 33.7913 30.8899 34.156 29.6741C34.5207 28.4582 34.4954 27.1586 34.0836 25.9579C33.6719 24.7572 32.8944 23.7158 31.8606 22.9802C30.8267 22.2447 29.5885 21.8519 28.32 21.8572ZM28.32 2.42858C29.04 2.42858 29.7438 2.64223 30.3424 3.04251C30.941 3.44279 31.4076 4.01173 31.6831 4.67738C31.9586 5.34302 32.0307 6.07548 31.8902 6.78213C31.7498 7.48877 31.4031 8.13787 30.894 8.64733C30.3849 9.1568 29.7363 9.50375 29.0302 9.64431C28.3241 9.78487 27.5921 9.71273 26.927 9.43701C26.2618 9.16129 25.6933 8.69437 25.2933 8.09531C24.8933 7.49624 24.6799 6.79193 24.6799 6.07144C24.6799 5.10529 25.0634 4.17872 25.746 3.49555C26.4287 2.81238 27.3546 2.42858 28.32 2.42858ZM6.47904 20.6429C5.75909 20.6429 5.0553 20.4292 4.45668 20.029C3.85806 19.6287 3.39149 19.0597 3.11597 18.3941C2.84046 17.7284 2.76837 16.996 2.90883 16.2893C3.04928 15.5827 3.39598 14.9336 3.90506 14.4241C4.41415 13.9147 5.06276 13.5677 5.76888 13.4272C6.47501 13.2866 7.20692 13.3587 7.87207 13.6345C8.53723 13.9102 9.10574 14.3771 9.50573 14.9762C9.90571 15.5752 10.1192 16.2795 10.1192 17C10.1192 17.9662 9.73569 18.8927 9.05303 19.5759C8.37037 20.2591 7.44448 20.6429 6.47904 20.6429ZM28.32 31.5715C27.6001 31.5715 26.8963 31.3578 26.2976 30.9575C25.699 30.5573 25.2325 29.9883 24.9569 29.3227C24.6814 28.657 24.6093 27.9246 24.7498 27.2179C24.8903 26.5113 25.2369 25.8622 25.746 25.3527C26.2551 24.8433 26.9037 24.4963 27.6099 24.3557C28.316 24.2152 29.0479 24.2873 29.713 24.563C30.3782 24.8388 30.9467 25.3057 31.3467 25.9047C31.7467 26.5038 31.9602 27.2081 31.9602 27.9286C31.9602 28.8948 31.5767 29.8213 30.894 30.5045C30.2113 31.1877 29.2854 31.5715 28.32 31.5715Z" fill="black"/>
</svg>
