<svg width="33" height="28" viewBox="0 0 33 28" fill="none" xmlns="http://www.w3.org/2000/svg">
    <path fill-rule="evenodd" clip-rule="evenodd" d="M7.5 25.1707C7.5 24.1372 8.39543 23.2993 9.5 23.2993C10.6046 23.2993 11.5 24.1372 11.5 25.1707C11.5 26.2043 10.6046 27.0421 9.5 27.0421C8.39543 27.0421 7.5 26.2043 7.5 25.1707Z" fill="black" />
    <path fill-rule="evenodd" clip-rule="evenodd" d="M18.5 25.1707C18.5 24.1372 19.3954 23.2993 20.5 23.2993C21.6046 23.2993 22.5 24.1372 22.5 25.1707C22.5 26.2043 21.6046 27.0421 20.5 27.0421C19.3954 27.0421 18.5 26.2043 18.5 25.1707Z" fill="black" />
    <path fill-rule="evenodd" clip-rule="evenodd" d="M0.5 6.4567C0.5 5.93992 0.947715 5.521 1.5 5.521H5.5C5.97663 5.521 6.38701 5.83575 6.48055 6.27306L7.32043 10.1995H23.5C23.798 10.1995 24.0805 10.3239 24.2705 10.5387C24.4605 10.7536 24.5381 11.0366 24.4823 11.3105L22.8809 19.168C22.7437 19.8142 22.368 20.3947 21.8195 20.8078C21.2738 21.2188 20.5916 21.4382 19.8914 21.4279H10.1886C9.48837 21.4382 8.8062 21.2188 8.26048 20.8078C7.71225 20.3948 7.33664 19.8147 7.19933 19.1688C7.19927 19.1685 7.19939 19.1691 7.19933 19.1688L5.52879 11.359C5.52201 11.3332 5.51638 11.3069 5.51195 11.2803L4.68032 7.3924H1.5C0.947715 7.3924 0.5 6.97347 0.5 6.4567ZM7.72073 12.0709L9.16084 18.8034C9.20656 19.0188 9.33179 19.2123 9.51461 19.35C9.69743 19.4877 9.92619 19.5609 10.1608 19.5567L10.18 19.5565H19.9L19.9192 19.5567C20.1538 19.5609 20.3826 19.4877 20.5654 19.35C20.7474 19.213 20.8723 19.0206 20.9185 18.8064L22.2913 12.0709H7.72073Z" fill="black" />
    <circle cx="24" cy="8.5" r="7.5" fill="#7CB118" stroke="white" stroke-width="2" />
    <path d="M24.03 12C23.898 12 23.788 11.956 23.7 11.868C23.612 11.78 23.568 11.6737 23.568 11.549V5.29L23.7 5.444L22.457 6.302C22.3837 6.35333 22.2993 6.379 22.204 6.379C22.0793 6.379 21.973 6.335 21.885 6.247C21.797 6.15167 21.753 6.04533 21.753 5.928C21.753 5.76667 21.83 5.63833 21.984 5.543L23.733 4.388C23.7917 4.35133 23.8503 4.32567 23.909 4.311C23.9677 4.29633 24.0263 4.29267 24.085 4.3C24.217 4.3 24.3197 4.344 24.393 4.432C24.4737 4.51267 24.514 4.61533 24.514 4.74V11.549C24.514 11.6737 24.4663 11.78 24.371 11.868C24.283 11.956 24.1693 12 24.03 12Z" fill="white" />
</svg>
    