<svg width="50" height="51" viewBox="0 0 50 51" fill="none" xmlns="http://www.w3.org/2000/svg">
<circle cx="25" cy="25.5" r="25" fill="#7CB118"/>
<path fill-rule="evenodd" clip-rule="evenodd" d="M30.9205 20.9318H36.3636C36.9886 20.9318 37.5 21.4432 37.5 22.0682L37.4659 22.375L34.5795 32.9091C34.3068 33.8636 33.4318 34.5682 32.3864 34.5682H17.6136C16.5682 34.5682 15.6932 33.8636 15.4318 32.9091L12.5455 22.375C12.5114 22.2727 12.5 22.1705 12.5 22.0682C12.5 21.4432 13.0114 20.9318 13.6364 20.9318H19.0795L24.0568 13.4886C24.2727 13.1591 24.6364 13 25 13C25.3636 13 25.7273 13.1591 25.9432 13.4773L30.9205 20.9318ZM28.182 20.9319L25.0002 16.1591L21.8184 20.9319H28.182ZM32.3864 32.2954L17.625 32.3068L15.125 23.2045H34.8864L32.3864 32.2954ZM22.7271 27.75C22.7271 26.5 23.7498 25.4773 24.9998 25.4773C26.2498 25.4773 27.2725 26.5 27.2725 27.75C27.2725 29 26.2498 30.0227 24.9998 30.0227C23.7498 30.0227 22.7271 29 22.7271 27.75Z" fill="white"/>
</svg>
