<svg width="26" height="26" viewBox="0 0 26 26" fill="none" xmlns="http://www.w3.org/2000/svg">
<path d="M10.6116 5.74536H16.9785V7.16024H10.6116V5.74536Z" fill="#7CB118"/>
<path d="M10.6116 8.57495H16.9785V9.98983H10.6116V8.57495Z" fill="#7CB118"/>
<path d="M10.6116 11.4049H16.9785V12.8198H10.6116V11.4049Z" fill="#7CB118"/>
<path d="M10.6116 14.2345H16.9785V15.6494H10.6116V14.2345Z" fill="#7CB118"/>
<path d="M10.6116 17.0645H16.9785V18.4793H10.6116V17.0645Z" fill="#7CB118"/>
<path d="M7.78174 5.74536H9.19661V7.16024H7.78174V5.74536Z" fill="#7CB118"/>
<path d="M7.78174 8.57495H9.19661V9.98983H7.78174V8.57495Z" fill="#7CB118"/>
<path d="M7.78174 11.4049H9.19661V12.8198H7.78174V11.4049Z" fill="#7CB118"/>
<path d="M7.78174 14.2345H9.19661V15.6494H7.78174V14.2345Z" fill="#7CB118"/>
<path d="M7.78174 17.0645H9.19661V18.4793H7.78174V17.0645Z" fill="#7CB118"/>
<mask id="path-11-inside-1_45_989" fill="white">
<path d="M19.8083 1.50061H5.65951C5.28426 1.50061 4.92438 1.64968 4.65904 1.91502C4.3937 2.18036 4.24463 2.54024 4.24463 2.91549V22.7238C4.24463 23.099 4.3937 23.4589 4.65904 23.7242C4.92438 23.9896 5.28426 24.1386 5.65951 24.1386H19.8083C20.1835 24.1386 20.5434 23.9896 20.8087 23.7242C21.0741 23.4589 21.2231 23.099 21.2231 22.7238V2.91549C21.2231 2.54024 21.0741 2.18036 20.8087 1.91502C20.5434 1.64968 20.1835 1.50061 19.8083 1.50061ZM19.8083 22.7238H5.65951V2.91549H19.8083V22.7238Z"/>
</mask>
<path d="M19.8083 1.50061V-1.49939V1.50061ZM5.65951 1.50061V-1.49939V1.50061ZM4.24463 2.91549H1.24463H4.24463ZM4.24463 22.7238H1.24463H4.24463ZM19.8083 22.7238V25.7238H22.8083V22.7238H19.8083ZM5.65951 22.7238H2.65951V25.7238H5.65951V22.7238ZM5.65951 2.91549V-0.0845133H2.65951V2.91549H5.65951ZM19.8083 2.91549H22.8083V-0.0845133H19.8083V2.91549ZM19.8083 -1.49939H5.65951V4.50061H19.8083V-1.49939ZM5.65951 -1.49939C4.48861 -1.49939 3.36567 -1.03425 2.53772 -0.206302L6.78036 4.03634C6.48309 4.33361 6.07991 4.50061 5.65951 4.50061V-1.49939ZM2.53772 -0.206302C1.70977 0.621648 1.24463 1.74459 1.24463 2.91549H7.24463C7.24463 3.33589 7.07763 3.73907 6.78036 4.03634L2.53772 -0.206302ZM1.24463 2.91549V22.7238H7.24463V2.91549H1.24463ZM1.24463 22.7238C1.24463 23.8947 1.70976 25.0176 2.53772 25.8455L6.78036 21.6029C7.07763 21.9002 7.24463 22.3034 7.24463 22.7238H1.24463ZM2.53772 25.8455C3.36567 26.6735 4.48861 27.1386 5.65951 27.1386V21.1386C6.0799 21.1386 6.48308 21.3056 6.78036 21.6029L2.53772 25.8455ZM5.65951 27.1386H19.8083V21.1386H5.65951V27.1386ZM19.8083 27.1386C20.9792 27.1386 22.1021 26.6735 22.9301 25.8455L18.6874 21.6029C18.9847 21.3056 19.3879 21.1386 19.8083 21.1386V27.1386ZM22.9301 25.8455C23.758 25.0176 24.2231 23.8947 24.2231 22.7238H18.2231C18.2231 22.3034 18.3901 21.9002 18.6874 21.6029L22.9301 25.8455ZM24.2231 22.7238V2.91549H18.2231V22.7238H24.2231ZM24.2231 2.91549C24.2231 1.74459 23.758 0.621647 22.9301 -0.206302L18.6874 4.03634C18.3901 3.73907 18.2231 3.33589 18.2231 2.91549H24.2231ZM22.9301 -0.206302C22.1021 -1.03425 20.9792 -1.49939 19.8083 -1.49939V4.50061C19.3879 4.50061 18.9847 4.33361 18.6874 4.03634L22.9301 -0.206302ZM19.8083 19.7238H5.65951V25.7238H19.8083V19.7238ZM8.65951 22.7238V2.91549H2.65951V22.7238H8.65951ZM5.65951 5.91549H19.8083V-0.0845133H5.65951V5.91549ZM16.8083 2.91549V22.7238H22.8083V2.91549H16.8083Z" fill="#7CB118" mask="url(#path-11-inside-1_45_989)"/>
</svg>
