<svg width="170" height="55" viewBox="0 0 170 55" fill="none" xmlns="http://www.w3.org/2000/svg">
<rect width="170" height="55" rx="10" fill="#55ACEE"/>
<path d="M64 16.9594C62.8766 17.4698 61.685 17.8047 60.4649 17.9532C61.7358 17.1721 62.7116 15.9353 63.1711 14.4616C61.963 15.1967 60.6412 15.7147 59.2628 15.9931C58.14 14.7665 56.5405 14 54.7702 14C51.3711 14 48.6152 16.8258 48.6152 20.3111C48.6152 20.8058 48.6696 21.2875 48.7745 21.7495C43.6593 21.4862 39.1241 18.9737 36.0884 15.1553C35.5587 16.0874 35.2552 17.1717 35.2552 18.3281C35.2552 20.5178 36.3419 22.4495 37.9933 23.5813C37.0159 23.5499 36.06 23.2792 35.2054 22.7918C35.205 22.8182 35.205 22.8447 35.205 22.8712C35.205 25.9291 37.3266 28.48 40.1421 29.0598C39.2358 29.3125 38.2851 29.3495 37.3627 29.1679C38.1459 31.6753 40.4189 33.4999 43.1121 33.551C41.0057 35.2436 38.3518 36.2527 35.4682 36.2527C34.9714 36.2527 34.4815 36.2227 34 36.1644C36.7238 37.9552 39.959 39 43.4348 39C54.7559 39 60.9466 29.383 60.9466 21.043C60.9466 20.7693 60.9407 20.4971 60.9288 20.2265C62.1337 19.3333 63.1737 18.227 64 16.9594Z" fill="white"/>
<path d="M83.8076 20.2617H80.0479V35H77.9854V20.2617H74.2148V18.4141H83.8076V20.2617ZM98.417 24.709L93.4219 35.4834L90.4248 28.5332L87.417 35.4834L82.4004 24.709H84.6455L87.417 31.2402L90.3818 24.1934L93.4219 31.2402L96.1504 24.709H98.417ZM101.586 35H99.6094V24.709H101.586V35ZM101.897 20.541C101.897 20.9062 101.772 21.2142 101.521 21.4648C101.271 21.7155 100.963 21.8408 100.598 21.8408C100.232 21.8408 99.9245 21.7155 99.6738 21.4648C99.4232 21.2142 99.2979 20.9062 99.2979 20.541C99.2979 20.1829 99.4232 19.8786 99.6738 19.6279C99.9245 19.3773 100.232 19.252 100.598 19.252C100.963 19.252 101.271 19.3773 101.521 19.6279C101.772 19.8786 101.897 20.1829 101.897 20.541ZM108.676 26.46H106.914V35H104.927V26.46H103.831V24.709H104.927V20.5947H106.914V24.709H108.676V26.46ZM114.09 26.46H112.328V35H110.341V26.46H109.245V24.709H110.341V20.5947H112.328V24.709H114.09V26.46ZM122.254 28.8662C122.168 28.014 121.878 27.3659 121.384 26.9219C120.89 26.4707 120.22 26.2451 119.375 26.2451C118.566 26.2451 117.896 26.4779 117.366 26.9434C116.843 27.4017 116.528 28.0426 116.421 28.8662H122.254ZM124.209 30.2305H116.378C116.457 31.2832 116.754 32.0853 117.27 32.6367C117.792 33.1882 118.516 33.4639 119.439 33.4639C120.141 33.4639 120.721 33.3278 121.18 33.0557C121.638 32.7835 122.01 32.361 122.297 31.7881L123.951 32.6689C123.479 33.5713 122.87 34.2445 122.125 34.6885C121.38 35.1325 120.478 35.3545 119.418 35.3545C117.878 35.3545 116.657 34.8496 115.755 33.8398C114.853 32.8301 114.401 31.4801 114.401 29.79C114.401 28.2217 114.874 26.9255 115.819 25.9014C116.772 24.8701 117.957 24.3545 119.375 24.3545C120.822 24.3545 121.989 24.8271 122.877 25.7725C123.765 26.7106 124.209 27.9531 124.209 29.5V30.2305ZM132.008 24.5479L131.6 26.5352C131.456 26.4421 131.302 26.374 131.138 26.3311C130.98 26.2881 130.815 26.2666 130.644 26.2666C129.77 26.2666 129.107 26.6283 128.656 27.3516C128.212 28.0677 127.99 29.1348 127.99 30.5527V35H126.003V24.709H127.99V26.5566C128.227 25.7975 128.592 25.2425 129.086 24.8916C129.587 24.5335 130.246 24.3545 131.062 24.3545C131.249 24.3545 131.424 24.3724 131.589 24.4082C131.761 24.444 131.9 24.4906 132.008 24.5479Z" fill="white"/>
</svg>
