<svg width="25" height="25" viewBox="0 0 25 25" fill="none" xmlns="http://www.w3.org/2000/svg">
<path d="M24.9311 13.6636L13.3413 0.382844C13.2365 0.262671 13.107 0.166292 12.9615 0.100239C12.816 0.0341851 12.6579 0 12.4979 0C12.338 0 12.1799 0.0341851 12.0344 0.100239C11.8889 0.166292 11.7594 0.262671 11.6546 0.382844L0.0683041 13.6636C0.0332926 13.7036 0.010591 13.7528 0.00290391 13.8053C-0.00478318 13.8578 0.00286802 13.9114 0.0249461 13.9597C0.0470241 14.008 0.0825985 14.049 0.127432 14.0777C0.172265 14.1065 0.224468 14.1218 0.277822 14.1219H3.10631C3.26694 14.1219 3.42059 14.0525 3.52884 13.931L11.1727 5.17086V24.7222C11.1727 24.875 11.2985 25 11.4521 25H13.5473C13.7009 25 13.8266 24.875 13.8266 24.7222V5.17086L21.4705 13.931C21.5753 14.0525 21.7289 14.1219 21.8931 14.1219H24.7216C24.959 14.1219 25.0882 13.8442 24.9311 13.6636Z" fill="#7CB118"/>
</svg>
