<svg width="100" height="100" viewBox="0 0 100 100" fill="none" xmlns="http://www.w3.org/2000/svg">
<path d="M100 50C100 77.6142 77.6142 100 50 100C22.3858 100 0 77.6142 0 50C0 22.3858 22.3858 0 50 0C77.6142 0 100 22.3858 100 50Z" fill="#D9D9D9"/>
<path d="M50.4444 46.7937C53.0941 46.7937 55.6842 46.0079 57.8873 44.5359C60.0904 43.0638 61.8075 40.9715 62.8215 38.5236C63.8355 36.0756 64.1008 33.382 63.5839 30.7832C63.0669 28.1845 61.791 25.7974 59.9174 23.9238C58.0439 22.0503 55.6568 20.7743 53.058 20.2574C50.4593 19.7405 47.7656 20.0058 45.3177 21.0198C42.8698 22.0338 40.7775 23.7509 39.3054 25.954C37.8333 28.1571 37.0476 30.7472 37.0476 33.3968C37.0476 36.9499 38.4591 40.3574 40.9715 42.8698C43.4839 45.3822 46.8914 46.7937 50.4444 46.7937ZM70.5397 80.2857C71.4279 80.2857 72.2798 79.9329 72.9079 79.3048C73.536 78.6767 73.8889 77.8248 73.8889 76.9365C73.8889 70.7187 71.4189 64.7555 67.0222 60.3588C62.6255 55.9621 56.6623 53.4921 50.4444 53.4921C44.2266 53.4921 38.2634 55.9621 33.8667 60.3588C29.47 64.7555 27 70.7187 27 76.9365C27 77.8248 27.3529 78.6767 27.981 79.3048C28.6091 79.9329 29.4609 80.2857 30.3492 80.2857H70.5397Z" fill="#ABABAB"/>
</svg>
