<svg width="19" height="17" viewBox="0 0 19 17" fill="none" xmlns="http://www.w3.org/2000/svg">
<path d="M17.7919 7.36181C17.9869 7.21975 18.1315 7.02156 18.2055 6.79505C18.2796 6.56853 18.2792 6.32504 18.2046 6.09872C18.13 5.87239 17.9848 5.67459 17.7894 5.53304C17.594 5.39149 17.3582 5.31329 17.1151 5.3094L12.3931 5.13495C12.3699 5.13338 12.3476 5.12528 12.329 5.11163C12.3104 5.09797 12.2962 5.07934 12.2882 5.05798L10.6565 0.747925C10.5745 0.528645 10.4256 0.339299 10.2299 0.205522C10.0342 0.0717453 9.80128 0 9.56254 0C9.3238 0 9.09082 0.0717453 8.89516 0.205522C8.6995 0.339299 8.55059 0.528645 8.46861 0.747925L6.84215 5.07338C6.83411 5.09474 6.81993 5.11337 6.80131 5.12702C6.78269 5.14068 6.76044 5.14878 6.73722 5.15034L2.01524 5.3248C1.77211 5.32868 1.53633 5.40688 1.34094 5.54843C1.14555 5.68998 1.00036 5.88779 0.925728 6.11411C0.851095 6.34043 0.85076 6.58392 0.924771 6.81044C0.998781 7.03696 1.14343 7.23514 1.33842 7.37721L5.04255 10.2249C5.06109 10.2392 5.07495 10.2585 5.08241 10.2803C5.08987 10.3022 5.0906 10.3258 5.08453 10.3481L3.80959 14.7659C3.74353 14.9908 3.74993 15.2303 3.82792 15.4515C3.90592 15.6728 4.05173 15.8652 4.24551 16.0026C4.43929 16.14 4.67164 16.2156 4.91094 16.2193C5.15025 16.2229 5.38489 16.1544 5.58296 16.023L9.49695 13.4575C9.51623 13.4445 9.53911 13.4375 9.56254 13.4375C9.58597 13.4375 9.60884 13.4445 9.62812 13.4575L13.5421 16.023C13.7375 16.1589 13.9713 16.2319 14.2111 16.2319C14.4508 16.2319 14.6846 16.1589 14.88 16.023C15.0738 15.8869 15.2198 15.6954 15.2978 15.4749C15.3758 15.2544 15.3819 15.0156 15.3155 14.7915L14.0301 10.3583C14.0232 10.3361 14.0236 10.3123 14.0311 10.2903C14.0386 10.2682 14.0529 10.249 14.072 10.2352L17.7919 7.36181Z" fill="url(#paint0_linear_28_391)"/>
<defs>
<linearGradient id="paint0_linear_28_391" x1="9.56516" y1="0" x2="9.56516" y2="16.2319" gradientUnits="userSpaceOnUse">
<stop stop-color="#7CB118"/>
</linearGradient>
</defs>
</svg>
