<svg width="22" height="22" viewBox="0 0 22 22" fill="none" xmlns="http://www.w3.org/2000/svg">
<path d="M20.1659 9.16661H6.24512L12.2976 3.13991C12.643 2.79497 12.837 2.32714 12.837 1.83932C12.837 1.3515 12.643 0.883663 12.2976 0.538724C11.9523 0.193785 11.4838 0 10.9954 0C10.507 0 10.0386 0.193785 9.69322 0.538724L0.522742 9.69784C0.355765 9.87206 0.224875 10.0775 0.137582 10.3023C-0.0458606 10.7483 -0.0458606 11.2486 0.137582 11.6945C0.224875 11.9194 0.355765 12.1248 0.522742 12.299L9.69322 21.4581C9.86372 21.6298 10.0666 21.7661 10.2901 21.8591C10.5136 21.9521 10.7533 22 10.9954 22C11.2375 22 11.4773 21.9521 11.7008 21.8591C11.9243 21.7661 12.1271 21.6298 12.2976 21.4581C12.4695 21.2879 12.606 21.0853 12.6991 20.862C12.7922 20.6388 12.8402 20.3994 12.8402 20.1576C12.8402 19.9157 12.7922 19.6763 12.6991 19.4531C12.606 19.2299 12.4695 19.0273 12.2976 18.857L6.24512 12.8303H20.1659C20.6523 12.8303 21.1188 12.6373 21.4628 12.2937C21.8068 11.9502 22 11.4843 22 10.9984C22 10.5126 21.8068 10.0467 21.4628 9.70314C21.1188 9.35961 20.6523 9.16661 20.1659 9.16661Z" fill="black"/>
</svg>
