<svg width="78" height="24" viewBox="0 0 78 24" fill="none" xmlns="http://www.w3.org/2000/svg">
<path d="M50.8042 0C45.2659 0 40.3167 2.72606 40.3167 7.76266C40.3167 13.5387 49.0944 13.9376 49.0944 16.8394C49.0944 18.0612 47.62 19.1548 45.1017 19.1548C41.5279 19.1548 38.8568 17.6266 38.8568 17.6266L37.7138 22.7091C37.7138 22.7091 40.7909 24 44.8762 24C50.9313 24 55.696 21.1401 55.696 16.0174C55.696 9.91395 46.8817 9.52685 46.8817 6.83357C46.8817 5.87648 48.0921 4.82779 50.6031 4.82779C53.4363 4.82779 55.7478 5.93922 55.7478 5.93922L56.8664 1.03039C56.8664 1.03039 54.3512 0 50.8042 0ZM0.134104 0.370478L0 1.11143C0 1.11143 2.32997 1.51638 4.42849 2.32417C7.13051 3.25046 7.32299 3.7897 7.77806 5.46454L12.7369 23.6179H19.3842L29.6249 0.370478H22.9928L16.4125 16.1766L13.7274 2.77858C13.4812 1.24519 12.2338 0.370478 10.707 0.370478H0.134104ZM32.2917 0.370478L27.0891 23.6179H33.4133L38.5977 0.370478H32.2917ZM67.5642 0.370478C66.0392 0.370478 65.2312 1.14582 64.6383 2.50072L55.3729 23.6179H62.005L63.2881 20.0984H71.3679L72.1482 23.6179H78L72.8949 0.370478H67.5642ZM68.4268 6.65123L70.3926 15.3748H65.126L68.4268 6.65123Z" fill="#1434CB"/>
</svg>
