<svg width="56" height="56" viewBox="0 0 56 56" fill="none" xmlns="http://www.w3.org/2000/svg">
<circle cx="26" cy="26" r="20" fill="#7CB118"/>
<path d="M31.834 18.3692C32.119 18.0954 32.119 17.6515 31.834 17.3777L29.6583 15.2879C29.3732 15.0141 28.911 15.0141 28.626 15.2879L15.2998 28.0882C15.0147 28.362 15.0147 28.8059 15.2998 29.0797L17.4755 31.1696C17.7605 31.4434 18.2227 31.4434 18.5077 31.1696C19.1228 30.5788 20.1239 30.5788 20.739 31.1696C21.3541 31.7604 21.3541 32.722 20.739 33.3129C20.454 33.5866 20.454 34.0306 20.739 34.3044L22.9147 36.3942C23.1998 36.668 23.662 36.668 23.947 36.3942L37.2732 23.5939C37.5583 23.32 37.5583 22.8761 37.2732 22.6024L35.0975 20.5125C34.8125 20.2387 34.3503 20.2387 34.0653 20.5125C33.4502 21.1033 32.4491 21.1033 31.834 20.5125C31.2189 19.9217 31.2189 18.9601 31.834 18.3692ZM30.8017 21.504C31.8084 22.471 33.3512 22.6159 34.5187 21.9395L35.7249 23.0981L27.3744 31.1191L26.2587 30.0474C25.9736 29.7736 25.5115 29.7737 25.2265 30.0474C24.9414 30.3212 24.9414 30.7652 25.2265 31.0389L26.3421 32.1106L23.4309 34.907L22.2247 33.7484C22.9288 32.6269 22.778 31.1451 21.7713 30.1781C20.7646 29.2111 19.2218 29.0662 18.0543 29.7426L16.8481 28.584L19.7594 25.7876L20.875 26.8593C21.1601 27.1331 21.6222 27.133 21.9073 26.8593C22.1923 26.5855 22.1923 26.1416 21.9073 25.8678L20.7916 24.7961L29.1421 16.7752L30.3483 17.9337C29.6442 19.0552 29.795 20.537 30.8017 21.504Z" fill="white" stroke="white" stroke-width="0.3"/>
<path d="M22.5067 27.4353C22.2217 27.709 22.2217 28.1528 22.5067 28.4265L23.5942 29.4712C23.8792 29.7449 24.3413 29.7449 24.6262 29.4712C24.9112 29.1975 24.9112 28.7536 24.6262 28.4799L23.5387 27.4353C23.5387 27.4353 23.5387 27.4353 23.5387 27.4353C23.2537 27.1615 22.7916 27.1615 22.5067 27.4353Z" fill="white" stroke="white" stroke-width="0.3"/>
<circle cx="51" cy="6" r="5" fill="#7CB118"/>
<circle cx="36.5" cy="1.5" r="1.5" fill="#7CB118"/>
<circle cx="51.5" cy="26.5" r="1.5" fill="#7CB118"/>
<circle cx="44.5" cy="44.5" r="1.5" fill="#7CB118"/>
<circle cx="18.5" cy="53.5" r="2.5" fill="#7CB118"/>
<circle cx="2.5" cy="5.5" r="2.5" fill="#7CB118"/>
</svg>
