<svg width="27" height="26" viewBox="0 0 27 26" fill="none" xmlns="http://www.w3.org/2000/svg">
<path d="M4.21875 6.44296H24.3211C25.2465 6.44296 26 7.19674 26 8.12153V22.4072C26 23.332 25.2465 24.0858 24.3211 24.0858H3.375C2.11567 24.0858 1 22.9888 1 21.5144V3.65724C1 2.18282 2.11567 1.08582 3.375 1.08582H22.7812C23.5452 1.08582 24.2581 1.73288 24.3095 2.65724H4.21875C3.14775 2.65724 2.375 3.55857 2.375 4.5501C2.375 5.54164 3.14775 6.44296 4.21875 6.44296ZM19.25 15.2644C19.25 16.7487 20.4009 18.0501 21.9375 18.0501C23.4741 18.0501 24.625 16.7487 24.625 15.2644C24.625 13.7801 23.4741 12.4787 21.9375 12.4787C20.4009 12.4787 19.25 13.7801 19.25 15.2644Z" stroke="#7CB118" stroke-width="2"/>
</svg>
