<svg width="170" height="55" viewBox="0 0 170 55" fill="none" xmlns="http://www.w3.org/2000/svg">
<rect width="170" height="55" rx="10" fill="#40C351"/>
<path d="M76.709 16.4141L69.9736 33.4834L65.3115 21.291L60.5742 33.4834L53.8926 16.4141H56.0732L60.6172 28.4238L65.29 15.9307L69.9307 28.4238L74.5283 16.4141H76.709ZM84.0889 27.7471C84.0889 26.6514 83.8096 25.7956 83.251 25.1797C82.6924 24.5566 81.9297 24.2451 80.9629 24.2451C80.0033 24.2451 79.237 24.5674 78.6641 25.2119C78.0911 25.8493 77.8047 26.7158 77.8047 27.8115C77.8047 28.9144 78.0876 29.7988 78.6533 30.4648C79.2191 31.1309 79.9674 31.4639 80.8984 31.4639C81.8438 31.4639 82.61 31.1201 83.1973 30.4326C83.7917 29.7451 84.0889 28.8499 84.0889 27.7471ZM86.0762 33H84.0889V31.3887C83.7523 32.0404 83.2939 32.5309 82.7139 32.8604C82.1338 33.1898 81.4355 33.3545 80.6191 33.3545C79.194 33.3545 78.0374 32.8389 77.1494 31.8076C76.2614 30.7764 75.8174 29.4372 75.8174 27.79C75.8174 26.1715 76.2614 24.861 77.1494 23.8584C78.0446 22.8558 79.2155 22.3545 80.6621 22.3545C81.4284 22.3545 82.098 22.5085 82.6709 22.8164C83.2438 23.1172 83.7165 23.5719 84.0889 24.1807V22.709H86.0762V33ZM92.6719 24.46H90.9102V33H88.9229V24.46H87.8271V22.709H88.9229V18.5947H90.9102V22.709H92.6719V24.46ZM102.662 33H100.686V26.9092C100.686 25.9495 100.514 25.2441 100.17 24.793C99.8262 24.3418 99.2855 24.1162 98.5479 24.1162C97.71 24.1162 97.0618 24.4528 96.6035 25.126C96.1523 25.7992 95.9268 26.7731 95.9268 28.0479V33H93.9502V14.8457H95.9268V24.1592C96.2347 23.5648 96.6644 23.1172 97.2158 22.8164C97.7744 22.5085 98.4476 22.3545 99.2354 22.3545C100.302 22.3545 101.14 22.709 101.749 23.418C102.358 24.127 102.662 25.1224 102.662 26.4043V33ZM111.933 30.207C111.933 31.1738 111.582 31.9401 110.88 32.5059C110.185 33.0716 109.233 33.3545 108.022 33.3545C107.099 33.3545 106.318 33.1719 105.681 32.8066C105.05 32.4342 104.592 31.8971 104.306 31.1953L105.971 30.1426C106.157 30.6224 106.425 30.984 106.776 31.2275C107.134 31.471 107.578 31.5928 108.108 31.5928C108.681 31.5928 109.132 31.4818 109.462 31.2598C109.791 31.0306 109.956 30.7155 109.956 30.3145C109.956 29.8704 109.795 29.5267 109.473 29.2832C109.15 29.0397 108.542 28.7533 107.646 28.4238C106.694 28.0801 105.985 27.654 105.52 27.1455C105.061 26.6299 104.832 26.014 104.832 25.2979C104.832 24.3812 105.14 23.6615 105.756 23.1387C106.372 22.6159 107.228 22.3545 108.323 22.3545C109.118 22.3545 109.781 22.5192 110.311 22.8486C110.848 23.1709 111.27 23.6722 111.578 24.3525L109.978 25.3408C109.791 24.9111 109.559 24.5996 109.279 24.4062C109.007 24.2129 108.667 24.1162 108.259 24.1162C107.779 24.1162 107.41 24.2129 107.152 24.4062C106.895 24.5996 106.766 24.8753 106.766 25.2334C106.766 25.6201 106.905 25.9388 107.185 26.1895C107.471 26.4329 108.005 26.6872 108.785 26.9521C109.895 27.3102 110.697 27.7471 111.191 28.2627C111.686 28.7712 111.933 29.4193 111.933 30.207ZM121.192 27.7471C121.192 26.6514 120.913 25.7956 120.354 25.1797C119.796 24.5566 119.033 24.2451 118.066 24.2451C117.107 24.2451 116.34 24.5674 115.768 25.2119C115.195 25.8493 114.908 26.7158 114.908 27.8115C114.908 28.9144 115.191 29.7988 115.757 30.4648C116.323 31.1309 117.071 31.4639 118.002 31.4639C118.947 31.4639 119.714 31.1201 120.301 30.4326C120.895 29.7451 121.192 28.8499 121.192 27.7471ZM123.18 33H121.192V31.3887C120.856 32.0404 120.397 32.5309 119.817 32.8604C119.237 33.1898 118.539 33.3545 117.723 33.3545C116.298 33.3545 115.141 32.8389 114.253 31.8076C113.365 30.7764 112.921 29.4372 112.921 27.79C112.921 26.1715 113.365 24.861 114.253 23.8584C115.148 22.8558 116.319 22.3545 117.766 22.3545C118.532 22.3545 119.201 22.5085 119.774 22.8164C120.347 23.1172 120.82 23.5719 121.192 24.1807V22.709H123.18V33ZM134.083 27.8115C134.083 26.7158 133.797 25.8493 133.224 25.2119C132.651 24.5674 131.881 24.2451 130.914 24.2451C129.947 24.2451 129.185 24.5566 128.626 25.1797C128.067 25.7956 127.788 26.6514 127.788 27.7471C127.788 28.8499 128.085 29.7451 128.68 30.4326C129.274 31.1201 130.04 31.4639 130.979 31.4639C131.91 31.4639 132.658 31.1309 133.224 30.4648C133.797 29.7988 134.083 28.9144 134.083 27.8115ZM136.06 27.79C136.06 29.4372 135.616 30.7764 134.728 31.8076C133.847 32.8389 132.694 33.3545 131.269 33.3545C130.452 33.3545 129.75 33.1898 129.163 32.8604C128.583 32.5309 128.125 32.0404 127.788 31.3887V38.7148H125.812V22.709H127.788V24.1807C128.168 23.5719 128.64 23.1172 129.206 22.8164C129.779 22.5085 130.452 22.3545 131.226 22.3545C132.672 22.3545 133.84 22.8558 134.728 23.8584C135.616 24.861 136.06 26.1715 136.06 27.79ZM146.222 27.8115C146.222 26.7158 145.935 25.8493 145.362 25.2119C144.789 24.5674 144.02 24.2451 143.053 24.2451C142.086 24.2451 141.323 24.5566 140.765 25.1797C140.206 25.7956 139.927 26.6514 139.927 27.7471C139.927 28.8499 140.224 29.7451 140.818 30.4326C141.413 31.1201 142.179 31.4639 143.117 31.4639C144.048 31.4639 144.797 31.1309 145.362 30.4648C145.935 29.7988 146.222 28.9144 146.222 27.8115ZM148.198 27.79C148.198 29.4372 147.754 30.7764 146.866 31.8076C145.985 32.8389 144.832 33.3545 143.407 33.3545C142.591 33.3545 141.889 33.1898 141.302 32.8604C140.722 32.5309 140.263 32.0404 139.927 31.3887V38.7148H137.95V22.709H139.927V24.1807C140.306 23.5719 140.779 23.1172 141.345 22.8164C141.918 22.5085 142.591 22.3545 143.364 22.3545C144.811 22.3545 145.978 22.8558 146.866 23.8584C147.754 24.861 148.198 26.1715 148.198 27.79Z" fill="white"/>
<path fill-rule="evenodd" clip-rule="evenodd" d="M33.473 15C26.5886 15 21 20.5886 21 27.473C21 29.9028 21.6749 32.2246 22.9978 34.2495L21.108 38.4341C20.946 38.8121 21 39.2711 21.27 39.595C21.486 39.838 21.7829 39.973 22.1069 39.973C22.2149 39.973 22.2959 39.973 22.4039 39.946L27.6415 38.5151C29.4503 39.487 31.4752 40 33.527 40C40.4114 40 46 34.4114 46 27.527C45.946 20.5886 40.3575 15 33.473 15ZM33.473 37.7862C31.6371 37.7862 29.8553 37.3002 28.2894 36.3823C28.1274 36.2743 27.9384 36.2203 27.7495 36.2203C27.6415 36.2203 27.5605 36.2203 27.4525 36.2473L24.0238 37.1922L25.2117 34.5734C25.3737 34.2225 25.3197 33.7905 25.1037 33.4935C23.8348 31.7387 23.1598 29.6598 23.1598 27.473C23.1598 21.8035 27.8035 17.1598 33.473 17.1598C39.1425 17.1598 43.7862 21.7765 43.7862 27.473C43.7862 33.1425 39.1695 37.7862 33.473 37.7862Z" fill="white"/>
<path fill-rule="evenodd" clip-rule="evenodd" d="M38.2787 29.3358C37.7657 29.0119 37.0638 28.6609 36.4698 28.9309C36.0108 29.1199 35.6869 29.8758 35.3899 30.2538C35.2279 30.4428 35.0389 30.4698 34.7959 30.3888C33.0141 29.6868 31.6642 28.4989 30.6923 26.879C30.5303 26.6361 30.5573 26.4201 30.7463 26.1771C31.0432 25.8261 31.4212 25.4212 31.5022 24.9622C31.5832 24.5032 31.3672 23.9363 31.1782 23.5313C30.9352 22.9914 30.6653 22.2354 30.1253 21.9384C29.6393 21.6685 28.9914 21.8034 28.5594 22.1814C27.8035 22.8024 27.4255 23.7743 27.4525 24.7192C27.4525 24.9892 27.4795 25.2592 27.5605 25.5291C27.7225 26.1501 27.9925 26.7441 28.3435 27.311C28.5864 27.743 28.8564 28.1479 29.1534 28.5259C30.0983 29.8218 31.2862 30.9287 32.6361 31.7657C33.3111 32.1706 34.067 32.5486 34.8229 32.7916C35.6869 33.0615 36.4428 33.3585 37.3607 33.1965C38.3327 33.0076 39.2776 32.4136 39.6555 31.4957C39.7635 31.2257 39.8175 30.9017 39.7635 30.6317C39.5746 29.9838 38.7646 29.6328 38.2787 29.3358Z" fill="white"/>
</svg>
